STARTFONT 2.1
COMMENT
COMMENT Converted from OpenType font "RuthlessSketch_Regular.ttf" by "otf2bdf 3.0".
COMMENT
FONT -FreeType-Ruthless Sketch-Medium-R-Normal--50-360-100-100-P-246-ISO10646-1
SIZE 36 100 100
FONTBOUNDINGBOX 59 56 -23 -10
STARTPROPERTIES 19
FOUNDRY "FreeType"
FAMILY_NAME "Ruthless Sketch"
WEIGHT_NAME "Medium"
SLANT "R"
SETWIDTH_NAME "Normal"
ADD_STYLE_NAME ""
PIXEL_SIZE 50
POINT_SIZE 360
RESOLUTION_X 100
RESOLUTION_Y 100
SPACING "P"
AVERAGE_WIDTH 246
CHARSET_REGISTRY "ISO10646"
CHARSET_ENCODING "1"
FONT_ASCENT 46
FONT_DESCENT 10
COPYRIGHT "© 2024 GGBotNet. All Rights Reserved."
_OTF_FONTFILE "RuthlessSketch_Regular.ttf"
_OTF_PSNAME "RuthlessSketch-Regular"
ENDPROPERTIES
CHARS 1105
STARTCHAR 0020
ENCODING 32
SWIDTH 300 0
DWIDTH 15 0
BBX 0 0 0 0
BITMAP
ENDCHAR
STARTCHAR 0021
ENCODING 33
SWIDTH 280 0
DWIDTH 14 0
BBX 13 38 1 -1
BITMAP
7FF8
FFF8
FFF8
FFF0
FFF0
FFF0
FFF0
FFF0
FFE0
FFE0
7FE0
7FE0
7FE0
7FE0
7FE0
7FC0
7FC0
3FC0
3FC0
3FC0
3FC0
3FC0
3FC0
3FC0
1F80
0000
0000
0000
0300
0FC0
3FE0
3FE0
3FE0
3FE0
3FE0
1FE0
0FC0
0200
ENDCHAR
STARTCHAR 0022
ENCODING 34
SWIDTH 380 0
DWIDTH 19 0
BBX 18 18 1 18
BITMAP
FE1F80
FE1FC0
FE1FC0
FE3FC0
FE3FC0
FE1FC0
FE1FC0
FE1FC0
FE1F80
FE1F80
7E1F80
7C0F80
7C0F80
7C0F00
3C0F00
380700
380700
380700
ENDCHAR
STARTCHAR 0023
ENCODING 35
SWIDTH 500 0
DWIDTH 25 0
BBX 24 35 1 0
BITMAP
00C408
00FC1E
00FC1E
00FC3E
01F83E
01F83C
01F87C
01F87C
03F87C
FFFFFF
FFFFFF
FFFFFF
FFFFFF
FFFFFF
FFFFFF
3FE1F0
07C3F0
07C3E0
0FC3E0
2FFFFF
FFFFFF
FFFFFF
FFFFFF
FFFFFF
FFFFFF
FFFFC0
3E1F80
3E1F80
3E1F80
3C1F80
7C1F00
7C3F00
783F00
783F00
102000
ENDCHAR
STARTCHAR 0024
ENCODING 36
SWIDTH 500 0
DWIDTH 25 0
BBX 23 47 1 -6
BITMAP
003E00
00FE00
00FE00
00FE00
00FE00
00FE00
00FF00
01FFE0
03FFF0
0FFFFC
3FFFFE
3FFFFE
7FFFFE
7FFFFE
7FFFFE
7FFF3E
7FFE0C
7FFE00
3FFE00
3FFE00
3FFE00
1FFFC0
1FFFE0
03FFF0
00FFF8
00FFF8
00FFF8
00FFFC
60FFFC
3FFFFC
7FFFFC
7FFFF8
7FFFF8
7FFFF8
FFFFF0
FFFFF0
FFFFE0
FFFFE0
FFFFC0
FFFF00
01FE00
00FE00
00FE00
00FE00
00FE00
00FE00
000200
ENDCHAR
STARTCHAR 0025
ENCODING 37
SWIDTH 560 0
DWIDTH 28 0
BBX 27 35 1 0
BITMAP
00000800
02001F00
1F801F00
3FC03F00
7FC03E00
7FE07E00
F1E0FC00
F0F0FC00
F0F1F800
F0F1F800
F0F3F000
F1F3F000
FFE7E000
7FE7C000
3FCFC000
1F1F8000
001F8000
003F0800
003E3E00
007E7F00
00FCFF80
00FDFFC0
01F9E3C0
01F9E3C0
03F1E1E0
07E1C1E0
07E1E3C0
0FC1E3C0
0F81FFC0
1F80FF80
3F00FF80
3E003E00
7E000000
3C000000
08000000
ENDCHAR
STARTCHAR 0026
ENCODING 38
SWIDTH 500 0
DWIDTH 25 0
BBX 24 33 1 1
BITMAP
07F800
1FFC00
3FFE00
3FFE00
7FFE00
7E3F00
3E3F00
3E3E00
3F7E00
3FFE00
1FFC00
1FFC00
1FF87E
1FFC7E
3FFE7C
7FFF7C
7FFF7C
7F3FFC
FE3FFC
FE1FF8
FE0FF8
FE07F8
FE03F8
FE03FC
FF03FE
FFFFFF
FFFFFF
7FFFFF
7FFFFF
3FFFCF
1FFFC7
07FF83
00FC01
ENDCHAR
STARTCHAR 0027
ENCODING 39
SWIDTH 200 0
DWIDTH 10 0
BBX 9 19 1 18
BITMAP
0800
FF00
FF00
FF80
FF80
FF80
FF80
FF80
FF80
FF00
FF00
7F00
7F00
7E00
3E00
3E00
3C00
3C00
1C00
ENDCHAR
STARTCHAR 0028
ENCODING 40
SWIDTH 340 0
DWIDTH 17 0
BBX 16 47 1 -6
BITMAP
0070
007C
00FF
01FF
03FC
07FC
07F8
0FE0
1FC0
1FC0
3F80
3F80
7F00
7E00
7E00
FE00
FC00
FC00
FC00
FC00
FC00
FC00
FC00
FC00
FC00
FC00
FE00
FE00
FE00
FE00
FE00
7E00
7E00
7E00
3F00
3F80
1F80
1FC0
0FC0
0FE0
07F0
03F8
01FC
01FE
00FF
0078
0030
ENDCHAR
STARTCHAR 0029
ENCODING 41
SWIDTH 340 0
DWIDTH 17 0
BBX 16 47 1 -7
BITMAP
1C00
3E00
FF00
FF00
3F80
1FC0
0FE0
07E0
03F0
03F0
03F8
01F8
00FC
007C
007E
007E
007E
007E
007F
007E
007E
007E
007E
007F
007F
007F
007F
003F
003F
003E
007E
007E
007E
00FC
01FC
03FC
03F8
03F0
07F0
0FE0
1FE0
7FC0
7F80
FF00
FF00
3E00
0C00
ENDCHAR
STARTCHAR 002A
ENCODING 42
SWIDTH 320 0
DWIDTH 16 0
BBX 14 15 1 22
BITMAP
0200
0300
0308
F33C
FB7C
3FF8
1FE0
0FC0
0FC0
1FF0
7F78
F33C
6318
0300
0300
ENDCHAR
STARTCHAR 002B
ENCODING 43
SWIDTH 460 0
DWIDTH 23 0
BBX 22 23 1 6
BITMAP
00FE00
00FE00
00FE00
00FE00
00FE00
00FE00
00FE00
00FE00
FFFFFC
FFFFFC
FFFFFC
FFFFFC
FFFFFC
FFFFFC
FFFF7C
00FE00
00FE00
00FE00
00FE00
01FC00
01FC00
00FC00
00E000
ENDCHAR
STARTCHAR 002C
ENCODING 44
SWIDTH 200 0
DWIDTH 10 0
BBX 12 17 -2 -8
BITMAP
0380
0FE0
1FE0
1FE0
1FF0
1FF0
1FF0
0FE0
07E0
07C0
0F80
3F80
FF00
7F00
3E00
1E00
0C00
ENDCHAR
STARTCHAR 002D
ENCODING 45
SWIDTH 380 0
DWIDTH 19 0
BBX 18 8 1 14
BITMAP
030C00
FFFFC0
FFFFC0
FFFFC0
FFFFC0
FFFFC0
FFFFC0
FFFFC0
ENDCHAR
STARTCHAR 002E
ENCODING 46
SWIDTH 200 0
DWIDTH 10 0
BBX 9 9 1 0
BITMAP
1C00
7F00
7F80
FF80
FF80
FF80
FF80
7F00
3E00
ENDCHAR
STARTCHAR 002F
ENCODING 47
SWIDTH 440 0
DWIDTH 22 0
BBX 21 40 1 -3
BITMAP
000188
0003F8
0003F8
0007F0
0007F0
000FE0
000FE0
001FE0
001FC0
003FC0
003FC0
007F80
007F80
007F80
00FF00
00FF00
01FF00
01FE00
01FE00
03FE00
03FC00
07FC00
07FC00
0FF800
0FF800
0FF800
1FF000
1FF000
1FF000
3FF000
3FE000
7FE000
7FE000
7FC000
7FC000
FFC000
FF8000
FF8000
FF8000
C30000
ENDCHAR
STARTCHAR 0030
ENCODING 48
SWIDTH 400 0
DWIDTH 20 0
BBX 18 35 1 0
BITMAP
038000
0FE000
1FF000
3FF000
3FF800
7FFC00
7FFE00
7FFF00
7FFF00
7FFF80
7FFF80
FFBF80
FF1FC0
FE1FC0
FE0FC0
FE0FC0
FE0FC0
FE0FC0
FE0FC0
FE0FC0
FF1FC0
FF9FC0
FFFFC0
7FFFC0
7FFFC0
7FFFC0
3FFF80
3FFF80
1FFF80
1FFF80
0FFF00
0FFF00
07FE00
01FE00
00FC00
ENDCHAR
STARTCHAR 0031
ENCODING 49
SWIDTH 420 0
DWIDTH 21 0
BBX 20 33 1 1
BITMAP
007C00
00FF00
01FF80
07FF80
1FFF80
3FFF80
7FFF80
FFFF80
7F7F80
3EFF80
1EFF80
0CFF80
04FF80
00FF80
00FF80
01FF80
01FF80
01FF80
01FFC0
01FFC0
01FFC0
01FFC0
03FFC0
03FFC0
03FFC0
03FFC0
03FFC0
03FFC0
03FFE0
03FFE0
03FFE0
00FFF0
0001E0
ENDCHAR
STARTCHAR 0032
ENCODING 50
SWIDTH 500 0
DWIDTH 25 0
BBX 24 34 1 0
BITMAP
01C000
07F800
0FFE00
1FFF80
3FFFC0
7FFFC0
FFFFC0
FFFFC0
7FFFC0
7F0FC0
3C0FC0
180FC0
000FC0
001FC0
001FC0
001F80
003F80
003F00
007F00
007F00
00FE07
00FFFF
01FFFF
01FFFE
03FFFE
03FFFE
07FFFE
0FFFFE
0FFFFC
3FFFFC
7FFFFC
7FFFF8
3FFFC0
07FE00
ENDCHAR
STARTCHAR 0033
ENCODING 51
SWIDTH 460 0
DWIDTH 23 0
BBX 22 34 1 0
BITMAP
03F800
3FFC00
7FFE00
7FFE00
7FFC00
3FFC00
00FC00
01F800
01F800
03F800
07F000
07FC00
0FFF80
1FFFC0
1FFFE0
3FFFF0
1FFFF0
07FFF8
0003F8
0001F8
0001F8
0000FC
0001FC
0000FC
0001FC
0003FC
E007F8
FCFFF8
FFFFF0
FFFFF0
3FFFE0
0FFFC0
07FF00
00FC00
ENDCHAR
STARTCHAR 0034
ENCODING 52
SWIDTH 440 0
DWIDTH 22 0
BBX 20 35 1 -1
BITMAP
01F000
07F000
0FF000
0FE000
0FE000
0FE000
0FC000
1FC000
1FC000
1FC000
1F8000
3F8000
3F82E0
3FFFF0
7FFFF0
7FFFF0
7FFFF0
7FFFF0
FFFFF0
FFFFC0
F83E00
807E00
007E00
007E00
00FE00
00FE00
00FF00
01FF00
01FF00
01FF00
03FF00
03FF00
03FF80
07FF00
020000
ENDCHAR
STARTCHAR 0035
ENCODING 53
SWIDTH 480 0
DWIDTH 24 0
BBX 23 34 1 0
BITMAP
001FF0
07FFF0
07FFF0
07FFF0
0FFFE0
0FF000
0FF000
0FE000
0FE000
0FFC00
1FFF00
1FFF80
1FFFC0
1FFFE0
3FFFE0
303FF0
001FF8
000FF8
000FFC
0007FC
0007FC
0003FC
0003FC
0003FE
8003FE
C007FC
E00FFC
FC1FF8
FFFFF8
7FFFF0
7FFFF0
3FFFE0
0FFFC0
01FF00
ENDCHAR
STARTCHAR 0036
ENCODING 54
SWIDTH 480 0
DWIDTH 24 0
BBX 23 36 1 -1
BITMAP
000180
001FC0
003FE0
00FFF0
01FFF8
03FFF8
07FFF0
0FF000
1FE000
1FC000
3F8000
7F8000
7F8000
7FC000
FFFF00
FFFFC0
FFFFE0
FFFFF0
FFFFF8
FFFFFC
FF87FC
FF83FE
FF01FE
FF01FE
FF01FE
7F01FE
7F01FE
7F01FE
7F03FE
7F83FC
3FFFFC
3FFFF8
1FFFF0
0FFFE0
03FFC0
00FF00
ENDCHAR
STARTCHAR 0037
ENCODING 55
SWIDTH 420 0
DWIDTH 21 0
BBX 19 33 1 1
BITMAP
007FE0
FFFFE0
FFFFE0
FFFFE0
FFFFE0
FFFFE0
FFFFE0
FFFFE0
FFFFE0
C01FE0
C01FE0
003FC0
007FC0
007FC0
00FFC0
00FF80
01FF80
01FF80
03FF80
03FF00
07FF00
0FFF00
0FFE00
1FFE00
1FFE00
3FFE00
3FFC00
7FFC00
7FFC00
7FFC00
FFFC00
FF8000
F00000
ENDCHAR
STARTCHAR 0038
ENCODING 56
SWIDTH 500 0
DWIDTH 25 0
BBX 23 35 1 0
BITMAP
00FE00
03FF80
07FF80
0FFFC0
1FFFC0
1FFFC0
1FC7C0
1FC7C0
1FCFC0
0FEFC0
07FF80
07FF00
0FFF80
1FFFC0
1FFFE0
3FFFF0
3FFFF0
7FFFF8
7F8FF8
7F83FC
FF03FE
FF01FE
FF01FE
FF00FE
FF80FE
FFC1FE
FFE3FE
7FFFFE
7FFFFE
3FFFFC
3FFFF8
1FFFF8
07FFF0
01FFE0
003F00
ENDCHAR
STARTCHAR 0039
ENCODING 57
SWIDTH 460 0
DWIDTH 23 0
BBX 21 34 1 0
BITMAP
007800
1FFF80
3FFFE0
7FFFF0
7FFFF0
7FFFF0
7F0FF8
FE07F8
FE03F8
FE03F8
FE03F8
FE03F8
FF07F8
FF9FF8
FFFFF8
7FFFF8
7FFFF8
1FFFF8
0FFFF8
000FF8
0003F8
0003F8
0003F8
0003F8
7007F8
7C0FF8
7FBFF8
3FFFF0
3FFFF0
3FFFF0
3FFFE0
1FFFC0
07FF80
00E000
ENDCHAR
STARTCHAR 003A
ENCODING 58
SWIDTH 200 0
DWIDTH 10 0
BBX 9 25 1 0
BITMAP
0800
7E00
FF00
FF00
FF80
FF80
FF80
FF00
7E00
1000
0000
0000
0000
0000
0000
0000
1C00
7F00
FF00
FF80
FF80
FF80
FF80
7F00
3E00
ENDCHAR
STARTCHAR 003B
ENCODING 59
SWIDTH 200 0
DWIDTH 10 0
BBX 12 33 -2 -8
BITMAP
0100
07E0
0FF0
1FF0
1FF0
1FF0
1FF0
1FE0
07C0
0080
0000
0000
0000
0000
0000
0000
0380
0FE0
1FE0
1FE0
1FF0
1FF0
1FF0
0FE0
07E0
07C0
0F80
3F80
FF00
7F00
3E00
1E00
0C00
ENDCHAR
STARTCHAR 003C
ENCODING 60
SWIDTH 460 0
DWIDTH 23 0
BBX 22 27 1 5
BITMAP
00001C
00007C
0001FC
0007FC
001FFC
007FFC
01FFFC
07FFFC
1FFFFC
FFFFFC
FFFFE0
FFFC00
FFE000
FF8000
FFF800
FFFF00
3FFFE0
1FFFF8
07FFF8
03FFF8
01FFF8
007FF8
003FF8
000FFC
0003FC
0001FC
00003C
ENDCHAR
STARTCHAR 003D
ENCODING 61
SWIDTH 480 0
DWIDTH 24 0
BBX 22 19 1 8
BITMAP
0003C0
FFFFFC
FFFFFC
FFFFFC
FFFFFC
FFFFFC
FFFFFC
7FC000
000000
000000
000000
003FFC
FFFFFC
FFFFFC
FFFFFC
FFFFFC
FFFFFC
FFFFFC
018000
ENDCHAR
STARTCHAR 003E
ENCODING 62
SWIDTH 460 0
DWIDTH 23 0
BBX 22 28 1 3
BITMAP
F00000
FC0000
FF0000
FFC000
FFE000
FFF800
FFFC00
FFFF00
FFFF80
FFFFE0
3FFFF0
03FFF8
007FFC
000FFC
000FFC
00FFFC
1FFFFC
FFFFFC
FFFFE0
FFFF80
FFFE00
FFF800
FFE000
FF8000
FE0000
F80000
E00000
400000
ENDCHAR
STARTCHAR 003F
ENCODING 63
SWIDTH 460 0
DWIDTH 23 0
BBX 22 37 1 -1
BITMAP
07F000
1FFFC0
3FFFF0
7FFFF0
7FFFF8
FFFFF8
FFFFF8
FFFFF8
FE07F8
7807FC
3007F8
0007F8
0007F8
0007F8
000FF8
007FF0
01FFF0
03FFE0
07FF80
07FF00
07FC00
07F800
07F800
07F800
07F800
000000
000000
000000
00E000
03F800
07F800
07FC00
07FC00
07FC00
03F800
01F000
008000
ENDCHAR
STARTCHAR 0040
ENCODING 64
SWIDTH 660 0
DWIDTH 33 0
BBX 31 43 1 -7
BITMAP
000FF800
007FFF00
01FFFF80
07FFFFE0
0FFFFFE0
1FFFFFF0
1FFFFFF8
3FFFFFF8
3FFFFFF8
7FFFFFFC
7FF007FC
7FE003FC
FFC00FFE
FF80FFFE
FF01FFFE
FF03FFFE
FF07FFFE
FF0FE1FE
FF0FC0FE
FF1FC0FE
FF1FC0FE
FF1F80FE
FF1F80FE
FF1FC1FE
FF1FC3FE
FF0FFFFE
FF0FFFFC
FF87FFF8
FF83FFF0
FF81FFC0
7F807E00
7FC00000
7FC00000
7FE001C0
3FF07FE0
3FFFFFF0
3FFFFFF8
1FFFFFF8
1FFFFFF0
0FFFFFE0
07FFFF80
01FFFF00
003FFC00
ENDCHAR
STARTCHAR 0041
ENCODING 65
SWIDTH 620 0
DWIDTH 31 0
BBX 30 35 1 -1
BITMAP
0001C000
0007E000
0007E000
0007E000
000FF000
000FF000
001FF000
001FF000
001FF800
003FF800
003FF800
003FF800
007FFC00
007FFC00
00FFFC00
00FFFE00
00FFFE00
01FFFE00
01F3FF00
03F1FF00
03E1FF00
07C1FF80
07C1FF80
0FFFFF80
0FFFFFC0
0FFFFFC0
1FFFFFC0
1FF8FFE0
3FE0FFE0
3FC0FFF0
7FC0FFF0
7F807FF8
FF807FF8
FF807FFC
FE002000
ENDCHAR
STARTCHAR 0042
ENCODING 66
SWIDTH 520 0
DWIDTH 26 0
BBX 24 34 1 0
BITMAP
3FFC00
FFFF00
FFFFC0
FFFFC0
FFFFC0
FFFFE0
FFFFF0
FF9FF0
7F87F0
7F83F0
7F83F0
7F83F0
7FC7E0
7FCFE0
3FFFC0
3FFF80
3FFFE0
3FFFF8
3FFFFC
3FFFFE
3FF1FE
3FE0FF
3FF0FF
1FF0FF
1FF1FF
1FF3FF
1FF7FF
1FFFFE
1FFFFE
1FFFF8
1FFFF8
1FFFF0
0FFF00
01C000
ENDCHAR
STARTCHAR 0043
ENCODING 67
SWIDTH 480 0
DWIDTH 24 0
BBX 23 33 1 0
BITMAP
001F80
00FFF0
03FFF8
0FFFFC
1FFFFE
3FFFFE
3FFFFE
7FFFFE
7FFFFC
FFFFD4
FFF800
FFE000
FFE000
FFC000
FFC000
FFC000
FFC000
FFC000
FFE004
FFF9FC
FFFFFC
FFFFFC
FFFFFC
7FFFFC
7FFFFC
7FFFFC
3FFFFC
3FFFFC
1FFFFC
1FFFF0
0FFFF0
07FFE0
01FF80
ENDCHAR
STARTCHAR 0044
ENCODING 68
SWIDTH 460 0
DWIDTH 23 0
BBX 21 34 1 0
BITMAP
3FC000
FFF000
FFFE00
FFFF00
FFFF80
FFFFC0
FFFFC0
FFFFE0
FFFFF0
FFCFF0
FF83F8
FF81F8
FF81F8
FF81F8
FF81F8
7F83F8
7F83F8
7F87F8
7FC7F0
7FCFF0
7FFFE0
3FFFE0
3FFFC0
3FFFC0
3FFF80
3FFF80
1FFF00
1FFE00
1FFC00
1FF800
0FF000
0FC000
0F0000
0C0000
ENDCHAR
STARTCHAR 0045
ENCODING 69
SWIDTH 480 0
DWIDTH 24 0
BBX 23 35 1 0
BITMAP
07FC00
3FFFC0
FFFFC0
FFFFC0
FFFF80
7FFF80
7FFF80
7FFF80
7FFF80
7FFF80
3FFF00
3FC000
3FC000
3FE000
3FE380
1FFF80
1FFF00
1FFF00
1FFF80
1FFE80
1FF000
0FF000
0FFFF8
0FFFF8
0FFFFC
0FFFFC
0FFFFC
0FFFFC
0FFFFE
0FFFFE
0FFFFE
07FFFC
07FFC0
07FC00
038000
ENDCHAR
STARTCHAR 0046
ENCODING 70
SWIDTH 500 0
DWIDTH 25 0
BBX 23 35 1 0
BITMAP
003FFC
1FFFFC
FFFFFE
FFFFFE
FFFFFE
FFFFFE
FFFFFE
FFFF8E
FFE000
FF8000
FF8000
FF8000
FF8000
FFBE00
FFFE00
FFFE00
FFFC00
FFFC00
FFFC00
FFFC00
FF8400
FF8000
FF8000
FF8000
FF8000
FF8000
FF8000
FF8000
FF8000
FF8000
FF8000
7FC000
7FC000
7FC000
7E0000
ENDCHAR
STARTCHAR 0047
ENCODING 71
SWIDTH 500 0
DWIDTH 25 0
BBX 23 33 1 0
BITMAP
007FC0
00FFF0
01FFF8
03FFFC
07FFFC
07FFFE
0FFFFC
1FF9F8
1FE000
1FC000
3F8000
3F8000
3F0000
3F0000
7F00FE
7F07FE
7F0FFE
7F07FE
FF07FE
FF07FE
FF07FE
FF07FE
FF87FE
FFFFFE
FFFFFE
FFFFFE
FFFFFE
FFFFFC
7FFFF8
7FFFE0
3FFF80
1FFE00
07F800
ENDCHAR
STARTCHAR 0048
ENCODING 72
SWIDTH 560 0
DWIDTH 28 0
BBX 26 33 1 1
BITMAP
00F80000
0FFC1FC0
1FF83FC0
1FF83FC0
1FFC7FC0
1FF83FC0
1FF83FC0
1FF87FC0
1FF87FC0
1FF87FC0
1FF87FC0
1FF87FC0
1FF8FFC0
3FFFFFC0
3FFFFF80
3FFFFF80
3FFFFF80
3FFFFF80
3FFFFF80
3FFFFFC0
3FFFFFC0
3FFFFFC0
3FF7FFC0
7FF0FFC0
7FF0FFC0
7FF0FF80
7FF0FF80
7FF0FF80
7FF1FF80
7FF1FF80
7FF0FF80
FFF0FF80
FFF1F000
ENDCHAR
STARTCHAR 0049
ENCODING 73
SWIDTH 320 0
DWIDTH 16 0
BBX 15 34 1 0
BITMAP
07F0
0FFE
1FFE
0FFC
0FFC
0FFC
1FFC
1FFC
1FFC
1FF8
1FF8
1FF8
1FF8
1FF8
3FF8
3FF8
3FF8
3FF8
3FF8
3FF8
3FF8
3FF8
3FF8
3FF8
3FF8
3FF8
3FF8
3FF8
3FF0
7FF0
7FF0
7FF0
FFE0
F800
ENDCHAR
STARTCHAR 004A
ENCODING 74
SWIDTH 460 0
DWIDTH 23 0
BBX 21 34 1 0
BITMAP
003C70
003FF0
007FF0
007FF8
007FF8
007FF8
007FF8
00FFF8
00FFF8
00FFF8
00FFF8
00FFF8
00FFF8
00FFF8
00FFF8
00FFF8
00FFF8
007FF8
007FF8
007FF8
003FF8
003FF8
003FF8
FE1FF8
FF1FF0
FFBFF0
FFBFF0
FFFFE0
FFFFE0
7FFFC0
3FFF80
1FFF00
0FFE00
01FC00
ENDCHAR
STARTCHAR 004B
ENCODING 75
SWIDTH 540 0
DWIDTH 27 0
BBX 26 35 1 0
BITMAP
00000800
FFF81C00
FFF83C00
7FF87F00
7FF8FFC0
7FF8FF80
FFF9FF00
FFF9FF00
FFFBFE00
FFFBFC00
FFFFF800
FFFFF800
FFFFF000
FFFFF000
FFFFE000
FFFFE000
FFFFC000
FFFF8000
FFFF0000
FFFF8000
FFFFC000
FFFFE000
FFFFF000
FFFFF800
FFFFF800
FFFFFC00
FFFBFE00
FFF9FF00
FFF8FF00
FFF0FF80
FFF87F80
FFF87FC0
FFF83FC0
FFF83C00
00E03800
ENDCHAR
STARTCHAR 004C
ENCODING 76
SWIDTH 500 0
DWIDTH 25 0
BBX 24 35 1 -1
BITMAP
00FF80
07FF80
0FFF80
0FFF80
0FFF80
0FFF80
0FFF00
0FFF00
1FFF00
1FFF00
1FFF00
1FFF00
1FFE00
1FFE00
1FFE00
1FFE00
1FFE00
3FFE00
3FFC00
3FFC00
3FFC00
3FFC00
3FFC00
7FFC00
7FFFFE
7FFFFE
7FFFFE
7FFFFE
7FFFFE
7FFFFE
7FFFFE
7FFFFF
7FFFF0
7FE000
E00000
ENDCHAR
STARTCHAR 004D
ENCODING 77
SWIDTH 640 0
DWIDTH 32 0
BBX 31 34 1 0
BITMAP
0E0000C0
0F0001E0
0F0003E0
0F8007E0
0FC007E0
0FC007E0
0FE00FE0
0FF00FE0
1FF01FF0
1FF83FF0
1FF83FF0
1FFC7FF0
1FFE7FF0
1FFEFFF8
1FFFFFF0
3FFFFFF8
3FFFFFF8
3FFFFFF8
3FFFFFF8
3FFBFFF8
3FF9DFF8
3FF1DFF8
7FF01FF8
7FE01FF8
7FE01FFC
7FC03FFC
7FC03FFC
7FC03FFC
FFC03FFC
FF803FFC
FF803FFE
FF803FFE
FF003FF4
FF000000
ENDCHAR
STARTCHAR 004E
ENCODING 78
SWIDTH 560 0
DWIDTH 28 0
BBX 27 33 1 0
BITMAP
0FF01F80
1FF87FC0
1FF87FE0
1FF87FC0
1FF87FC0
3FF87FC0
3FF87FC0
3FF87FC0
3FFC7FC0
3FFC7FC0
3FFC7FC0
3FFE7F80
7FFE7F80
7FFEFF80
7FFEFF80
7FFFFF80
7FFFFF80
7FFFFF80
7FFFFF80
7FFFFF80
7FEFFF80
7FEFFF80
7FCFFF80
7FC7FF80
7FC7FF80
FFC7FF00
FFC3FF00
FFC3FF00
FFC3FF00
FFC3FF00
FFC3FF00
FF83FE00
F0000000
ENDCHAR
STARTCHAR 004F
ENCODING 79
SWIDTH 520 0
DWIDTH 26 0
BBX 25 35 1 0
BITMAP
01E00000
01F80000
03FE0000
07FF0000
0FFFC000
0FFFE000
1FFFF000
1FFFF800
1FFFF800
3FFFFC00
3FFFFE00
7FFFFE00
7FFFFE00
7FE3FF00
FFC1FF00
FF81FF00
FF81FF80
FF81FF80
FF81FF80
FF81FF80
FFC1FF80
FFE3FF80
FFFFFF80
7FFFFF80
7FFFFF00
7FFFFF00
7FFFFF00
3FFFFF00
3FFFFE00
1FFFFE00
1FFFFE00
0FFFFC00
07FFF800
01FFF000
007FC000
ENDCHAR
STARTCHAR 0050
ENCODING 80
SWIDTH 480 0
DWIDTH 24 0
BBX 23 34 1 0
BITMAP
07FC00
3FFF80
3FFFE0
3FFFF0
3FFFF0
3FFFF8
3FFFF8
7FCFFC
7FC1FC
7FC0FC
7FC0FE
7FE0FE
7FE0FE
7FE1FE
7FE3FE
7FFFFE
7FFFFE
7FFFFC
7FFFF8
7FFFE0
FFFFC0
FFF000
FFF000
FFF000
FFF000
FFF000
FFF000
FFF000
FFF000
FFF000
FFF800
FFF800
FFF800
FFF800
ENDCHAR
STARTCHAR 0051
ENCODING 81
SWIDTH 620 0
DWIDTH 31 0
BBX 29 37 1 -2
BITMAP
001C0000
03FF0000
07FF8000
0FFFC000
0FFFE000
1FFFF000
3FFFF800
3FFFFC00
3FFFFE00
7FFFFE00
7FC3FE00
7F81FF00
7F81FF00
7F80FF00
FF80FF00
FF807F80
FF807F80
FF807F80
FF807F80
FFC07F80
FFF1FF00
FFFFFF00
FFFFFF00
FFFFFF00
FFFFFF00
7FFFFE00
7FFFFE00
7FFFFE00
3FFFFF00
1FFFFF80
0FFFFFC0
07FFFFE0
03FFFFF0
00FFFFF0
00007FF8
00007FF8
00003800
ENDCHAR
STARTCHAR 0052
ENCODING 82
SWIDTH 580 0
DWIDTH 29 0
BBX 28 35 1 -1
BITMAP
01FE0000
3FFF8000
FFFFE000
FFFFF800
FFFFFC00
FFF3FC00
FFE07E00
FFE07E00
FFE03E00
FFF03E00
FFF03E00
FFF07E00
FFF0FE00
7FF9FE00
7FFFFE00
7FFFFC00
7FFFF800
7FFFE000
7FFFE000
7FFFF000
7FFFF000
7FFFF800
7FFBFC00
7FFBFC00
7FF9FE00
7FF8FE00
7FF8FF00
7FFC7F80
3FFC7F80
3FFC3FC0
3FFC3FC0
3FFC3FE0
3FFC1FF0
1FFC1F80
0FE00000
ENDCHAR
STARTCHAR 0053
ENCODING 83
SWIDTH 500 0
DWIDTH 25 0
BBX 23 35 1 -1
BITMAP
000400
01FFFE
07FFFE
0FFFFE
0FFFFC
1FFFFC
1FFFF8
1FFFF8
3FFFF8
3FFFF0
3FFFF0
7FFFE0
7FFFE0
7FC1C0
3FC060
3FF000
3FFC00
1FFF00
0FFFE0
0FFFF0
01FFF8
003FF8
000FFC
0003FC
0007FC
700FFC
FDFFFC
FFFFFC
FFFFFC
FFFFFC
FFFFF8
7FFFF8
3FFFE0
1FFF80
07FE00
ENDCHAR
STARTCHAR 0054
ENCODING 84
SWIDTH 560 0
DWIDTH 28 0
BBX 27 34 1 0
BITMAP
003E0E00
FFFFFF80
FFFFFFC0
FFFFFFC0
FFFFFFE0
FFFFFFE0
FFFFFFE0
FFFFFFE0
FFFFFFE0
FFFFFF40
FFBFF000
F83FE000
003FC000
003FC000
003FC000
003FC000
003FC000
003F8000
003F8000
003FC000
003FC000
003FC000
003F8000
003F8000
003F8000
003F8000
003F8000
003F8000
003F8000
003F8000
003F8000
003F8000
003F8000
003F8000
ENDCHAR
STARTCHAR 0055
ENCODING 85
SWIDTH 540 0
DWIDTH 27 0
BBX 26 33 1 1
BITMAP
1F803F00
1FE07F80
1FC07FC0
3FC03F80
3FC03F80
3FC03F80
3FC03F80
7FC03F80
7F803F80
7F807F80
7F807F80
7F807F80
FF807F80
FF807F80
FF807FC0
FF807FC0
FFC0FFC0
FFC0FFC0
FFE0FF80
FFFFFF80
FFFFFF80
FFFFFF00
FFFFFF00
7FFFFF00
7FFFFE00
7FFFFE00
3FFFFC00
3FFFFC00
1FFFF800
1FFFF000
0FFFE000
03FFC000
00FF8000
ENDCHAR
STARTCHAR 0056
ENCODING 86
SWIDTH 580 0
DWIDTH 29 0
BBX 28 32 1 1
BITMAP
60000FF0
FC007FF0
FFF03FF0
7FF83FE0
3FF83FF0
3FF87FF0
3FF87FE0
1FFC7FE0
1FFC7FE0
1FFC7FE0
0FFC7FC0
0FFE7FC0
07FE7FC0
07FE7FC0
03FE7F80
03FEFF80
01FFFF80
01FFFF80
00FFFF00
00FFFF00
007FFF00
003FFF00
003FFF00
001FFE00
000FFE00
000FFE00
0007FE00
0003FE00
0003FC00
0001FC00
0000FC00
0000F000
ENDCHAR
STARTCHAR 0057
ENCODING 87
SWIDTH 720 0
DWIDTH 36 0
BBX 35 35 1 0
BITMAP
0000001000
70000038C0
FF80003FE0
FF80E03FC0
FFC0F07FC0
FFC0F07F80
FFC0F07F80
FFE0F8FF80
FFE0F8FF80
7FF0F8FF00
7FF1F9FF00
7FF1FDFF00
3FF9FDFF00
3FF9FFFF00
1FFFFFFF00
1FFFFFFF00
1FFFFFFE00
0FFFFFFE00
0FFFFFFE00
07FFFFFE00
07FFFFFE00
03FFFFFC00
03FFDFFC00
01FFCFFC00
01FFCFFC00
00FF8FFC00
00FF87FC00
007F07FC00
007F07F800
003F03F800
003F03F800
001E03F800
001E01F000
000E000000
0004000000
ENDCHAR
STARTCHAR 0058
ENCODING 88
SWIDTH 560 0
DWIDTH 28 0
BBX 27 33 1 1
BITMAP
00001FC0
3F801FE0
7F803FE0
FF803FE0
FFC07FC0
FFE0FFC0
FFE0FF80
FFF0FF80
7FF1FF00
7FF9FF00
3FF9FF00
1FFBFE00
0FFFFE00
07FFFE00
07FFFC00
03FFF800
01FFF800
01FFF800
00FFF000
00FFF000
01FFF800
03FFF800
03FFF800
07FFFC00
07FFFC00
0FFBFC00
0FF9FE00
1FF9FE00
1FF0FF00
3FF07F00
3FF03F00
3FF03000
3FE00000
ENDCHAR
STARTCHAR 0059
ENCODING 89
SWIDTH 600 0
DWIDTH 30 0
BBX 29 34 1 0
BITMAP
000007F8
07000FF0
3F000FF0
FF801FF0
FFC01FE0
FFC01FE0
7FE03FC0
7FE03FC0
3FF07F80
1FF0FF80
1FF0FF00
1FF9FF00
0FF9FE00
0FFFFE00
07FFFC00
07FFFC00
03FFF800
03FFF800
01FFF000
00FFF000
00FFF000
007FE000
007FC000
003FC000
003FC000
001FC000
001FC000
001FC000
001FE000
001FE000
001FE000
001FE000
001FE000
001F8000
ENDCHAR
STARTCHAR 005A
ENCODING 90
SWIDTH 600 0
DWIDTH 30 0
BBX 28 34 1 0
BITMAP
00FFFF00
0FFFFF00
3FFFFE00
7FFFFC00
7FFFFC00
FFFFF800
FFFFF000
FFFFF000
FF0FE000
001FE000
001FE000
001FC000
003FC000
003F8000
003F8000
007F8000
007F0000
00FF0000
00FF0000
00FF0000
01FF0000
01FE0000
01FE0000
03FC0000
03FC0C30
03FFFFF0
07FFFFF0
07FFFFF0
07FFFFF0
07FFFFE0
07FFFFC0
007FFF80
000FFF00
0000F000
ENDCHAR
STARTCHAR 005B
ENCODING 91
SWIDTH 340 0
DWIDTH 17 0
BBX 16 48 1 -7
BITMAP
0020
FFFF
FFFF
FFFF
FFFF
FFFF
FFFF
FF80
FE00
FE00
FE00
FE00
FE00
FE00
FE00
FE00
FE00
FE00
FE00
FE00
FF00
FF00
FF00
FF00
FF00
FE00
FE00
FE00
FE00
FE00
FE00
FF00
FF00
FF00
FF00
FE00
FE00
FE00
FE00
FE00
FE00
FFFF
FFFF
FFFF
FFFF
FFFF
FFFF
FFFF
ENDCHAR
STARTCHAR 005C
ENCODING 92
SWIDTH 440 0
DWIDTH 22 0
BBX 21 40 1 -2
BITMAP
FF8000
FF8000
FF8000
FFC000
FFC000
7FC000
7FE000
7FE000
3FE000
3FF000
3FF000
1FF000
1FF000
1FF800
0FF800
0FF800
07FC00
07FC00
07FC00
03FC00
03FE00
01FE00
01FE00
00FF00
00FF00
00FF00
007F80
007F80
003F80
003FC0
001FC0
001FE0
001FE0
000FE0
000FF0
0007F0
0007F0
0003F8
0003C8
000100
ENDCHAR
STARTCHAR 005D
ENCODING 93
SWIDTH 340 0
DWIDTH 17 0
BBX 16 48 1 -7
BITMAP
0038
FFFF
FFFF
FFFF
FFFF
FFFF
FFFF
7EFF
00FF
00FF
00FF
00FF
00FF
00FF
00FF
00FF
00FF
00FF
00FF
00FF
00FF
00FF
00FF
00FF
00FF
00FF
00FF
00FF
00FF
00FF
00FF
00FF
00FF
00FF
00FF
00FF
00FE
00FE
00FE
00FF
00FF
0FFF
FFFF
FFFF
FFFF
FFFF
FFFF
FFFE
ENDCHAR
STARTCHAR 005E
ENCODING 94
SWIDTH 480 0
DWIDTH 24 0
BBX 23 20 1 16
BITMAP
007E00
007E00
00FE00
01FF00
01FF00
03FF80
03FF80
07FFC0
0FEFC0
0FEFE0
1FEFE0
1FE7F0
3FC7F0
7FC7F8
7FC7F8
7F87F8
FF83FC
FF83FC
FF03FE
E003FC
ENDCHAR
STARTCHAR 005F
ENCODING 95
SWIDTH 380 0
DWIDTH 19 0
BBX 18 6 1 -6
BITMAP
FFFFC0
FFFFC0
FFFFC0
FFFFC0
FFFFC0
FFFFC0
ENDCHAR
STARTCHAR 0060
ENCODING 96
SWIDTH 220 0
DWIDTH 11 0
BBX 10 8 1 35
BITMAP
FE00
FE00
7F00
3F00
1F80
0F80
07C0
0200
ENDCHAR
STARTCHAR 0061
ENCODING 97
SWIDTH 620 0
DWIDTH 31 0
BBX 30 35 1 -1
BITMAP
0001C000
0007E000
0007E000
0007E000
000FF000
000FF000
001FF000
001FF000
001FF800
003FF800
003FF800
003FF800
007FFC00
007FFC00
00FFFC00
00FFFE00
00FFFE00
01FFFE00
01F3FF00
03F1FF00
03E1FF00
07C1FF80
07C1FF80
0FFFFF80
0FFFFFC0
0FFFFFC0
1FFFFFC0
1FF8FFE0
3FE0FFE0
3FC0FFF0
7FC0FFF0
7F807FF8
FF807FF8
FF807FFC
FE002000
ENDCHAR
STARTCHAR 0062
ENCODING 98
SWIDTH 520 0
DWIDTH 26 0
BBX 24 34 1 0
BITMAP
3FFC00
FFFF00
FFFFC0
FFFFC0
FFFFC0
FFFFE0
FFFFF0
FF9FF0
7F87F0
7F83F0
7F83F0
7F83F0
7FC7E0
7FCFE0
3FFFC0
3FFF80
3FFFE0
3FFFF8
3FFFFC
3FFFFE
3FF1FE
3FE0FF
3FF0FF
1FF0FF
1FF1FF
1FF3FF
1FF7FF
1FFFFE
1FFFFE
1FFFF8
1FFFF8
1FFFF0
0FFF00
01C000
ENDCHAR
STARTCHAR 0063
ENCODING 99
SWIDTH 480 0
DWIDTH 24 0
BBX 23 33 1 0
BITMAP
001F80
00FFF0
03FFF8
0FFFFC
1FFFFE
3FFFFE
3FFFFE
7FFFFE
7FFFFC
FFFFD4
FFF800
FFE000
FFE000
FFC000
FFC000
FFC000
FFC000
FFC000
FFE004
FFF9FC
FFFFFC
FFFFFC
FFFFFC
7FFFFC
7FFFFC
7FFFFC
3FFFFC
3FFFFC
1FFFFC
1FFFF0
0FFFF0
07FFE0
01FF80
ENDCHAR
STARTCHAR 0064
ENCODING 100
SWIDTH 460 0
DWIDTH 23 0
BBX 21 34 1 0
BITMAP
3FC000
FFF000
FFFE00
FFFF00
FFFF80
FFFFC0
FFFFC0
FFFFE0
FFFFF0
FFCFF0
FF83F8
FF81F8
FF81F8
FF81F8
FF81F8
7F83F8
7F83F8
7F87F8
7FC7F0
7FCFF0
7FFFE0
3FFFE0
3FFFC0
3FFFC0
3FFF80
3FFF80
1FFF00
1FFE00
1FFC00
1FF800
0FF000
0FC000
0F0000
0C0000
ENDCHAR
STARTCHAR 0065
ENCODING 101
SWIDTH 480 0
DWIDTH 24 0
BBX 23 35 1 0
BITMAP
07FC00
3FFFC0
FFFFC0
FFFFC0
FFFF80
7FFF80
7FFF80
7FFF80
7FFF80
7FFF80
3FFF00
3FC000
3FC000
3FE000
3FE380
1FFF80
1FFF00
1FFF00
1FFF80
1FFE80
1FF000
0FF000
0FFFF8
0FFFF8
0FFFFC
0FFFFC
0FFFFC
0FFFFC
0FFFFE
0FFFFE
0FFFFE
07FFFC
07FFC0
07FC00
038000
ENDCHAR
STARTCHAR 0066
ENCODING 102
SWIDTH 500 0
DWIDTH 25 0
BBX 23 35 1 0
BITMAP
003FFC
1FFFFC
FFFFFE
FFFFFE
FFFFFE
FFFFFE
FFFFFE
FFFF8E
FFE000
FF8000
FF8000
FF8000
FF8000
FFBE00
FFFE00
FFFE00
FFFC00
FFFC00
FFFC00
FFFC00
FF8400
FF8000
FF8000
FF8000
FF8000
FF8000
FF8000
FF8000
FF8000
FF8000
FF8000
7FC000
7FC000
7FC000
7E0000
ENDCHAR
STARTCHAR 0067
ENCODING 103
SWIDTH 500 0
DWIDTH 25 0
BBX 23 33 1 0
BITMAP
007FC0
00FFF0
01FFF8
03FFFC
07FFFC
07FFFE
0FFFFC
1FF9F8
1FE000
1FC000
3F8000
3F8000
3F0000
3F0000
7F00FE
7F07FE
7F0FFE
7F07FE
FF07FE
FF07FE
FF07FE
FF07FE
FF87FE
FFFFFE
FFFFFE
FFFFFE
FFFFFE
FFFFFC
7FFFF8
7FFFE0
3FFF80
1FFE00
07F800
ENDCHAR
STARTCHAR 0068
ENCODING 104
SWIDTH 560 0
DWIDTH 28 0
BBX 26 33 1 1
BITMAP
00F80000
0FFC1FC0
1FF83FC0
1FF83FC0
1FFC7FC0
1FF83FC0
1FF83FC0
1FF87FC0
1FF87FC0
1FF87FC0
1FF87FC0
1FF87FC0
1FF8FFC0
3FFFFFC0
3FFFFF80
3FFFFF80
3FFFFF80
3FFFFF80
3FFFFF80
3FFFFFC0
3FFFFFC0
3FFFFFC0
3FF7FFC0
7FF0FFC0
7FF0FFC0
7FF0FF80
7FF0FF80
7FF0FF80
7FF1FF80
7FF1FF80
7FF0FF80
FFF0FF80
FFF1F000
ENDCHAR
STARTCHAR 0069
ENCODING 105
SWIDTH 320 0
DWIDTH 16 0
BBX 15 34 1 0
BITMAP
07F0
0FFE
1FFE
0FFC
0FFC
0FFC
1FFC
1FFC
1FFC
1FF8
1FF8
1FF8
1FF8
1FF8
3FF8
3FF8
3FF8
3FF8
3FF8
3FF8
3FF8
3FF8
3FF8
3FF8
3FF8
3FF8
3FF8
3FF8
3FF0
7FF0
7FF0
7FF0
FFE0
F800
ENDCHAR
STARTCHAR 006A
ENCODING 106
SWIDTH 460 0
DWIDTH 23 0
BBX 21 34 1 0
BITMAP
003C70
003FF0
007FF0
007FF8
007FF8
007FF8
007FF8
00FFF8
00FFF8
00FFF8
00FFF8
00FFF8
00FFF8
00FFF8
00FFF8
00FFF8
00FFF8
007FF8
007FF8
007FF8
003FF8
003FF8
003FF8
FE1FF8
FF1FF0
FFBFF0
FFBFF0
FFFFE0
FFFFE0
7FFFC0
3FFF80
1FFF00
0FFE00
01FC00
ENDCHAR
STARTCHAR 006B
ENCODING 107
SWIDTH 540 0
DWIDTH 27 0
BBX 26 35 1 0
BITMAP
00000800
FFF81C00
FFF83C00
7FF87F00
7FF8FFC0
7FF8FF80
FFF9FF00
FFF9FF00
FFFBFE00
FFFBFC00
FFFFF800
FFFFF800
FFFFF000
FFFFF000
FFFFE000
FFFFE000
FFFFC000
FFFF8000
FFFF0000
FFFF8000
FFFFC000
FFFFE000
FFFFF000
FFFFF800
FFFFF800
FFFFFC00
FFFBFE00
FFF9FF00
FFF8FF00
FFF0FF80
FFF87F80
FFF87FC0
FFF83FC0
FFF83C00
00E03800
ENDCHAR
STARTCHAR 006C
ENCODING 108
SWIDTH 500 0
DWIDTH 25 0
BBX 24 35 1 -1
BITMAP
00FF80
07FF80
0FFF80
0FFF80
0FFF80
0FFF80
0FFF00
0FFF00
1FFF00
1FFF00
1FFF00
1FFF00
1FFE00
1FFE00
1FFE00
1FFE00
1FFE00
3FFE00
3FFC00
3FFC00
3FFC00
3FFC00
3FFC00
7FFC00
7FFFFE
7FFFFE
7FFFFE
7FFFFE
7FFFFE
7FFFFE
7FFFFE
7FFFFF
7FFFF0
7FE000
E00000
ENDCHAR
STARTCHAR 006D
ENCODING 109
SWIDTH 640 0
DWIDTH 32 0
BBX 31 34 1 0
BITMAP
0E0000C0
0F0001E0
0F0003E0
0F8007E0
0FC007E0
0FC007E0
0FE00FE0
0FF00FE0
1FF01FF0
1FF83FF0
1FF83FF0
1FFC7FF0
1FFE7FF0
1FFEFFF8
1FFFFFF0
3FFFFFF8
3FFFFFF8
3FFFFFF8
3FFFFFF8
3FFBFFF8
3FF9DFF8
3FF1DFF8
7FF01FF8
7FE01FF8
7FE01FFC
7FC03FFC
7FC03FFC
7FC03FFC
FFC03FFC
FF803FFC
FF803FFE
FF803FFE
FF003FF4
FF000000
ENDCHAR
STARTCHAR 006E
ENCODING 110
SWIDTH 560 0
DWIDTH 28 0
BBX 27 33 1 0
BITMAP
0FF01F80
1FF87FC0
1FF87FE0
1FF87FC0
1FF87FC0
3FF87FC0
3FF87FC0
3FF87FC0
3FFC7FC0
3FFC7FC0
3FFC7FC0
3FFE7F80
7FFE7F80
7FFEFF80
7FFEFF80
7FFFFF80
7FFFFF80
7FFFFF80
7FFFFF80
7FFFFF80
7FEFFF80
7FEFFF80
7FCFFF80
7FC7FF80
7FC7FF80
FFC7FF00
FFC3FF00
FFC3FF00
FFC3FF00
FFC3FF00
FFC3FF00
FF83FE00
F0000000
ENDCHAR
STARTCHAR 006F
ENCODING 111
SWIDTH 520 0
DWIDTH 26 0
BBX 25 35 1 0
BITMAP
01E00000
01F80000
03FE0000
07FF0000
0FFFC000
0FFFE000
1FFFF000
1FFFF800
1FFFF800
3FFFFC00
3FFFFE00
7FFFFE00
7FFFFE00
7FE3FF00
FFC1FF00
FF81FF00
FF81FF80
FF81FF80
FF81FF80
FF81FF80
FFC1FF80
FFE3FF80
FFFFFF80
7FFFFF80
7FFFFF00
7FFFFF00
7FFFFF00
3FFFFF00
3FFFFE00
1FFFFE00
1FFFFE00
0FFFFC00
07FFF800
01FFF000
007FC000
ENDCHAR
STARTCHAR 0070
ENCODING 112
SWIDTH 480 0
DWIDTH 24 0
BBX 23 34 1 0
BITMAP
07FC00
3FFF80
3FFFE0
3FFFF0
3FFFF0
3FFFF8
3FFFF8
7FCFFC
7FC1FC
7FC0FC
7FC0FE
7FE0FE
7FE0FE
7FE1FE
7FE3FE
7FFFFE
7FFFFE
7FFFFC
7FFFF8
7FFFE0
FFFFC0
FFF000
FFF000
FFF000
FFF000
FFF000
FFF000
FFF000
FFF000
FFF000
FFF800
FFF800
FFF800
FFF800
ENDCHAR
STARTCHAR 0071
ENCODING 113
SWIDTH 620 0
DWIDTH 31 0
BBX 29 37 1 -2
BITMAP
001C0000
03FF0000
07FF8000
0FFFC000
0FFFE000
1FFFF000
3FFFF800
3FFFFC00
3FFFFE00
7FFFFE00
7FC3FE00
7F81FF00
7F81FF00
7F80FF00
FF80FF00
FF807F80
FF807F80
FF807F80
FF807F80
FFC07F80
FFF1FF00
FFFFFF00
FFFFFF00
FFFFFF00
FFFFFF00
7FFFFE00
7FFFFE00
7FFFFE00
3FFFFF00
1FFFFF80
0FFFFFC0
07FFFFE0
03FFFFF0
00FFFFF0
00007FF8
00007FF8
00003800
ENDCHAR
STARTCHAR 0072
ENCODING 114
SWIDTH 580 0
DWIDTH 29 0
BBX 28 35 1 -1
BITMAP
01FE0000
3FFF8000
FFFFE000
FFFFF800
FFFFFC00
FFF3FC00
FFE07E00
FFE07E00
FFE03E00
FFF03E00
FFF03E00
FFF07E00
FFF0FE00
7FF9FE00
7FFFFE00
7FFFFC00
7FFFF800
7FFFE000
7FFFE000
7FFFF000
7FFFF000
7FFFF800
7FFBFC00
7FFBFC00
7FF9FE00
7FF8FE00
7FF8FF00
7FFC7F80
3FFC7F80
3FFC3FC0
3FFC3FC0
3FFC3FE0
3FFC1FF0
1FFC1F80
0FE00000
ENDCHAR
STARTCHAR 0073
ENCODING 115
SWIDTH 500 0
DWIDTH 25 0
BBX 23 35 1 -1
BITMAP
000400
01FFFE
07FFFE
0FFFFE
0FFFFC
1FFFFC
1FFFF8
1FFFF8
3FFFF8
3FFFF0
3FFFF0
7FFFE0
7FFFE0
7FC1C0
3FC060
3FF000
3FFC00
1FFF00
0FFFE0
0FFFF0
01FFF8
003FF8
000FFC
0003FC
0007FC
700FFC
FDFFFC
FFFFFC
FFFFFC
FFFFFC
FFFFF8
7FFFF8
3FFFE0
1FFF80
07FE00
ENDCHAR
STARTCHAR 0074
ENCODING 116
SWIDTH 560 0
DWIDTH 28 0
BBX 27 34 1 0
BITMAP
003E0E00
FFFFFF80
FFFFFFC0
FFFFFFC0
FFFFFFE0
FFFFFFE0
FFFFFFE0
FFFFFFE0
FFFFFFE0
FFFFFF40
FFBFF000
F83FE000
003FC000
003FC000
003FC000
003FC000
003FC000
003F8000
003F8000
003FC000
003FC000
003FC000
003F8000
003F8000
003F8000
003F8000
003F8000
003F8000
003F8000
003F8000
003F8000
003F8000
003F8000
003F8000
ENDCHAR
STARTCHAR 0075
ENCODING 117
SWIDTH 540 0
DWIDTH 27 0
BBX 26 33 1 1
BITMAP
1F803F00
1FE07F80
1FC07FC0
3FC03F80
3FC03F80
3FC03F80
3FC03F80
7FC03F80
7F803F80
7F807F80
7F807F80
7F807F80
FF807F80
FF807F80
FF807FC0
FF807FC0
FFC0FFC0
FFC0FFC0
FFE0FF80
FFFFFF80
FFFFFF80
FFFFFF00
FFFFFF00
7FFFFF00
7FFFFE00
7FFFFE00
3FFFFC00
3FFFFC00
1FFFF800
1FFFF000
0FFFE000
03FFC000
00FF8000
ENDCHAR
STARTCHAR 0076
ENCODING 118
SWIDTH 580 0
DWIDTH 29 0
BBX 28 32 1 1
BITMAP
60000FF0
FC007FF0
FFF03FF0
7FF83FE0
3FF83FF0
3FF87FF0
3FF87FE0
1FFC7FE0
1FFC7FE0
1FFC7FE0
0FFC7FC0
0FFE7FC0
07FE7FC0
07FE7FC0
03FE7F80
03FEFF80
01FFFF80
01FFFF80
00FFFF00
00FFFF00
007FFF00
003FFF00
003FFF00
001FFE00
000FFE00
000FFE00
0007FE00
0003FE00
0003FC00
0001FC00
0000FC00
0000F000
ENDCHAR
STARTCHAR 0077
ENCODING 119
SWIDTH 720 0
DWIDTH 36 0
BBX 35 35 1 0
BITMAP
0000001000
70000038C0
FF80003FE0
FF80E03FC0
FFC0F07FC0
FFC0F07F80
FFC0F07F80
FFE0F8FF80
FFE0F8FF80
7FF0F8FF00
7FF1F9FF00
7FF1FDFF00
3FF9FDFF00
3FF9FFFF00
1FFFFFFF00
1FFFFFFF00
1FFFFFFE00
0FFFFFFE00
0FFFFFFE00
07FFFFFE00
07FFFFFE00
03FFFFFC00
03FFDFFC00
01FFCFFC00
01FFCFFC00
00FF8FFC00
00FF87FC00
007F07FC00
007F07F800
003F03F800
003F03F800
001E03F800
001E01F000
000E000000
0004000000
ENDCHAR
STARTCHAR 0078
ENCODING 120
SWIDTH 560 0
DWIDTH 28 0
BBX 27 33 1 1
BITMAP
00001FC0
3F801FE0
7F803FE0
FF803FE0
FFC07FC0
FFE0FFC0
FFE0FF80
FFF0FF80
7FF1FF00
7FF9FF00
3FF9FF00
1FFBFE00
0FFFFE00
07FFFE00
07FFFC00
03FFF800
01FFF800
01FFF800
00FFF000
00FFF000
01FFF800
03FFF800
03FFF800
07FFFC00
07FFFC00
0FFBFC00
0FF9FE00
1FF9FE00
1FF0FF00
3FF07F00
3FF03F00
3FF03000
3FE00000
ENDCHAR
STARTCHAR 0079
ENCODING 121
SWIDTH 600 0
DWIDTH 30 0
BBX 29 34 1 0
BITMAP
000007F8
07000FF0
3F000FF0
FF801FF0
FFC01FE0
FFC01FE0
7FE03FC0
7FE03FC0
3FF07F80
1FF0FF80
1FF0FF00
1FF9FF00
0FF9FE00
0FFFFE00
07FFFC00
07FFFC00
03FFF800
03FFF800
01FFF000
00FFF000
00FFF000
007FE000
007FC000
003FC000
003FC000
001FC000
001FC000
001FC000
001FE000
001FE000
001FE000
001FE000
001FE000
001F8000
ENDCHAR
STARTCHAR 007A
ENCODING 122
SWIDTH 600 0
DWIDTH 30 0
BBX 28 34 1 0
BITMAP
00FFFF00
0FFFFF00
3FFFFE00
7FFFFC00
7FFFFC00
FFFFF800
FFFFF000
FFFFF000
FF0FE000
001FE000
001FE000
001FC000
003FC000
003F8000
003F8000
007F8000
007F0000
00FF0000
00FF0000
00FF0000
01FF0000
01FE0000
01FE0000
03FC0000
03FC0C30
03FFFFF0
07FFFFF0
07FFFFF0
07FFFFF0
07FFFFE0
07FFFFC0
007FFF80
000FFF00
0000F000
ENDCHAR
STARTCHAR 007B
ENCODING 123
SWIDTH 340 0
DWIDTH 17 0
BBX 16 48 1 -6
BITMAP
0018
003C
007C
007E
00FE
01FF
01FE
03FC
03F8
03F0
03F0
03F0
07E0
07E0
07E0
0FE0
0FC0
0FC0
0FC0
0FC0
7F80
FF80
FF80
FF80
FFC0
FFC0
7FC0
0FE0
0FE0
07E0
07E0
07E0
07E0
07E0
07E0
07E0
07E0
07F0
07F0
07F0
07F8
03FE
03FE
01FE
00FE
007E
003C
000C
ENDCHAR
STARTCHAR 007C
ENCODING 124
SWIDTH 180 0
DWIDTH 9 0
BBX 8 50 1 -7
BITMAP
FE
FE
FE
FE
FE
FE
FE
FE
FE
FE
FE
FE
FE
FF
FF
FF
FF
FF
FF
FE
FE
FE
FE
FE
FE
FF
FF
FF
FF
FF
FE
FE
FE
FE
FE
FE
FE
FE
7E
FE
FE
FE
FE
FE
FE
FE
FE
FE
FE
78
ENDCHAR
STARTCHAR 007D
ENCODING 125
SWIDTH 340 0
DWIDTH 17 0
BBX 16 48 1 -6
BITMAP
3800
7C00
7E00
7F00
7F80
7FC0
7FC0
1FC0
0FE0
0FC0
0FE0
0FE0
0FE0
0FE0
0FE0
0FE0
0FE0
07E0
07E0
07E0
07F0
07FE
03FF
03FF
01FF
01FF
03FE
03FC
03F0
03F0
07F0
07E0
07E0
07E0
07E0
0FC0
0FC0
0FC0
1FC0
1FC0
7F80
FF80
FF00
FF00
7E00
7C00
3C00
1000
ENDCHAR
STARTCHAR 007E
ENCODING 126
SWIDTH 480 0
DWIDTH 24 0
BBX 22 11 1 12
BITMAP
1F81FC
3FC3FC
7FE3FC
FFFFFC
FFFFFC
FFFFFC
FFFFFC
FFFFF8
FCFFF0
FC7FE0
FC1FC0
ENDCHAR
STARTCHAR 00A0
ENCODING 160
SWIDTH 300 0
DWIDTH 15 0
BBX 0 0 0 0
BITMAP
ENDCHAR
STARTCHAR 00A1
ENCODING 161
SWIDTH 280 0
DWIDTH 14 0
BBX 13 38 1 -10
BITMAP
0780
1FE0
1FE0
3FE0
3FE0
3FE0
3FE0
1FC0
0FC0
0000
0000
0000
0E00
3F80
3FC0
3FC0
3FC0
3FC0
3FC0
3FC0
3FC0
7FC0
7FC0
7FE0
7FE0
7FE0
7FE0
7FE0
FFE0
FFE0
FFF0
FFF0
FFF0
FFF0
FFF8
FFF8
FFF8
03F0
ENDCHAR
STARTCHAR 00A2
ENCODING 162
SWIDTH 500 0
DWIDTH 25 0
BBX 23 43 1 -4
BITMAP
0003F8
0003F8
0003F8
0003F8
0007F0
01FFF0
03FFF0
07FFFC
0FFFFC
1FFFFE
1FFFFE
3FFFFE
3FFFFE
7FFFFE
7FFFFE
FFFFFC
FFDFFC
FF9FCC
FF3F80
FF3F80
FF3F80
FE3F80
FE3F00
FF7F00
FF7F00
FF7F00
FFFF00
FFFE04
7FFFFE
7FFFFE
7FFFFE
3FFFFE
3FFFFE
1FFFFE
0FFFFC
03FFF8
01FFF0
01FF80
03F800
03F800
03F800
01F000
003000
ENDCHAR
STARTCHAR 00A3
ENCODING 163
SWIDTH 540 0
DWIDTH 27 0
BBX 26 34 1 0
BITMAP
000FC000
001FF800
003FFC00
007FFE00
00FFFF00
01FFFF80
01FFFF80
03FEFF80
03FE7F80
07FE7F80
07FE3F80
07FC0000
07FC0000
07FC0000
FFFFF800
FFFFFC00
FFFFFC00
FFFFFC00
FFFFFC00
FFFFFC00
07FC0000
07FC0000
07FC0000
07FC0000
07FC0000
07FC0000
FFFFFFC0
FFFFFFC0
FFFFFF80
FFFFFF80
FFFFFF80
FFFFFF80
3FFFFF80
03FFF800
ENDCHAR
STARTCHAR 00A4
ENCODING 164
SWIDTH 440 0
DWIDTH 22 0
BBX 20 21 1 7
BITMAP
080100
1E0380
3EE7C0
7FFFE0
FFFFF0
FFFFF0
7FFFE0
3F1FC0
1F0F80
1E0F80
3E0F80
3E0F80
1F0F80
1F0FC0
7FFFE0
FFFFF0
FFFFF0
7FFFE0
3E77C0
1C0380
080100
ENDCHAR
STARTCHAR 00A5
ENCODING 165
SWIDTH 600 0
DWIDTH 30 0
BBX 29 34 1 0
BITMAP
000007F8
07000FF0
3F000FF0
FF801FF0
FFC01FE0
FFC01FE0
7FE03FC0
7FE03FC0
3FF07F80
1FF0FF80
1FF0FF00
0FF9FF00
0FF9FE00
0FFFFE00
07FFFF00
1FFFFF80
1FFFFF80
1FFFFF80
3FFFFF80
3FFFFF80
3FFFFF00
0F7FE000
007FC000
1FFFFF80
1FFFFF80
1FFFFF80
1FFFFF80
1FFFFF80
1FFFFF80
0FFFE000
001FE000
001FE000
001FE000
001F8000
ENDCHAR
STARTCHAR 00A6
ENCODING 166
SWIDTH 180 0
DWIDTH 9 0
BBX 8 51 1 -8
BITMAP
78
FE
FE
FE
FE
FF
FF
FE
FE
FE
FE
FF
FF
FF
FF
FF
FF
FF
FF
7E
FE
FE
FE
00
00
00
00
00
00
FE
FE
FE
FE
FE
FE
FE
FE
FE
FE
FE
FE
FE
FE
FE
FE
FE
FE
FF
FE
FE
0E
ENDCHAR
STARTCHAR 00A7
ENCODING 167
SWIDTH 500 0
DWIDTH 25 0
BBX 23 43 1 -4
BITMAP
007E00
01FF80
03FFC0
0FFFE0
1FFFF0
1FFFF0
1FFFF0
1FFFF0
1FFDF0
1FF060
1FE000
1FF000
1FF800
3FFC00
3FFFC0
3FFFF0
7FFFF8
7FFFFC
FFFFFC
FFE7FE
FF01FE
FF01FE
FF81FE
FFEFFE
7FFFFE
3FFFFC
1FFFFC
0FFFFC
01FFF8
007FF8
001FF0
000FF0
000FF8
0C1FF8
1FFFF8
1FFFF0
1FFFF0
1FFFF0
1FFFF0
0FFFE0
07FF80
01FF00
007C00
ENDCHAR
STARTCHAR 00A8
ENCODING 168
SWIDTH 300 0
DWIDTH 15 0
BBX 14 6 1 35
BITMAP
0020
7878
F8FC
F8FC
F8F8
7030
ENDCHAR
STARTCHAR 00A9
ENCODING 169
SWIDTH 660 0
DWIDTH 33 0
BBX 32 32 1 2
BITMAP
0000C000
003FFE00
01FFFF80
07FFFFE0
0FFFFFF0
1FFF1FF8
1FF007F8
3FC003FC
7F0081FC
7E07F0FC
7C0FF87E
FC1FF87E
F83FF83E
F83FF83F
F83F183F
F83E003F
F83E003F
F83E003F
F83E003E
F83E003E
FC3FF83E
FC3FF83E
7E1FF83C
7E0FF87C
7F03E078
3F8001F8
3FC007F0
1FFFFFE0
0FFFFFC0
07FFFF00
03FFFE00
007FF800
ENDCHAR
STARTCHAR 00AA
ENCODING 170
SWIDTH 320 0
DWIDTH 16 0
BBX 15 18 1 16
BITMAP
0180
03C0
03C0
03C0
07C0
07E0
0FE0
0FE0
0FE0
1DF0
19F0
39F0
3FF8
7FF8
78FC
F8FC
F8FE
C000
ENDCHAR
STARTCHAR 00AB
ENCODING 171
SWIDTH 460 0
DWIDTH 23 0
BBX 22 22 1 1
BITMAP
006004
00E00C
03E03C
07E07C
0FE0FC
0FE1FC
1FE3FC
3FEFFC
7FDFFC
FF1FE0
FC1F00
F81F00
FE1FC0
FFCFF8
FFE7FC
3FE3FC
1FE3FC
07E1FC
03E0FC
01E07C
00E03C
00600C
ENDCHAR
STARTCHAR 00AC
ENCODING 172
SWIDTH 480 0
DWIDTH 24 0
BBX 22 13 1 9
BITMAP
040600
FFFFFC
FFFFFC
FFFFFC
FFFFFC
FFFFFC
FFFFFC
FFFFFC
0001FC
0001FC
0001FC
0001FC
0001FC
ENDCHAR
STARTCHAR 00AD
ENCODING 173
SWIDTH 380 0
DWIDTH 19 0
BBX 18 8 1 14
BITMAP
083000
FFFFC0
FFFFC0
FFFFC0
FFFFC0
FFFFC0
FFFFC0
FFFFC0
ENDCHAR
STARTCHAR 00AE
ENCODING 174
SWIDTH 440 0
DWIDTH 22 0
BBX 21 21 1 14
BITMAP
07FE00
1FFF00
3FFFC0
7E03C0
78E0E0
FBF870
F3CC70
F3CC70
E3DC78
E1F878
E1F878
E1F878
E1FC78
F1EE70
79EEF0
7C01F0
3E03E0
3FFFE0
1FFFC0
07FF00
007000
ENDCHAR
STARTCHAR 00AF
ENCODING 175
SWIDTH 320 0
DWIDTH 16 0
BBX 15 4 1 35
BITMAP
FFFC
FFFE
FFFE
FFFE
ENDCHAR
STARTCHAR 00B0
ENCODING 176
SWIDTH 320 0
DWIDTH 16 0
BBX 15 17 1 19
BITMAP
0380
1FE0
3FF0
7FF8
7FFC
F87C
F87C
F83E
F83E
F83E
F87C
FC7C
7FF8
3FF8
3FF0
1FE0
0780
ENDCHAR
STARTCHAR 00B1
ENCODING 177
SWIDTH 460 0
DWIDTH 23 0
BBX 22 29 1 0
BITMAP
01FC00
01FC00
01FC00
01FC00
01FC00
01FC00
01FC00
01FC00
FFFFFC
FFFFFC
FFFFFC
FFFFFC
FFFFFC
FFFFFC
FBFFFC
01FC00
01FC00
01FC00
01FE00
01FE00
01FC00
00FC00
000000
63FFF0
FFFFFC
FFFFFC
FFFFFC
FFFFFC
FFFFFC
ENDCHAR
STARTCHAR 00B2
ENCODING 178
SWIDTH 260 0
DWIDTH 13 0
BBX 12 17 1 18
BITMAP
1800
3F00
7F80
FF80
F780
6380
0380
0780
0700
0F00
0E30
1FF0
1FE0
3FE0
3FE0
FFE0
7F80
ENDCHAR
STARTCHAR 00B3
ENCODING 179
SWIDTH 240 0
DWIDTH 12 0
BBX 11 17 1 17
BITMAP
3E00
FE00
7E00
0E00
1C00
3C00
3F80
7FC0
7FC0
01C0
00E0
00E0
01E0
C3C0
FFC0
7F80
1F00
ENDCHAR
STARTCHAR 00B4
ENCODING 180
SWIDTH 220 0
DWIDTH 11 0
BBX 10 8 1 35
BITMAP
1FC0
1FC0
3F80
7F00
7E00
FC00
F800
1000
ENDCHAR
STARTCHAR 00B5
ENCODING 181
SWIDTH 540 0
DWIDTH 27 0
BBX 26 35 1 -8
BITMAP
00001E00
FF01FE00
FF01FE00
FF00FF00
FF00FF00
FF00FF80
FF00FF80
FF00FFC0
FF00FFC0
FF00FFC0
FF80FF80
FF81FF80
FF81FF80
FF83FF80
FFC7FF80
FFFFFF80
FFFFFF80
FFFFFF00
FFFFFF00
FFFFFF00
FFFFFE00
FFFFFE00
FFFFFC00
FFFFF800
FFFFF000
FEFF8000
FE000000
FE000000
FE000000
FE000000
FF000000
FF000000
FE000000
FE000000
0E000000
ENDCHAR
STARTCHAR 00B6
ENCODING 182
SWIDTH 380 0
DWIDTH 19 0
BBX 18 40 1 -4
BITMAP
006000
07FFC0
1FFFC0
3FFFC0
7FFFC0
FFFFC0
FFFFC0
FFFFC0
FFC7C0
FFC7C0
FFC7C0
FFC7C0
FFC7C0
FFC7C0
FFC7C0
FFC7C0
FFC7C0
FFC7C0
7FC7C0
3FE7C0
1FE7C0
07E7C0
07E7C0
07E7C0
07E7C0
07E7C0
07E7C0
07E7C0
07E7C0
07E7C0
03E7C0
07E7C0
07E7C0
07E7C0
07E7C0
07E7C0
07E7C0
07E7C0
07E7C0
034700
ENDCHAR
STARTCHAR 00B7
ENCODING 183
SWIDTH 200 0
DWIDTH 10 0
BBX 9 9 1 13
BITMAP
3E00
7F00
FF00
FF80
FF80
FF80
FF00
7F00
1C00
ENDCHAR
STARTCHAR 00B8
ENCODING 184
SWIDTH 300 0
DWIDTH 15 0
BBX 13 10 1 -8
BITMAP
0F80
0F80
0FC0
0FE0
07F0
01F8
E0F8
FFF8
FFF8
7FF0
ENDCHAR
STARTCHAR 00B9
ENCODING 185
SWIDTH 220 0
DWIDTH 11 0
BBX 10 16 1 18
BITMAP
0F00
1F00
7F00
FF00
7F00
2F00
0F80
0F80
1F80
1F80
1F80
1F80
1F80
1F80
1F80
1FC0
ENDCHAR
STARTCHAR 00BA
ENCODING 186
SWIDTH 280 0
DWIDTH 14 0
BBX 12 18 1 17
BITMAP
1C00
1F00
3F80
7FC0
7FE0
7FE0
FFF0
F8F0
F0F0
F0F0
F9F0
FFF0
FFF0
7FF0
7FF0
3FE0
1FC0
0700
ENDCHAR
STARTCHAR 00BB
ENCODING 187
SWIDTH 460 0
DWIDTH 23 0
BBX 22 23 1 0
BITMAP
C01000
E01800
F01C00
F81F00
FC1F80
FE1FC0
FF1FE0
FF9FF8
7FDFFC
1FC3FC
07C0FC
03E07C
1FE1FC
FFC7F8
FF9FF8
FF1FF0
FE1FE0
FC1FC0
F01F80
E01F00
C01E00
801C00
001000
ENDCHAR
STARTCHAR 00BC
ENCODING 188
SWIDTH 560 0
DWIDTH 28 0
BBX 27 36 1 -1
BITMAP
00000800
0F001F00
1F001F00
7F003F00
FF003E00
7F007E00
2F00FC00
0F80FC00
0F81F800
1F81F800
1F83F000
1F83F000
1F87E000
1F87C000
1F8FC000
1F9F8000
1FDF8000
003F0000
003E0400
007E3C00
00FC3C00
00FC3C00
01F83800
01F83800
03F07800
07E07FC0
07E07FC0
0FC07FE0
0F80FF00
1F800700
3F000700
3E000F00
7E000F00
3C000F00
08001F80
00001000
ENDCHAR
STARTCHAR 00BD
ENCODING 189
SWIDTH 560 0
DWIDTH 28 0
BBX 26 35 1 0
BITMAP
00000800
0F001F00
1F001F00
7F003F00
FF003E00
7F007E00
2F00FC00
0F80FC00
0F81F800
1F81F800
1F83F000
1F83F000
1F87E000
1F87C000
1F8FC000
1F9F8000
1FDF8000
003F2000
003E7C00
007EFF00
00FDFF00
00FDFF00
01F8CF00
01F80F00
03F00E00
07E00E00
07E01E00
0FC01C40
0F803FC0
1F803FC0
3F007FC0
3E00FFC0
7E01FFC0
3C00FF00
08000000
ENDCHAR
STARTCHAR 00BE
ENCODING 190
SWIDTH 560 0
DWIDTH 28 0
BBX 27 36 1 -1
BITMAP
00000800
3E001F00
FE001F00
7E003F00
0E003E00
1C007E00
3C00FC00
3F80FC00
7FC1F800
7FC1F800
01C3F000
00E3F000
00E7E000
01E7C000
C3CFC000
FFDF8000
7F9F8000
1F3F0000
003E0400
007E3C00
00FC3C00
00FC3C00
01F83800
01F83800
03F07800
07E07FC0
07E07FC0
0FC07FE0
0F80FF00
1F800700
3F000700
3E000F00
7E000F00
3C000F00
08001F80
00001000
ENDCHAR
STARTCHAR 00BF
ENCODING 191
SWIDTH 460 0
DWIDTH 23 0
BBX 21 37 1 -10
BITMAP
000800
007E00
00FF00
00FF00
00FF80
00FF80
00FF00
007E00
003800
000000
000000
000000
007F00
00FF00
00FF00
00FF00
01FF00
07FF00
0FFF00
3FFE00
7FFE00
7FF000
FFC000
FF0000
FF0000
FF0000
FF0060
FF00F0
FF83F8
FFFFF8
FFFFF8
FFFFF8
FFFFF0
7FFFF0
3FFFE0
1FFFC0
003F00
ENDCHAR
STARTCHAR 00C0
ENCODING 192
SWIDTH 620 0
DWIDTH 31 0
BBX 30 44 1 -1
BITMAP
00FC0000
00FE0000
007E0000
003F0000
001F8000
001F8000
000F8000
00040000
00000000
0001C000
0007E000
0007E000
0007E000
000FF000
000FF000
001FF000
001FF000
001FF800
003FF800
003FF800
003FF800
007FFC00
007FFC00
00FFFC00
00FFFE00
00FFFE00
01FFFE00
01F3FF00
03F1FF00
03E1FF00
07C1FF80
07C1FF80
0FFFFF80
0FFFFFC0
0FFFFFC0
1FFFFFC0
1FF8FFE0
3FE0FFE0
3FC0FFF0
7FC0FFF0
7F807FF8
FF807FF8
FF807FFC
FE002000
ENDCHAR
STARTCHAR 00C1
ENCODING 193
SWIDTH 620 0
DWIDTH 31 0
BBX 30 44 1 -1
BITMAP
00007F00
0000FF00
0000FE00
0001FC00
0001F800
0003F000
0003E000
00004000
00000000
0001C000
0007E000
0007E000
0007E000
000FF000
000FF000
001FF000
001FF000
001FF800
003FF800
003FF800
003FF800
007FFC00
007FFC00
00FFFC00
00FFFE00
00FFFE00
01FFFE00
01F3FF00
03F1FF00
03E1FF00
07C1FF80
07C1FF80
0FFFFF80
0FFFFFC0
0FFFFFC0
1FFFFFC0
1FF8FFE0
3FE0FFE0
3FC0FFF0
7FC0FFF0
7F807FF8
FF807FF8
FF807FFC
FE002000
ENDCHAR
STARTCHAR 00C2
ENCODING 194
SWIDTH 620 0
DWIDTH 31 0
BBX 30 44 1 -1
BITMAP
0003C000
000FE000
001FF000
003FF800
007FFE00
00FE7E00
00FC3E00
00001800
00000000
0001C000
0007E000
0007E000
0007E000
000FF000
000FF000
001FF000
001FF000
001FF800
003FF800
003FF800
003FF800
007FFC00
007FFC00
00FFFC00
00FFFE00
00FFFE00
01FFFE00
01F3FF00
03F1FF00
03E1FF00
07C1FF80
07C1FF80
0FFFFF80
0FFFFFC0
0FFFFFC0
1FFFFFC0
1FF8FFE0
3FE0FFE0
3FC0FFF0
7FC0FFF0
7F807FF8
FF807FF8
FF807FFC
FE002000
ENDCHAR
STARTCHAR 00C3
ENCODING 195
SWIDTH 620 0
DWIDTH 31 0
BBX 30 44 1 -1
BITMAP
000C3E00
003F3E00
007FFE00
007FFE00
007FFE00
007FFC00
0079F800
00786000
00000000
0001C000
0007E000
0007E000
0007E000
000FF000
000FF000
001FF000
001FF000
001FF800
003FF800
003FF800
003FF800
007FFC00
007FFC00
00FFFC00
00FFFE00
00FFFE00
01FFFE00
01F3FF00
03F1FF00
03E1FF00
07C1FF80
07C1FF80
0FFFFF80
0FFFFFC0
0FFFFFC0
1FFFFFC0
1FF8FFE0
3FE0FFE0
3FC0FFF0
7FC0FFF0
7F807FF8
FF807FF8
FF807FFC
FE002000
ENDCHAR
STARTCHAR 00C4
ENCODING 196
SWIDTH 620 0
DWIDTH 31 0
BBX 30 42 1 -1
BITMAP
00001800
003C3E00
007C3E00
007C3E00
007C3C00
003C1800
00000000
0001C000
0007E000
0007E000
0007E000
000FF000
000FF000
001FF000
001FF000
001FF800
003FF800
003FF800
003FF800
007FFC00
007FFC00
00FFFC00
00FFFE00
00FFFE00
01FFFE00
01F3FF00
03F1FF00
03E1FF00
07C1FF80
07C1FF80
0FFFFF80
0FFFFFC0
0FFFFFC0
1FFFFFC0
1FF8FFE0
3FE0FFE0
3FC0FFF0
7FC0FFF0
7F807FF8
FF807FF8
FF807FFC
FE002000
ENDCHAR
STARTCHAR 00C5
ENCODING 197
SWIDTH 620 0
DWIDTH 31 0
BBX 30 44 1 -1
BITMAP
000FE000
003FF800
007FFC00
007E7C00
00F87E00
00F83E00
00F83E00
00F83E00
00FC7C00
007FFC00
003FF800
001FF000
0007E000
000FF000
000FF000
001FF000
001FF000
001FF800
003FF800
003FF800
003FF800
007FFC00
007FFC00
00FFFC00
00FFFE00
00FFFE00
01FFFE00
01F3FF00
03F1FF00
03E1FF00
07C1FF80
07C1FF80
0FFFFF80
0FFFFFC0
0FFFFFC0
1FFFFFC0
1FF8FFE0
3FE0FFE0
3FC0FFF0
7FC0FFF0
7F807FF8
FF807FF8
FF807FFC
FE002000
ENDCHAR
STARTCHAR 00C6
ENCODING 198
SWIDTH 720 0
DWIDTH 36 0
BBX 35 36 1 -1
BITMAP
00000E0000
0003FFFC00
0007FFFC00
0007FFFC00
000FFFFC00
000FFFF800
000FFFF800
001FFFF800
001FFFF800
001FFFF800
003FFFF800
003FFE0000
003FFC0000
007FFE0000
007FFE1800
00FFFFF800
00FFFFF800
01FFFFF800
01FFFFF800
01F3FFF800
03E1FF0000
03E1FF0000
07C1FF7F80
07C3FFFF80
0FFFFFFFC0
0FFFFFFFC0
1FFFFFFFC0
1FFFFFFFC0
1FF0FFFFE0
3FC0FFFFE0
3FC0FFFFE0
7FC0FFFFE0
7F807FFE00
FF807FE000
FFC07E0000
F800000000
ENDCHAR
STARTCHAR 00C7
ENCODING 199
SWIDTH 480 0
DWIDTH 24 0
BBX 23 42 1 -8
BITMAP
001F80
00FFF0
03FFF8
0FFFFC
1FFFFE
3FFFFE
3FFFFE
7FFFFE
7FFFFC
FFFFD4
FFF800
FFE000
FFE000
FFC000
FFC000
FFC000
FFC000
FFC000
FFE004
FFF9FC
FFFFFC
FFFFFC
FFFFFC
7FFFFC
7FFFFC
7FFFFC
3FFFFC
3FFFFC
1FFFFC
1FFFF0
0FFFF0
07FFE0
01FF80
00F800
00FC00
00FE00
007F00
001F80
0E0F80
0FFF80
0FFF80
07FF00
ENDCHAR
STARTCHAR 00C8
ENCODING 200
SWIDTH 480 0
DWIDTH 24 0
BBX 23 43 1 1
BITMAP
FE0000
FF0000
7F0000
3F8000
1FC000
0FC000
07C000
000000
07FC00
3FFFC0
FFFFC0
FFFFC0
FFFF80
7FFF80
7FFF80
7FFF80
7FFF80
7FFF80
3FFF00
3FC000
3FC000
3FE000
3FE380
1FFF80
1FFF00
1FFF00
1FFF80
1FFE80
1FF000
0FF000
0FFFF8
0FFFF8
0FFFFC
0FFFFC
0FFFFC
0FFFFC
0FFFFE
0FFFFE
0FFFFE
07FFFC
07FFC0
07FC00
038000
ENDCHAR
STARTCHAR 00C9
ENCODING 201
SWIDTH 480 0
DWIDTH 24 0
BBX 23 44 1 0
BITMAP
00FE00
00FC00
01FC00
01F800
03F000
03E000
03E000
07C000
000000
07FC00
3FFFC0
FFFFC0
FFFFC0
FFFF80
7FFF80
7FFF80
7FFF80
7FFF80
7FFF80
3FFF00
3FC000
3FC000
3FE000
3FE380
1FFF80
1FFF00
1FFF00
1FFF80
1FFE80
1FF000
0FF000
0FFFF8
0FFFF8
0FFFFC
0FFFFC
0FFFFC
0FFFFC
0FFFFE
0FFFFE
0FFFFE
07FFFC
07FFC0
07FC00
038000
ENDCHAR
STARTCHAR 00CA
ENCODING 202
SWIDTH 480 0
DWIDTH 24 0
BBX 23 44 1 0
BITMAP
038000
0FC000
1FF000
3FF800
7FFC00
7EFE00
FC3C00
F81000
000000
07FC00
3FFFC0
FFFFC0
FFFFC0
FFFF80
7FFF80
7FFF80
7FFF80
7FFF80
7FFF80
3FFF00
3FC000
3FC000
3FE000
3FE380
1FFF80
1FFF00
1FFF00
1FFF80
1FFE80
1FF000
0FF000
0FFFF8
0FFFF8
0FFFFC
0FFFFC
0FFFFC
0FFFFC
0FFFFE
0FFFFE
0FFFFE
07FFFC
07FFC0
07FC00
038000
ENDCHAR
STARTCHAR 00CB
ENCODING 203
SWIDTH 480 0
DWIDTH 24 0
BBX 23 42 1 0
BITMAP
002000
007C00
787C00
FC7C00
FC7800
F83800
380000
07FC00
3FFFC0
FFFFC0
FFFFC0
FFFF80
7FFF80
7FFF80
7FFF80
7FFF80
7FFF80
3FFF00
3FC000
3FC000
3FE000
3FE380
1FFF80
1FFF00
1FFF00
1FFF80
1FFE80
1FF000
0FF000
0FFFF8
0FFFF8
0FFFFC
0FFFFC
0FFFFC
0FFFFC
0FFFFE
0FFFFE
0FFFFE
07FFFC
07FFC0
07FC00
038000
ENDCHAR
STARTCHAR 00CC
ENCODING 204
SWIDTH 320 0
DWIDTH 16 0
BBX 15 43 1 0
BITMAP
3F80
1FC0
0FC0
0FE0
07F0
03F0
01F0
0080
0000
07F0
0FFE
1FFE
0FFC
0FFC
0FFC
1FFC
1FFC
1FFC
1FF8
1FF8
1FF8
1FF8
1FF8
3FF8
3FF8
3FF8
3FF8
3FF8
3FF8
3FF8
3FF8
3FF8
3FF8
3FF8
3FF8
3FF8
3FF8
3FF0
7FF0
7FF0
7FF0
FFE0
F800
ENDCHAR
STARTCHAR 00CD
ENCODING 205
SWIDTH 320 0
DWIDTH 16 0
BBX 17 43 1 0
BITMAP
003F80
003F80
007F00
007E00
00FC00
00F800
01F000
003000
000000
07F000
0FFE00
1FFE00
0FFC00
0FFC00
0FFC00
1FFC00
1FFC00
1FFC00
1FF800
1FF800
1FF800
1FF800
1FF800
3FF800
3FF800
3FF800
3FF800
3FF800
3FF800
3FF800
3FF800
3FF800
3FF800
3FF800
3FF800
3FF800
3FF800
3FF000
7FF000
7FF000
7FF000
FFE000
F80000
ENDCHAR
STARTCHAR 00CE
ENCODING 206
SWIDTH 320 0
DWIDTH 16 0
BBX 17 43 1 0
BITMAP
00F000
03F800
07FC00
0FFE00
1FFF00
3F9F80
3F0F80
000400
000000
07F000
0FFE00
1FFE00
0FFC00
0FFC00
0FFC00
1FFC00
1FFC00
1FFC00
1FF800
1FF800
1FF800
1FF800
1FF800
3FF800
3FF800
3FF800
3FF800
3FF800
3FF800
3FF800
3FF800
3FF800
3FF800
3FF800
3FF800
3FF800
3FF800
3FF000
7FF000
7FF000
7FF000
FFE000
F80000
ENDCHAR
STARTCHAR 00CF
ENCODING 207
SWIDTH 320 0
DWIDTH 16 0
BBX 17 41 1 0
BITMAP
000400
0F0F00
1F1F80
1F1F00
1F1F00
0E0600
000000
07F000
0FFE00
1FFE00
0FFC00
0FFC00
0FFC00
1FFC00
1FFC00
1FFC00
1FF800
1FF800
1FF800
1FF800
1FF800
3FF800
3FF800
3FF800
3FF800
3FF800
3FF800
3FF800
3FF800
3FF800
3FF800
3FF800
3FF800
3FF800
3FF800
3FF000
7FF000
7FF000
7FF000
FFE000
F80000
ENDCHAR
STARTCHAR 00D0
ENCODING 208
SWIDTH 480 0
DWIDTH 24 0
BBX 24 34 0 0
BITMAP
0FF000
3FFE00
3FFF80
3FFFC0
3FFFE0
3FFFF0
3FFFF8
3FFFFC
3FFFFC
1FF3FE
1FF0FE
1FFE7E
1FFE7F
FFFE7F
FFFE7F
FFFE7F
FFFEFF
FFFCFE
FFF1FE
2FF3FC
0FFFFC
0FFFF8
0FFFF8
07FFF0
07FFF0
07FFE0
07FFC0
07FFC0
03FF80
03FF00
03FC00
03F800
01E000
010000
ENDCHAR
STARTCHAR 00D1
ENCODING 209
SWIDTH 560 0
DWIDTH 28 0
BBX 27 43 1 0
BITMAP
00183E00
007E3E00
007FFE00
00FFFE00
00FFFC00
00FFF800
00F3F000
00F02000
00000000
00000000
0FF01F80
1FF87FC0
1FF87FE0
1FF87FC0
1FF87FC0
3FF87FC0
3FF87FC0
3FF87FC0
3FFC7FC0
3FFC7FC0
3FFC7FC0
3FFE7F80
7FFE7F80
7FFEFF80
7FFEFF80
7FFFFF80
7FFFFF80
7FFFFF80
7FFFFF80
7FFFFF80
7FEFFF80
7FEFFF80
7FCFFF80
7FC7FF80
7FC7FF80
FFC7FF00
FFC3FF00
FFC3FF00
FFC3FF00
FFC3FF00
FFC3FF00
FF83FE00
F0000000
ENDCHAR
STARTCHAR 00D2
ENCODING 210
SWIDTH 520 0
DWIDTH 26 0
BBX 25 43 1 0
BITMAP
FE000000
FF000000
7F000000
3F800000
1F800000
0FC00000
07C00000
02000000
01E00000
01F80000
03FE0000
07FF0000
0FFFC000
0FFFE000
1FFFF000
1FFFF800
1FFFF800
3FFFFC00
3FFFFE00
7FFFFE00
7FFFFE00
7FE3FF00
FFC1FF00
FF81FF00
FF81FF80
FF81FF80
FF81FF80
FF81FF80
FFC1FF80
FFE3FF80
FFFFFF80
7FFFFF80
7FFFFF00
7FFFFF00
7FFFFF00
3FFFFF00
3FFFFE00
1FFFFE00
1FFFFE00
0FFFFC00
07FFF800
01FFF000
007FC000
ENDCHAR
STARTCHAR 00D3
ENCODING 211
SWIDTH 520 0
DWIDTH 26 0
BBX 25 43 1 0
BITMAP
003F8000
003F8000
007F0000
00FE0000
00FC0000
01F80000
01F00000
00300000
01E00000
01F80000
03FE0000
07FF0000
0FFFC000
0FFFE000
1FFFF000
1FFFF800
1FFFF800
3FFFFC00
3FFFFE00
7FFFFE00
7FFFFE00
7FE3FF00
FFC1FF00
FF81FF00
FF81FF80
FF81FF80
FF81FF80
FF81FF80
FFC1FF80
FFE3FF80
FFFFFF80
7FFFFF80
7FFFFF00
7FFFFF00
7FFFFF00
3FFFFF00
3FFFFE00
1FFFFE00
1FFFFE00
0FFFFC00
07FFF800
01FFF000
007FC000
ENDCHAR
STARTCHAR 00D4
ENCODING 212
SWIDTH 520 0
DWIDTH 26 0
BBX 25 43 1 0
BITMAP
03E00000
07F80000
0FFC0000
1FFE0000
3FFF0000
7E3F0000
3C1F0000
00000000
01E00000
01F80000
03FE0000
07FF0000
0FFFC000
0FFFE000
1FFFF000
1FFFF800
1FFFF800
3FFFFC00
3FFFFE00
7FFFFE00
7FFFFE00
7FE3FF00
FFC1FF00
FF81FF00
FF81FF80
FF81FF80
FF81FF80
FF81FF80
FFC1FF80
FFE3FF80
FFFFFF80
7FFFFF80
7FFFFF00
7FFFFF00
7FFFFF00
3FFFFF00
3FFFFE00
1FFFFE00
1FFFFE00
0FFFFC00
07FFF800
01FFF000
007FC000
ENDCHAR
STARTCHAR 00D5
ENCODING 213
SWIDTH 520 0
DWIDTH 26 0
BBX 25 43 1 1
BITMAP
043E0000
1F3F0000
3FFF0000
7FFF0000
7FFE0000
7FFC0000
7CF80000
7C000000
01E00000
01F80000
03FE0000
07FF0000
0FFFC000
0FFFE000
1FFFF000
1FFFF800
1FFFF800
3FFFFC00
3FFFFE00
7FFFFE00
7FFFFE00
7FE3FF00
FFC1FF00
FF81FF00
FF81FF80
FF81FF80
FF81FF80
FF81FF80
FFC1FF80
FFE3FF80
FFFFFF80
7FFFFF80
7FFFFF00
7FFFFF00
7FFFFF00
3FFFFF00
3FFFFE00
1FFFFE00
1FFFFE00
0FFFFC00
07FFF800
01FFF000
007FC000
ENDCHAR
STARTCHAR 00D6
ENCODING 214
SWIDTH 520 0
DWIDTH 26 0
BBX 25 41 1 0
BITMAP
00080000
1E1E0000
3E3F0000
3E3E0000
3E3E0000
1C0C0000
01E00000
01F80000
03FE0000
07FF0000
0FFFC000
0FFFE000
1FFFF000
1FFFF800
1FFFF800
3FFFFC00
3FFFFE00
7FFFFE00
7FFFFE00
7FE3FF00
FFC1FF00
FF81FF00
FF81FF80
FF81FF80
FF81FF80
FF81FF80
FFC1FF80
FFE3FF80
FFFFFF80
7FFFFF80
7FFFFF00
7FFFFF00
7FFFFF00
3FFFFF00
3FFFFE00
1FFFFE00
1FFFFE00
0FFFFC00
07FFF800
01FFF000
007FC000
ENDCHAR
STARTCHAR 00D7
ENCODING 215
SWIDTH 420 0
DWIDTH 21 0
BBX 20 21 1 7
BITMAP
080100
1C0380
3E07C0
7F0FE0
FF9FF0
FFFFF0
7FFFE0
3FFFC0
1FFF80
0FFF00
07FE00
0FFF00
1FFF00
3FFFC0
7FFFE0
FFFFF0
FF9FE0
7F0FC0
3E0780
1C0300
080000
ENDCHAR
STARTCHAR 00D8
ENCODING 216
SWIDTH 520 0
DWIDTH 26 0
BBX 27 36 0 0
BITMAP
00F01FE0
00FC3FE0
01FF3FC0
03FFFF80
07FFFF80
07FFFF00
0FFFFF00
0FFFFE00
0FFFFC00
1FFFFE00
1FFFFF00
3FFFFF00
3FFFFF00
3FCFFF80
7F9FFF80
7F9FFF80
7F3FBFC0
7F7FBFC0
7F7F3FC0
7FFE7FC0
7FFE7FC0
7FFCFFC0
7FF9FFC0
3FFFFFC0
3FFFFF80
3FFFFF80
3FFFFF80
1FFFFF80
1FFFFF00
1FFFFF00
3FFFFF00
7FFFFE00
7FFFFC00
FEFFF800
BC3FE000
08000000
ENDCHAR
STARTCHAR 00D9
ENCODING 217
SWIDTH 540 0
DWIDTH 27 0
BBX 26 42 1 1
BITMAP
03F80000
03F80000
01FC0000
00FE0000
007E0000
003F0000
001F0000
00180000
00000000
1F803F00
1FE07F80
1FC07FC0
3FC03F80
3FC03F80
3FC03F80
3FC03F80
7FC03F80
7F803F80
7F807F80
7F807F80
7F807F80
FF807F80
FF807F80
FF807FC0
FF807FC0
FFC0FFC0
FFC0FFC0
FFE0FF80
FFFFFF80
FFFFFF80
FFFFFF00
FFFFFF00
7FFFFF00
7FFFFE00
7FFFFE00
3FFFFC00
3FFFFC00
1FFFF800
1FFFF000
0FFFE000
03FFC000
00FF8000
ENDCHAR
STARTCHAR 00DA
ENCODING 218
SWIDTH 540 0
DWIDTH 27 0
BBX 26 42 1 1
BITMAP
0000FC00
0001FC00
0003F800
0003F000
0007E000
0007C000
000FC000
00018000
00000000
1F803F00
1FE07F80
1FC07FC0
3FC03F80
3FC03F80
3FC03F80
3FC03F80
7FC03F80
7F803F80
7F807F80
7F807F80
7F807F80
FF807F80
FF807F80
FF807FC0
FF807FC0
FFC0FFC0
FFC0FFC0
FFE0FF80
FFFFFF80
FFFFFF80
FFFFFF00
FFFFFF00
7FFFFF00
7FFFFE00
7FFFFE00
3FFFFC00
3FFFFC00
1FFFF800
1FFFF000
0FFFE000
03FFC000
00FF8000
ENDCHAR
STARTCHAR 00DB
ENCODING 219
SWIDTH 540 0
DWIDTH 27 0
BBX 26 42 1 1
BITMAP
00078000
001FC000
003FE000
007FF000
00FFF800
01FCFC00
01F87C00
00002000
00000000
1F803F00
1FE07F80
1FC07FC0
3FC03F80
3FC03F80
3FC03F80
3FC03F80
7FC03F80
7F803F80
7F807F80
7F807F80
7F807F80
FF807F80
FF807F80
FF807FC0
FF807FC0
FFC0FFC0
FFC0FFC0
FFE0FF80
FFFFFF80
FFFFFF80
FFFFFF00
FFFFFF00
7FFFFF00
7FFFFE00
7FFFFE00
3FFFFC00
3FFFFC00
1FFFF800
1FFFF000
0FFFE000
03FFC000
00FF8000
ENDCHAR
STARTCHAR 00DC
ENCODING 220
SWIDTH 540 0
DWIDTH 27 0
BBX 26 40 1 1
BITMAP
00300000
00F8F800
00F8F800
00F8FC00
00F8F800
00607000
00000000
1F803F00
1FE07F80
1FC07FC0
3FC03F80
3FC03F80
3FC03F80
3FC03F80
7FC03F80
7F803F80
7F807F80
7F807F80
7F807F80
FF807F80
FF807F80
FF807FC0
FF807FC0
FFC0FFC0
FFC0FFC0
FFE0FF80
FFFFFF80
FFFFFF80
FFFFFF00
FFFFFF00
7FFFFF00
7FFFFE00
7FFFFE00
3FFFFC00
3FFFFC00
1FFFF800
1FFFF000
0FFFE000
03FFC000
00FF8000
ENDCHAR
STARTCHAR 00DD
ENCODING 221
SWIDTH 600 0
DWIDTH 30 0
BBX 29 43 1 0
BITMAP
0000FE00
0001FC00
0001FC00
0003F800
0003F000
0007E000
0007C000
00008000
00000000
000007F8
07000FF0
3F000FF0
FF801FF0
FFC01FE0
FFC01FE0
7FE03FC0
7FE03FC0
3FF07F80
1FF0FF80
1FF0FF00
1FF9FF00
0FF9FE00
0FFFFE00
07FFFC00
07FFFC00
03FFF800
03FFF800
01FFF000
00FFF000
00FFF000
007FE000
007FC000
003FC000
003FC000
001FC000
001FC000
001FC000
001FE000
001FE000
001FE000
001FE000
001FE000
001F8000
ENDCHAR
STARTCHAR 00DE
ENCODING 222
SWIDTH 500 0
DWIDTH 25 0
BBX 23 34 1 0
BITMAP
FF0000
FF8000
FF8000
FF8000
FFE000
FFFF00
FFFFC0
FFFFE0
FFFFF0
FFFFF0
FFFFF8
FF8FF8
FF81FC
FF81FC
FF80FC
7F80FE
7F80FE
7FC1FE
7FC1FE
7FC1FE
7FC3FE
7FEFFE
7FFFFE
7FFFFC
7FFFFC
7FFFF0
7FFFE0
7FE000
7FE000
7FE000
7FE000
7FE000
7FE000
3FE000
ENDCHAR
STARTCHAR 00DF
ENCODING 223
SWIDTH 560 0
DWIDTH 28 0
BBX 26 38 1 -3
BITMAP
03F00000
0FFE0000
1FFF8000
3FFFC000
7FFFC000
7FFFC000
FFFFE000
FF9FE000
FE07F000
FE07F000
FE07F000
FE07E000
FE07E000
FE0FE000
FE0FC000
FF1F8000
FF1FC000
FF1FFC00
FF1FFE00
FF1FFF80
7F1FFF80
7F0FFFC0
7F00FFC0
7F007FC0
7F003FC0
7F003FC0
7F003FC0
7F807FC0
7F80FFC0
7F87FFC0
7F87FF80
7F87FF80
3F87FE00
3F87FE00
3F87F800
3F800000
3F800000
1F000000
ENDCHAR
STARTCHAR 00E0
ENCODING 224
SWIDTH 620 0
DWIDTH 31 0
BBX 30 44 1 -1
BITMAP
00FC0000
00FE0000
007E0000
003F0000
001F8000
001F8000
000F8000
00040000
00000000
0001C000
0007E000
0007E000
0007E000
000FF000
000FF000
001FF000
001FF000
001FF800
003FF800
003FF800
003FF800
007FFC00
007FFC00
00FFFC00
00FFFE00
00FFFE00
01FFFE00
01F3FF00
03F1FF00
03E1FF00
07C1FF80
07C1FF80
0FFFFF80
0FFFFFC0
0FFFFFC0
1FFFFFC0
1FF8FFE0
3FE0FFE0
3FC0FFF0
7FC0FFF0
7F807FF8
FF807FF8
FF807FFC
FE002000
ENDCHAR
STARTCHAR 00E1
ENCODING 225
SWIDTH 620 0
DWIDTH 31 0
BBX 30 44 1 -1
BITMAP
00007F00
0000FF00
0000FE00
0001FC00
0001F800
0003F000
0003E000
00004000
00000000
0001C000
0007E000
0007E000
0007E000
000FF000
000FF000
001FF000
001FF000
001FF800
003FF800
003FF800
003FF800
007FFC00
007FFC00
00FFFC00
00FFFE00
00FFFE00
01FFFE00
01F3FF00
03F1FF00
03E1FF00
07C1FF80
07C1FF80
0FFFFF80
0FFFFFC0
0FFFFFC0
1FFFFFC0
1FF8FFE0
3FE0FFE0
3FC0FFF0
7FC0FFF0
7F807FF8
FF807FF8
FF807FFC
FE002000
ENDCHAR
STARTCHAR 00E2
ENCODING 226
SWIDTH 620 0
DWIDTH 31 0
BBX 30 44 1 -1
BITMAP
0003C000
000FE000
001FF000
003FF800
007FFE00
00FE7E00
00FC3E00
00001800
00000000
0001C000
0007E000
0007E000
0007E000
000FF000
000FF000
001FF000
001FF000
001FF800
003FF800
003FF800
003FF800
007FFC00
007FFC00
00FFFC00
00FFFE00
00FFFE00
01FFFE00
01F3FF00
03F1FF00
03E1FF00
07C1FF80
07C1FF80
0FFFFF80
0FFFFFC0
0FFFFFC0
1FFFFFC0
1FF8FFE0
3FE0FFE0
3FC0FFF0
7FC0FFF0
7F807FF8
FF807FF8
FF807FFC
FE002000
ENDCHAR
STARTCHAR 00E3
ENCODING 227
SWIDTH 620 0
DWIDTH 31 0
BBX 30 44 1 -1
BITMAP
000C3E00
003F3E00
007FFE00
007FFE00
007FFE00
007FFC00
0079F800
00786000
00000000
0001C000
0007E000
0007E000
0007E000
000FF000
000FF000
001FF000
001FF000
001FF800
003FF800
003FF800
003FF800
007FFC00
007FFC00
00FFFC00
00FFFE00
00FFFE00
01FFFE00
01F3FF00
03F1FF00
03E1FF00
07C1FF80
07C1FF80
0FFFFF80
0FFFFFC0
0FFFFFC0
1FFFFFC0
1FF8FFE0
3FE0FFE0
3FC0FFF0
7FC0FFF0
7F807FF8
FF807FF8
FF807FFC
FE002000
ENDCHAR
STARTCHAR 00E4
ENCODING 228
SWIDTH 620 0
DWIDTH 31 0
BBX 30 42 1 -1
BITMAP
00001800
003C3E00
007C3E00
007C3E00
007C3C00
003C1800
00000000
0001C000
0007E000
0007E000
0007E000
000FF000
000FF000
001FF000
001FF000
001FF800
003FF800
003FF800
003FF800
007FFC00
007FFC00
00FFFC00
00FFFE00
00FFFE00
01FFFE00
01F3FF00
03F1FF00
03E1FF00
07C1FF80
07C1FF80
0FFFFF80
0FFFFFC0
0FFFFFC0
1FFFFFC0
1FF8FFE0
3FE0FFE0
3FC0FFF0
7FC0FFF0
7F807FF8
FF807FF8
FF807FFC
FE002000
ENDCHAR
STARTCHAR 00E5
ENCODING 229
SWIDTH 620 0
DWIDTH 31 0
BBX 30 44 1 -1
BITMAP
000FE000
003FF800
007FFC00
007E7C00
00F87E00
00F83E00
00F83E00
00F83E00
00FC7C00
007FFC00
003FF800
001FF000
0007E000
000FF000
000FF000
001FF000
001FF000
001FF800
003FF800
003FF800
003FF800
007FFC00
007FFC00
00FFFC00
00FFFE00
00FFFE00
01FFFE00
01F3FF00
03F1FF00
03E1FF00
07C1FF80
07C1FF80
0FFFFF80
0FFFFFC0
0FFFFFC0
1FFFFFC0
1FF8FFE0
3FE0FFE0
3FC0FFF0
7FC0FFF0
7F807FF8
FF807FF8
FF807FFC
FE002000
ENDCHAR
STARTCHAR 00E6
ENCODING 230
SWIDTH 720 0
DWIDTH 36 0
BBX 35 36 1 -1
BITMAP
00000E0000
0003FFFC00
0007FFFC00
0007FFFC00
000FFFFC00
000FFFF800
000FFFF800
001FFFF800
001FFFF800
001FFFF800
003FFFF800
003FFE0000
003FFC0000
007FFE0000
007FFE1800
00FFFFF800
00FFFFF800
01FFFFF800
01FFFFF800
01F3FFF800
03E1FF0000
03E1FF0000
07C1FF7F80
07C3FFFF80
0FFFFFFFC0
0FFFFFFFC0
1FFFFFFFC0
1FFFFFFFC0
1FF0FFFFE0
3FC0FFFFE0
3FC0FFFFE0
7FC0FFFFE0
7F807FFE00
FF807FE000
FFC07E0000
F800000000
ENDCHAR
STARTCHAR 00E7
ENCODING 231
SWIDTH 480 0
DWIDTH 24 0
BBX 23 42 1 -8
BITMAP
001F80
00FFF0
03FFF8
0FFFFC
1FFFFE
3FFFFE
3FFFFE
7FFFFE
7FFFFC
FFFFD4
FFF800
FFE000
FFE000
FFC000
FFC000
FFC000
FFC000
FFC000
FFE004
FFF9FC
FFFFFC
FFFFFC
FFFFFC
7FFFFC
7FFFFC
7FFFFC
3FFFFC
3FFFFC
1FFFFC
1FFFF0
0FFFF0
07FFE0
01FF80
00F800
00FC00
00FE00
007F00
001F80
0E0F80
0FFF80
0FFF80
07FF00
ENDCHAR
STARTCHAR 00E8
ENCODING 232
SWIDTH 480 0
DWIDTH 24 0
BBX 23 43 1 1
BITMAP
FE0000
FF0000
7F0000
3F8000
1FC000
0FC000
07C000
000000
07FC00
3FFFC0
FFFFC0
FFFFC0
FFFF80
7FFF80
7FFF80
7FFF80
7FFF80
7FFF80
3FFF00
3FC000
3FC000
3FE000
3FE380
1FFF80
1FFF00
1FFF00
1FFF80
1FFE80
1FF000
0FF000
0FFFF8
0FFFF8
0FFFFC
0FFFFC
0FFFFC
0FFFFC
0FFFFE
0FFFFE
0FFFFE
07FFFC
07FFC0
07FC00
038000
ENDCHAR
STARTCHAR 00E9
ENCODING 233
SWIDTH 480 0
DWIDTH 24 0
BBX 23 44 1 0
BITMAP
00FE00
00FC00
01FC00
01F800
03F000
03E000
03E000
07C000
000000
07FC00
3FFFC0
FFFFC0
FFFFC0
FFFF80
7FFF80
7FFF80
7FFF80
7FFF80
7FFF80
3FFF00
3FC000
3FC000
3FE000
3FE380
1FFF80
1FFF00
1FFF00
1FFF80
1FFE80
1FF000
0FF000
0FFFF8
0FFFF8
0FFFFC
0FFFFC
0FFFFC
0FFFFC
0FFFFE
0FFFFE
0FFFFE
07FFFC
07FFC0
07FC00
038000
ENDCHAR
STARTCHAR 00EA
ENCODING 234
SWIDTH 480 0
DWIDTH 24 0
BBX 23 44 1 0
BITMAP
038000
0FC000
1FF000
3FF800
7FFC00
7EFE00
FC3C00
F81000
000000
07FC00
3FFFC0
FFFFC0
FFFFC0
FFFF80
7FFF80
7FFF80
7FFF80
7FFF80
7FFF80
3FFF00
3FC000
3FC000
3FE000
3FE380
1FFF80
1FFF00
1FFF00
1FFF80
1FFE80
1FF000
0FF000
0FFFF8
0FFFF8
0FFFFC
0FFFFC
0FFFFC
0FFFFC
0FFFFE
0FFFFE
0FFFFE
07FFFC
07FFC0
07FC00
038000
ENDCHAR
STARTCHAR 00EB
ENCODING 235
SWIDTH 480 0
DWIDTH 24 0
BBX 23 42 1 0
BITMAP
002000
007C00
787C00
FC7C00
FC7800
F83800
380000
07FC00
3FFFC0
FFFFC0
FFFFC0
FFFF80
7FFF80
7FFF80
7FFF80
7FFF80
7FFF80
3FFF00
3FC000
3FC000
3FE000
3FE380
1FFF80
1FFF00
1FFF00
1FFF80
1FFE80
1FF000
0FF000
0FFFF8
0FFFF8
0FFFFC
0FFFFC
0FFFFC
0FFFFC
0FFFFE
0FFFFE
0FFFFE
07FFFC
07FFC0
07FC00
038000
ENDCHAR
STARTCHAR 00EC
ENCODING 236
SWIDTH 320 0
DWIDTH 16 0
BBX 15 43 1 0
BITMAP
3F80
1FC0
0FC0
0FE0
07F0
03F0
01F0
0080
0000
07F0
0FFE
1FFE
0FFC
0FFC
0FFC
1FFC
1FFC
1FFC
1FF8
1FF8
1FF8
1FF8
1FF8
3FF8
3FF8
3FF8
3FF8
3FF8
3FF8
3FF8
3FF8
3FF8
3FF8
3FF8
3FF8
3FF8
3FF8
3FF0
7FF0
7FF0
7FF0
FFE0
F800
ENDCHAR
STARTCHAR 00ED
ENCODING 237
SWIDTH 320 0
DWIDTH 16 0
BBX 17 43 1 0
BITMAP
003F80
003F80
007F00
007E00
00FC00
00F800
01F000
003000
000000
07F000
0FFE00
1FFE00
0FFC00
0FFC00
0FFC00
1FFC00
1FFC00
1FFC00
1FF800
1FF800
1FF800
1FF800
1FF800
3FF800
3FF800
3FF800
3FF800
3FF800
3FF800
3FF800
3FF800
3FF800
3FF800
3FF800
3FF800
3FF800
3FF800
3FF000
7FF000
7FF000
7FF000
FFE000
F80000
ENDCHAR
STARTCHAR 00EE
ENCODING 238
SWIDTH 320 0
DWIDTH 16 0
BBX 17 43 1 0
BITMAP
00F000
03F800
07FC00
0FFE00
1FFF00
3F9F80
3F0F80
000400
000000
07F000
0FFE00
1FFE00
0FFC00
0FFC00
0FFC00
1FFC00
1FFC00
1FFC00
1FF800
1FF800
1FF800
1FF800
1FF800
3FF800
3FF800
3FF800
3FF800
3FF800
3FF800
3FF800
3FF800
3FF800
3FF800
3FF800
3FF800
3FF800
3FF800
3FF000
7FF000
7FF000
7FF000
FFE000
F80000
ENDCHAR
STARTCHAR 00EF
ENCODING 239
SWIDTH 320 0
DWIDTH 16 0
BBX 17 41 1 0
BITMAP
000400
0F0F00
1F1F80
1F1F00
1F1F00
0E0600
000000
07F000
0FFE00
1FFE00
0FFC00
0FFC00
0FFC00
1FFC00
1FFC00
1FFC00
1FF800
1FF800
1FF800
1FF800
1FF800
3FF800
3FF800
3FF800
3FF800
3FF800
3FF800
3FF800
3FF800
3FF800
3FF800
3FF800
3FF800
3FF800
3FF800
3FF000
7FF000
7FF000
7FF000
FFE000
F80000
ENDCHAR
STARTCHAR 00F0
ENCODING 240
SWIDTH 480 0
DWIDTH 24 0
BBX 24 34 0 0
BITMAP
0FF000
3FFE00
3FFF80
3FFFC0
3FFFE0
3FFFF0
3FFFF8
3FFFFC
3FFFFC
1FF3FE
1FF0FE
1FFE7E
1FFE7F
FFFE7F
FFFE7F
FFFE7F
FFFEFF
FFFCFE
FFF1FE
2FF3FC
0FFFFC
0FFFF8
0FFFF8
07FFF0
07FFF0
07FFE0
07FFC0
07FFC0
03FF80
03FF00
03FC00
03F800
01E000
010000
ENDCHAR
STARTCHAR 00F1
ENCODING 241
SWIDTH 560 0
DWIDTH 28 0
BBX 27 43 1 0
BITMAP
00183E00
007E3E00
007FFE00
00FFFE00
00FFFC00
00FFF800
00F3F000
00F02000
00000000
00000000
0FF01F80
1FF87FC0
1FF87FE0
1FF87FC0
1FF87FC0
3FF87FC0
3FF87FC0
3FF87FC0
3FFC7FC0
3FFC7FC0
3FFC7FC0
3FFE7F80
7FFE7F80
7FFEFF80
7FFEFF80
7FFFFF80
7FFFFF80
7FFFFF80
7FFFFF80
7FFFFF80
7FEFFF80
7FEFFF80
7FCFFF80
7FC7FF80
7FC7FF80
FFC7FF00
FFC3FF00
FFC3FF00
FFC3FF00
FFC3FF00
FFC3FF00
FF83FE00
F0000000
ENDCHAR
STARTCHAR 00F2
ENCODING 242
SWIDTH 520 0
DWIDTH 26 0
BBX 25 43 1 0
BITMAP
FE000000
FF000000
7F000000
3F800000
1F800000
0FC00000
07C00000
02000000
01E00000
01F80000
03FE0000
07FF0000
0FFFC000
0FFFE000
1FFFF000
1FFFF800
1FFFF800
3FFFFC00
3FFFFE00
7FFFFE00
7FFFFE00
7FE3FF00
FFC1FF00
FF81FF00
FF81FF80
FF81FF80
FF81FF80
FF81FF80
FFC1FF80
FFE3FF80
FFFFFF80
7FFFFF80
7FFFFF00
7FFFFF00
7FFFFF00
3FFFFF00
3FFFFE00
1FFFFE00
1FFFFE00
0FFFFC00
07FFF800
01FFF000
007FC000
ENDCHAR
STARTCHAR 00F3
ENCODING 243
SWIDTH 520 0
DWIDTH 26 0
BBX 25 43 1 0
BITMAP
003F8000
003F8000
007F0000
00FE0000
00FC0000
01F80000
01F00000
00300000
01E00000
01F80000
03FE0000
07FF0000
0FFFC000
0FFFE000
1FFFF000
1FFFF800
1FFFF800
3FFFFC00
3FFFFE00
7FFFFE00
7FFFFE00
7FE3FF00
FFC1FF00
FF81FF00
FF81FF80
FF81FF80
FF81FF80
FF81FF80
FFC1FF80
FFE3FF80
FFFFFF80
7FFFFF80
7FFFFF00
7FFFFF00
7FFFFF00
3FFFFF00
3FFFFE00
1FFFFE00
1FFFFE00
0FFFFC00
07FFF800
01FFF000
007FC000
ENDCHAR
STARTCHAR 00F4
ENCODING 244
SWIDTH 520 0
DWIDTH 26 0
BBX 25 43 1 0
BITMAP
03E00000
07F80000
0FFC0000
1FFE0000
3FFF0000
7E3F0000
3C1F0000
00000000
01E00000
01F80000
03FE0000
07FF0000
0FFFC000
0FFFE000
1FFFF000
1FFFF800
1FFFF800
3FFFFC00
3FFFFE00
7FFFFE00
7FFFFE00
7FE3FF00
FFC1FF00
FF81FF00
FF81FF80
FF81FF80
FF81FF80
FF81FF80
FFC1FF80
FFE3FF80
FFFFFF80
7FFFFF80
7FFFFF00
7FFFFF00
7FFFFF00
3FFFFF00
3FFFFE00
1FFFFE00
1FFFFE00
0FFFFC00
07FFF800
01FFF000
007FC000
ENDCHAR
STARTCHAR 00F5
ENCODING 245
SWIDTH 520 0
DWIDTH 26 0
BBX 25 43 1 1
BITMAP
043E0000
1F3F0000
3FFF0000
7FFF0000
7FFE0000
7FFC0000
7CF80000
7C000000
01E00000
01F80000
03FE0000
07FF0000
0FFFC000
0FFFE000
1FFFF000
1FFFF800
1FFFF800
3FFFFC00
3FFFFE00
7FFFFE00
7FFFFE00
7FE3FF00
FFC1FF00
FF81FF00
FF81FF80
FF81FF80
FF81FF80
FF81FF80
FFC1FF80
FFE3FF80
FFFFFF80
7FFFFF80
7FFFFF00
7FFFFF00
7FFFFF00
3FFFFF00
3FFFFE00
1FFFFE00
1FFFFE00
0FFFFC00
07FFF800
01FFF000
007FC000
ENDCHAR
STARTCHAR 00F6
ENCODING 246
SWIDTH 520 0
DWIDTH 26 0
BBX 25 41 1 0
BITMAP
00080000
1E1E0000
3E3F0000
3E3E0000
3E3E0000
1C0C0000
01E00000
01F80000
03FE0000
07FF0000
0FFFC000
0FFFE000
1FFFF000
1FFFF800
1FFFF800
3FFFFC00
3FFFFE00
7FFFFE00
7FFFFE00
7FE3FF00
FFC1FF00
FF81FF00
FF81FF80
FF81FF80
FF81FF80
FF81FF80
FFC1FF80
FFE3FF80
FFFFFF80
7FFFFF80
7FFFFF00
7FFFFF00
7FFFFF00
3FFFFF00
3FFFFE00
1FFFFE00
1FFFFE00
0FFFFC00
07FFF800
01FFF000
007FC000
ENDCHAR
STARTCHAR 00F7
ENCODING 247
SWIDTH 480 0
DWIDTH 24 0
BBX 22 27 1 4
BITMAP
007000
00FC00
00FE00
01FE00
01FE00
01FE00
01FE00
007C00
000000
000000
FFFFFC
FFFFFC
FFFFFC
FFFFFC
FFFFFC
FFFFFC
7F8000
000000
002000
00FC00
01FE00
01FE00
01FE00
01FE00
01FC00
00FC00
003000
ENDCHAR
STARTCHAR 00F8
ENCODING 248
SWIDTH 520 0
DWIDTH 26 0
BBX 27 36 0 0
BITMAP
00F01FE0
00FC3FE0
01FF3FC0
03FFFF80
07FFFF80
07FFFF00
0FFFFF00
0FFFFE00
0FFFFC00
1FFFFE00
1FFFFF00
3FFFFF00
3FFFFF00
3FCFFF80
7F9FFF80
7F9FFF80
7F3FBFC0
7F7FBFC0
7F7F3FC0
7FFE7FC0
7FFE7FC0
7FFCFFC0
7FF9FFC0
3FFFFFC0
3FFFFF80
3FFFFF80
3FFFFF80
1FFFFF80
1FFFFF00
1FFFFF00
3FFFFF00
7FFFFE00
7FFFFC00
FEFFF800
BC3FE000
08000000
ENDCHAR
STARTCHAR 00F9
ENCODING 249
SWIDTH 540 0
DWIDTH 27 0
BBX 26 42 1 1
BITMAP
03F80000
03F80000
01FC0000
00FE0000
007E0000
003F0000
001F0000
00180000
00000000
1F803F00
1FE07F80
1FC07FC0
3FC03F80
3FC03F80
3FC03F80
3FC03F80
7FC03F80
7F803F80
7F807F80
7F807F80
7F807F80
FF807F80
FF807F80
FF807FC0
FF807FC0
FFC0FFC0
FFC0FFC0
FFE0FF80
FFFFFF80
FFFFFF80
FFFFFF00
FFFFFF00
7FFFFF00
7FFFFE00
7FFFFE00
3FFFFC00
3FFFFC00
1FFFF800
1FFFF000
0FFFE000
03FFC000
00FF8000
ENDCHAR
STARTCHAR 00FA
ENCODING 250
SWIDTH 540 0
DWIDTH 27 0
BBX 26 42 1 1
BITMAP
0000FC00
0001FC00
0003F800
0003F000
0007E000
0007C000
000FC000
00018000
00000000
1F803F00
1FE07F80
1FC07FC0
3FC03F80
3FC03F80
3FC03F80
3FC03F80
7FC03F80
7F803F80
7F807F80
7F807F80
7F807F80
FF807F80
FF807F80
FF807FC0
FF807FC0
FFC0FFC0
FFC0FFC0
FFE0FF80
FFFFFF80
FFFFFF80
FFFFFF00
FFFFFF00
7FFFFF00
7FFFFE00
7FFFFE00
3FFFFC00
3FFFFC00
1FFFF800
1FFFF000
0FFFE000
03FFC000
00FF8000
ENDCHAR
STARTCHAR 00FB
ENCODING 251
SWIDTH 540 0
DWIDTH 27 0
BBX 26 42 1 1
BITMAP
00078000
001FC000
003FE000
007FF000
00FFF800
01FCFC00
01F87C00
00002000
00000000
1F803F00
1FE07F80
1FC07FC0
3FC03F80
3FC03F80
3FC03F80
3FC03F80
7FC03F80
7F803F80
7F807F80
7F807F80
7F807F80
FF807F80
FF807F80
FF807FC0
FF807FC0
FFC0FFC0
FFC0FFC0
FFE0FF80
FFFFFF80
FFFFFF80
FFFFFF00
FFFFFF00
7FFFFF00
7FFFFE00
7FFFFE00
3FFFFC00
3FFFFC00
1FFFF800
1FFFF000
0FFFE000
03FFC000
00FF8000
ENDCHAR
STARTCHAR 00FC
ENCODING 252
SWIDTH 540 0
DWIDTH 27 0
BBX 26 40 1 1
BITMAP
00300000
00F8F800
00F8F800
00F8FC00
00F8F800
00607000
00000000
1F803F00
1FE07F80
1FC07FC0
3FC03F80
3FC03F80
3FC03F80
3FC03F80
7FC03F80
7F803F80
7F807F80
7F807F80
7F807F80
FF807F80
FF807F80
FF807FC0
FF807FC0
FFC0FFC0
FFC0FFC0
FFE0FF80
FFFFFF80
FFFFFF80
FFFFFF00
FFFFFF00
7FFFFF00
7FFFFE00
7FFFFE00
3FFFFC00
3FFFFC00
1FFFF800
1FFFF000
0FFFE000
03FFC000
00FF8000
ENDCHAR
STARTCHAR 00FD
ENCODING 253
SWIDTH 600 0
DWIDTH 30 0
BBX 29 43 1 0
BITMAP
0000FE00
0001FC00
0001FC00
0003F800
0003F000
0007E000
0007C000
00008000
00000000
000007F8
07000FF0
3F000FF0
FF801FF0
FFC01FE0
FFC01FE0
7FE03FC0
7FE03FC0
3FF07F80
1FF0FF80
1FF0FF00
1FF9FF00
0FF9FE00
0FFFFE00
07FFFC00
07FFFC00
03FFF800
03FFF800
01FFF000
00FFF000
00FFF000
007FE000
007FC000
003FC000
003FC000
001FC000
001FC000
001FC000
001FE000
001FE000
001FE000
001FE000
001FE000
001F8000
ENDCHAR
STARTCHAR 00FE
ENCODING 254
SWIDTH 500 0
DWIDTH 25 0
BBX 23 34 1 0
BITMAP
FF0000
FF8000
FF8000
FF8000
FFE000
FFFF00
FFFFC0
FFFFE0
FFFFF0
FFFFF0
FFFFF8
FF8FF8
FF81FC
FF81FC
FF80FC
7F80FE
7F80FE
7FC1FE
7FC1FE
7FC1FE
7FC3FE
7FEFFE
7FFFFE
7FFFFC
7FFFFC
7FFFF0
7FFFE0
7FE000
7FE000
7FE000
7FE000
7FE000
7FE000
3FE000
ENDCHAR
STARTCHAR 00FF
ENCODING 255
SWIDTH 600 0
DWIDTH 30 0
BBX 29 41 1 0
BITMAP
00003000
00F8F800
00F8FC00
00F8F800
00F8F800
00703000
00000000
000007F8
07000FF0
3F000FF0
FF801FF0
FFC01FE0
FFC01FE0
7FE03FC0
7FE03FC0
3FF07F80
1FF0FF80
1FF0FF00
1FF9FF00
0FF9FE00
0FFFFE00
07FFFC00
07FFFC00
03FFF800
03FFF800
01FFF000
00FFF000
00FFF000
007FE000
007FC000
003FC000
003FC000
001FC000
001FC000
001FC000
001FE000
001FE000
001FE000
001FE000
001FE000
001F8000
ENDCHAR
STARTCHAR 0100
ENCODING 256
SWIDTH 620 0
DWIDTH 31 0
BBX 30 41 1 -1
BITMAP
007FFE00
007FFE00
007FFE00
007FFE00
00200000
00000000
0001C000
0007E000
0007E000
0007E000
000FF000
000FF000
001FF000
001FF000
001FF800
003FF800
003FF800
003FF800
007FFC00
007FFC00
00FFFC00
00FFFE00
00FFFE00
01FFFE00
01F3FF00
03F1FF00
03E1FF00
07C1FF80
07C1FF80
0FFFFF80
0FFFFFC0
0FFFFFC0
1FFFFFC0
1FF8FFE0
3FE0FFE0
3FC0FFF0
7FC0FFF0
7F807FF8
FF807FF8
FF807FFC
FE002000
ENDCHAR
STARTCHAR 0101
ENCODING 257
SWIDTH 620 0
DWIDTH 31 0
BBX 30 41 1 -1
BITMAP
007FFE00
007FFE00
007FFE00
007FFE00
00200000
00000000
0001C000
0007E000
0007E000
0007E000
000FF000
000FF000
001FF000
001FF000
001FF800
003FF800
003FF800
003FF800
007FFC00
007FFC00
00FFFC00
00FFFE00
00FFFE00
01FFFE00
01F3FF00
03F1FF00
03E1FF00
07C1FF80
07C1FF80
0FFFFF80
0FFFFFC0
0FFFFFC0
1FFFFFC0
1FF8FFE0
3FE0FFE0
3FC0FFF0
7FC0FFF0
7F807FF8
FF807FF8
FF807FFC
FE002000
ENDCHAR
STARTCHAR 0102
ENCODING 258
SWIDTH 620 0
DWIDTH 31 0
BBX 30 44 1 -1
BITMAP
00F01E00
00F03E00
007C7E00
007FFC00
007FFC00
003FF800
000FF000
00038000
00000000
0001C000
0007E000
0007E000
0007E000
000FF000
000FF000
001FF000
001FF000
001FF800
003FF800
003FF800
003FF800
007FFC00
007FFC00
00FFFC00
00FFFE00
00FFFE00
01FFFE00
01F3FF00
03F1FF00
03E1FF00
07C1FF80
07C1FF80
0FFFFF80
0FFFFFC0
0FFFFFC0
1FFFFFC0
1FF8FFE0
3FE0FFE0
3FC0FFF0
7FC0FFF0
7F807FF8
FF807FF8
FF807FFC
FE002000
ENDCHAR
STARTCHAR 0103
ENCODING 259
SWIDTH 620 0
DWIDTH 31 0
BBX 30 44 1 -1
BITMAP
00F01E00
00F03E00
007C7E00
007FFC00
007FFC00
003FF800
000FF000
00038000
00000000
0001C000
0007E000
0007E000
0007E000
000FF000
000FF000
001FF000
001FF000
001FF800
003FF800
003FF800
003FF800
007FFC00
007FFC00
00FFFC00
00FFFE00
00FFFE00
01FFFE00
01F3FF00
03F1FF00
03E1FF00
07C1FF80
07C1FF80
0FFFFF80
0FFFFFC0
0FFFFFC0
1FFFFFC0
1FF8FFE0
3FE0FFE0
3FC0FFF0
7FC0FFF0
7F807FF8
FF807FF8
FF807FFC
FE002000
ENDCHAR
STARTCHAR 0104
ENCODING 260
SWIDTH 620 0
DWIDTH 31 0
BBX 30 42 1 -8
BITMAP
0001C000
0007E000
0007E000
0007E000
000FF000
000FF000
001FF000
001FF000
001FF800
003FF800
003FF800
003FF800
007FFC00
007FFC00
00FFFC00
00FFFE00
00FFFE00
01FFFE00
01F3FF00
03F1FF00
03E1FF00
07C1FF80
07C1FF80
0FFFFF80
0FFFFFC0
0FFFFFC0
1FFFFFC0
1FF8FFE0
3FE0FFE0
3FC0FFF0
7FC0FFF0
7F807FF8
FF807FF8
FF807FFC
FE00F000
0000F000
0001F000
0001F000
0001FBF0
0001FFF0
0001FFF0
0000FFF0
ENDCHAR
STARTCHAR 0105
ENCODING 261
SWIDTH 620 0
DWIDTH 31 0
BBX 30 42 1 -8
BITMAP
0001C000
0007E000
0007E000
0007E000
000FF000
000FF000
001FF000
001FF000
001FF800
003FF800
003FF800
003FF800
007FFC00
007FFC00
00FFFC00
00FFFE00
00FFFE00
01FFFE00
01F3FF00
03F1FF00
03E1FF00
07C1FF80
07C1FF80
0FFFFF80
0FFFFFC0
0FFFFFC0
1FFFFFC0
1FF8FFE0
3FE0FFE0
3FC0FFF0
7FC0FFF0
7F807FF8
FF807FF8
FF807FFC
FE00F000
0000F000
0001F000
0001F000
0001FBF0
0001FFF0
0001FFF0
0000FFF0
ENDCHAR
STARTCHAR 0106
ENCODING 262
SWIDTH 480 0
DWIDTH 24 0
BBX 23 42 1 0
BITMAP
0001FC
0001FC
0003F8
0003F0
0007E0
0007C0
000F80
000100
000000
001F80
00FFF0
03FFF8
0FFFFC
1FFFFE
3FFFFE
3FFFFE
7FFFFE
7FFFFC
FFFFD4
FFF800
FFE000
FFE000
FFC000
FFC000
FFC000
FFC000
FFC000
FFE004
FFF9FC
FFFFFC
FFFFFC
FFFFFC
7FFFFC
7FFFFC
7FFFFC
3FFFFC
3FFFFC
1FFFFC
1FFFF0
0FFFF0
07FFE0
01FF80
ENDCHAR
STARTCHAR 0107
ENCODING 263
SWIDTH 480 0
DWIDTH 24 0
BBX 23 42 1 0
BITMAP
0001FC
0001FC
0003F8
0003F0
0007E0
0007C0
000F80
000100
000000
001F80
00FFF0
03FFF8
0FFFFC
1FFFFE
3FFFFE
3FFFFE
7FFFFE
7FFFFC
FFFFD4
FFF800
FFE000
FFE000
FFC000
FFC000
FFC000
FFC000
FFC000
FFE004
FFF9FC
FFFFFC
FFFFFC
FFFFFC
7FFFFC
7FFFFC
7FFFFC
3FFFFC
3FFFFC
1FFFFC
1FFFF0
0FFFF0
07FFE0
01FF80
ENDCHAR
STARTCHAR 0108
ENCODING 264
SWIDTH 480 0
DWIDTH 24 0
BBX 23 42 1 0
BITMAP
000F00
003F80
007FE0
00FFF0
01FFF8
03F9FC
01F0F8
000020
000000
001F80
00FFF0
03FFF8
0FFFFC
1FFFFE
3FFFFE
3FFFFE
7FFFFE
7FFFFC
FFFFD4
FFF800
FFE000
FFE000
FFC000
FFC000
FFC000
FFC000
FFC000
FFE004
FFF9FC
FFFFFC
FFFFFC
FFFFFC
7FFFFC
7FFFFC
7FFFFC
3FFFFC
3FFFFC
1FFFFC
1FFFF0
0FFFF0
07FFE0
01FF80
ENDCHAR
STARTCHAR 0109
ENCODING 265
SWIDTH 480 0
DWIDTH 24 0
BBX 23 42 1 0
BITMAP
000F00
003F80
007FE0
00FFF0
01FFF8
03F9FC
01F0F8
000020
000000
001F80
00FFF0
03FFF8
0FFFFC
1FFFFE
3FFFFE
3FFFFE
7FFFFE
7FFFFC
FFFFD4
FFF800
FFE000
FFE000
FFC000
FFC000
FFC000
FFC000
FFC000
FFE004
FFF9FC
FFFFFC
FFFFFC
FFFFFC
7FFFFC
7FFFFC
7FFFFC
3FFFFC
3FFFFC
1FFFFC
1FFFF0
0FFFF0
07FFE0
01FF80
ENDCHAR
STARTCHAR 010A
ENCODING 266
SWIDTH 480 0
DWIDTH 24 0
BBX 23 39 1 0
BITMAP
000F00
001F00
001F00
001F00
000E00
000000
001F80
00FFF0
03FFF8
0FFFFC
1FFFFE
3FFFFE
3FFFFE
7FFFFE
7FFFFC
FFFFD4
FFF800
FFE000
FFE000
FFC000
FFC000
FFC000
FFC000
FFC000
FFE004
FFF9FC
FFFFFC
FFFFFC
FFFFFC
7FFFFC
7FFFFC
7FFFFC
3FFFFC
3FFFFC
1FFFFC
1FFFF0
0FFFF0
07FFE0
01FF80
ENDCHAR
STARTCHAR 010B
ENCODING 267
SWIDTH 480 0
DWIDTH 24 0
BBX 23 39 1 0
BITMAP
000F00
001F00
001F00
001F00
000E00
000000
001F80
00FFF0
03FFF8
0FFFFC
1FFFFE
3FFFFE
3FFFFE
7FFFFE
7FFFFC
FFFFD4
FFF800
FFE000
FFE000
FFC000
FFC000
FFC000
FFC000
FFC000
FFE004
FFF9FC
FFFFFC
FFFFFC
FFFFFC
7FFFFC
7FFFFC
7FFFFC
3FFFFC
3FFFFC
1FFFFC
1FFFF0
0FFFF0
07FFE0
01FF80
ENDCHAR
STARTCHAR 010C
ENCODING 268
SWIDTH 480 0
DWIDTH 24 0
BBX 23 42 1 0
BITMAP
01E078
03F1FC
01FBF8
00FFF0
007FE0
003FC0
001F80
000400
000000
001F80
00FFF0
03FFF8
0FFFFC
1FFFFE
3FFFFE
3FFFFE
7FFFFE
7FFFFC
FFFFD4
FFF800
FFE000
FFE000
FFC000
FFC000
FFC000
FFC000
FFC000
FFE004
FFF9FC
FFFFFC
FFFFFC
FFFFFC
7FFFFC
7FFFFC
7FFFFC
3FFFFC
3FFFFC
1FFFFC
1FFFF0
0FFFF0
07FFE0
01FF80
ENDCHAR
STARTCHAR 010D
ENCODING 269
SWIDTH 480 0
DWIDTH 24 0
BBX 23 42 1 0
BITMAP
01E078
03F1FC
01FBF8
00FFF0
007FE0
003FC0
001F80
000400
000000
001F80
00FFF0
03FFF8
0FFFFC
1FFFFE
3FFFFE
3FFFFE
7FFFFE
7FFFFC
FFFFD4
FFF800
FFE000
FFE000
FFC000
FFC000
FFC000
FFC000
FFC000
FFE004
FFF9FC
FFFFFC
FFFFFC
FFFFFC
7FFFFC
7FFFFC
7FFFFC
3FFFFC
3FFFFC
1FFFFC
1FFFF0
0FFFF0
07FFE0
01FF80
ENDCHAR
STARTCHAR 010E
ENCODING 270
SWIDTH 460 0
DWIDTH 23 0
BBX 21 44 1 0
BITMAP
001C00
707E00
FCFC00
FFFC00
7FF800
3FF000
1FE000
07C000
000000
000000
3FC000
FFF000
FFFE00
FFFF00
FFFF80
FFFFC0
FFFFC0
FFFFE0
FFFFF0
FFCFF0
FF83F8
FF81F8
FF81F8
FF81F8
FF81F8
7F83F8
7F83F8
7F87F8
7FC7F0
7FCFF0
7FFFE0
3FFFE0
3FFFC0
3FFFC0
3FFF80
3FFF80
1FFF00
1FFE00
1FFC00
1FF800
0FF000
0FC000
0F0000
0C0000
ENDCHAR
STARTCHAR 010F
ENCODING 271
SWIDTH 460 0
DWIDTH 23 0
BBX 21 44 1 0
BITMAP
001C00
707E00
FCFC00
FFFC00
7FF800
3FF000
1FE000
07C000
000000
000000
3FC000
FFF000
FFFE00
FFFF00
FFFF80
FFFFC0
FFFFC0
FFFFE0
FFFFF0
FFCFF0
FF83F8
FF81F8
FF81F8
FF81F8
FF81F8
7F83F8
7F83F8
7F87F8
7FC7F0
7FCFF0
7FFFE0
3FFFE0
3FFFC0
3FFFC0
3FFF80
3FFF80
1FFF00
1FFE00
1FFC00
1FF800
0FF000
0FC000
0F0000
0C0000
ENDCHAR
STARTCHAR 0110
ENCODING 272
SWIDTH 480 0
DWIDTH 24 0
BBX 24 34 0 0
BITMAP
0FF000
3FFE00
3FFF80
3FFFC0
3FFFE0
3FFFF0
3FFFF8
3FFFFC
3FFFFC
1FF3FE
1FF0FE
1FFE7E
1FFE7F
FFFE7F
FFFE7F
FFFE7F
FFFEFF
FFFCFE
FFF1FE
2FF3FC
0FFFFC
0FFFF8
0FFFF8
07FFF0
07FFF0
07FFE0
07FFC0
07FFC0
03FF80
03FF00
03FC00
03F800
01E000
010000
ENDCHAR
STARTCHAR 0111
ENCODING 273
SWIDTH 480 0
DWIDTH 24 0
BBX 24 34 0 0
BITMAP
0FF000
3FFE00
3FFF80
3FFFC0
3FFFE0
3FFFF0
3FFFF8
3FFFFC
3FFFFC
1FF3FE
1FF0FE
1FFE7E
1FFE7F
FFFE7F
FFFE7F
FFFE7F
FFFEFF
FFFCFE
FFF1FE
2FF3FC
0FFFFC
0FFFF8
0FFFF8
07FFF0
07FFF0
07FFE0
07FFC0
07FFC0
03FF80
03FF00
03FC00
03F800
01E000
010000
ENDCHAR
STARTCHAR 0112
ENCODING 274
SWIDTH 480 0
DWIDTH 24 0
BBX 23 41 1 0
BITMAP
00FC00
FFFC00
FFFE00
FFFE00
FFC000
F00000
07FC00
3FFFC0
FFFFC0
FFFFC0
FFFF80
7FFF80
7FFF80
7FFF80
7FFF80
7FFF80
3FFF00
3FC000
3FC000
3FE000
3FE380
1FFF80
1FFF00
1FFF00
1FFF80
1FFE80
1FF000
0FF000
0FFFF8
0FFFF8
0FFFFC
0FFFFC
0FFFFC
0FFFFC
0FFFFE
0FFFFE
0FFFFE
07FFFC
07FFC0
07FC00
038000
ENDCHAR
STARTCHAR 0113
ENCODING 275
SWIDTH 480 0
DWIDTH 24 0
BBX 23 41 1 0
BITMAP
00FC00
FFFC00
FFFE00
FFFE00
FFC000
F00000
07FC00
3FFFC0
FFFFC0
FFFFC0
FFFF80
7FFF80
7FFF80
7FFF80
7FFF80
7FFF80
3FFF00
3FC000
3FC000
3FE000
3FE380
1FFF80
1FFF00
1FFF00
1FFF80
1FFE80
1FF000
0FF000
0FFFF8
0FFFF8
0FFFFC
0FFFFC
0FFFFC
0FFFFC
0FFFFE
0FFFFE
0FFFFE
07FFFC
07FFC0
07FC00
038000
ENDCHAR
STARTCHAR 0114
ENCODING 276
SWIDTH 480 0
DWIDTH 24 0
BBX 23 44 1 0
BITMAP
003E00
F03E00
F07C00
FFFC00
7FFC00
7FF800
3FF000
0FC000
000000
07FC00
3FFFC0
FFFFC0
FFFFC0
FFFF80
7FFF80
7FFF80
7FFF80
7FFF80
7FFF80
3FFF00
3FC000
3FC000
3FE000
3FE380
1FFF80
1FFF00
1FFF00
1FFF80
1FFE80
1FF000
0FF000
0FFFF8
0FFFF8
0FFFFC
0FFFFC
0FFFFC
0FFFFC
0FFFFE
0FFFFE
0FFFFE
07FFFC
07FFC0
07FC00
038000
ENDCHAR
STARTCHAR 0115
ENCODING 277
SWIDTH 480 0
DWIDTH 24 0
BBX 23 44 1 0
BITMAP
003E00
F03E00
F07C00
FFFC00
7FFC00
7FF800
3FF000
0FC000
000000
07FC00
3FFFC0
FFFFC0
FFFFC0
FFFF80
7FFF80
7FFF80
7FFF80
7FFF80
7FFF80
3FFF00
3FC000
3FC000
3FE000
3FE380
1FFF80
1FFF00
1FFF00
1FFF80
1FFE80
1FF000
0FF000
0FFFF8
0FFFF8
0FFFFC
0FFFFC
0FFFFC
0FFFFC
0FFFFE
0FFFFE
0FFFFE
07FFFC
07FFC0
07FC00
038000
ENDCHAR
STARTCHAR 0116
ENCODING 278
SWIDTH 480 0
DWIDTH 24 0
BBX 23 41 1 0
BITMAP
078000
07C000
0FC000
0FC000
078000
000000
07FC00
3FFFC0
FFFFC0
FFFFC0
FFFF80
7FFF80
7FFF80
7FFF80
7FFF80
7FFF80
3FFF00
3FC000
3FC000
3FE000
3FE380
1FFF80
1FFF00
1FFF00
1FFF80
1FFE80
1FF000
0FF000
0FFFF8
0FFFF8
0FFFFC
0FFFFC
0FFFFC
0FFFFC
0FFFFE
0FFFFE
0FFFFE
07FFFC
07FFC0
07FC00
038000
ENDCHAR
STARTCHAR 0117
ENCODING 279
SWIDTH 480 0
DWIDTH 24 0
BBX 23 41 1 0
BITMAP
078000
07C000
0FC000
0FC000
078000
000000
07FC00
3FFFC0
FFFFC0
FFFFC0
FFFF80
7FFF80
7FFF80
7FFF80
7FFF80
7FFF80
3FFF00
3FC000
3FC000
3FE000
3FE380
1FFF80
1FFF00
1FFF00
1FFF80
1FFE80
1FF000
0FF000
0FFFF8
0FFFF8
0FFFFC
0FFFFC
0FFFFC
0FFFFC
0FFFFE
0FFFFE
0FFFFE
07FFFC
07FFC0
07FC00
038000
ENDCHAR
STARTCHAR 0118
ENCODING 280
SWIDTH 480 0
DWIDTH 24 0
BBX 23 42 1 -7
BITMAP
07FC00
3FFFC0
FFFFC0
FFFFC0
FFFF80
7FFF80
7FFF80
7FFF80
7FFF80
7FFF80
3FFF00
3FC000
3FC000
3FE000
3FE380
1FFF80
1FFF00
1FFF00
1FFF80
1FFE80
1FF000
0FF000
0FFFF8
0FFFF8
0FFFFC
0FFFFC
0FFFFC
0FFFFC
0FFFFE
0FFFFE
0FFFFE
07FFFC
07FFC0
07FF00
039E00
001E00
003E00
003E06
003F7E
003FFE
003FFE
001FFC
ENDCHAR
STARTCHAR 0119
ENCODING 281
SWIDTH 480 0
DWIDTH 24 0
BBX 23 42 1 -7
BITMAP
07FC00
3FFFC0
FFFFC0
FFFFC0
FFFF80
7FFF80
7FFF80
7FFF80
7FFF80
7FFF80
3FFF00
3FC000
3FC000
3FE000
3FE380
1FFF80
1FFF00
1FFF00
1FFF80
1FFE80
1FF000
0FF000
0FFFF8
0FFFF8
0FFFFC
0FFFFC
0FFFFC
0FFFFC
0FFFFE
0FFFFE
0FFFFE
07FFFC
07FFC0
07FF00
039E00
001E00
003E00
003E06
003F7E
003FFE
003FFE
001FFC
ENDCHAR
STARTCHAR 011A
ENCODING 282
SWIDTH 480 0
DWIDTH 24 0
BBX 23 44 1 0
BITMAP
001C00
707E00
FCFC00
FFFC00
7FF800
3FF000
1FE000
07C000
000000
07FC00
3FFFC0
FFFFC0
FFFFC0
FFFF80
7FFF80
7FFF80
7FFF80
7FFF80
7FFF80
3FFF00
3FC000
3FC000
3FE000
3FE380
1FFF80
1FFF00
1FFF00
1FFF80
1FFE80
1FF000
0FF000
0FFFF8
0FFFF8
0FFFFC
0FFFFC
0FFFFC
0FFFFC
0FFFFE
0FFFFE
0FFFFE
07FFFC
07FFC0
07FC00
038000
ENDCHAR
STARTCHAR 011B
ENCODING 283
SWIDTH 480 0
DWIDTH 24 0
BBX 23 44 1 0
BITMAP
001C00
707E00
FCFC00
FFFC00
7FF800
3FF000
1FE000
07C000
000000
07FC00
3FFFC0
FFFFC0
FFFFC0
FFFF80
7FFF80
7FFF80
7FFF80
7FFF80
7FFF80
3FFF00
3FC000
3FC000
3FE000
3FE380
1FFF80
1FFF00
1FFF00
1FFF80
1FFE80
1FF000
0FF000
0FFFF8
0FFFF8
0FFFFC
0FFFFC
0FFFFC
0FFFFC
0FFFFE
0FFFFE
0FFFFE
07FFFC
07FFC0
07FC00
038000
ENDCHAR
STARTCHAR 011C
ENCODING 284
SWIDTH 500 0
DWIDTH 25 0
BBX 23 42 1 0
BITMAP
001E00
007F00
00FF80
01FFE0
03FFF0
07F3F0
07E1F0
0000C0
000000
007FC0
00FFF0
01FFF8
03FFFC
07FFFC
07FFFE
0FFFFC
1FF9F8
1FE000
1FC000
3F8000
3F8000
3F0000
3F0000
7F00FE
7F07FE
7F0FFE
7F07FE
FF07FE
FF07FE
FF07FE
FF07FE
FF87FE
FFFFFE
FFFFFE
FFFFFE
FFFFFE
FFFFFC
7FFFF8
7FFFE0
3FFF80
1FFE00
07F800
ENDCHAR
STARTCHAR 011D
ENCODING 285
SWIDTH 500 0
DWIDTH 25 0
BBX 23 42 1 0
BITMAP
001E00
007F00
00FF80
01FFE0
03FFF0
07F3F0
07E1F0
0000C0
000000
007FC0
00FFF0
01FFF8
03FFFC
07FFFC
07FFFE
0FFFFC
1FF9F8
1FE000
1FC000
3F8000
3F8000
3F0000
3F0000
7F00FE
7F07FE
7F0FFE
7F07FE
FF07FE
FF07FE
FF07FE
FF07FE
FF87FE
FFFFFE
FFFFFE
FFFFFE
FFFFFE
FFFFFC
7FFFF8
7FFFE0
3FFF80
1FFE00
07F800
ENDCHAR
STARTCHAR 011E
ENCODING 286
SWIDTH 500 0
DWIDTH 25 0
BBX 23 42 1 0
BITMAP
0780F0
07C1F0
03E3F0
03FFE0
03FFE0
01FFC0
007F80
001C00
000000
007FC0
00FFF0
01FFF8
03FFFC
07FFFC
07FFFE
0FFFFC
1FF9F8
1FE000
1FC000
3F8000
3F8000
3F0000
3F0000
7F00FE
7F07FE
7F0FFE
7F07FE
FF07FE
FF07FE
FF07FE
FF07FE
FF87FE
FFFFFE
FFFFFE
FFFFFE
FFFFFE
FFFFFC
7FFFF8
7FFFE0
3FFF80
1FFE00
07F800
ENDCHAR
STARTCHAR 011F
ENCODING 287
SWIDTH 500 0
DWIDTH 25 0
BBX 23 42 1 0
BITMAP
0780F0
07C1F0
03E3F0
03FFE0
03FFE0
01FFC0
007F80
001C00
000000
007FC0
00FFF0
01FFF8
03FFFC
07FFFC
07FFFE
0FFFFC
1FF9F8
1FE000
1FC000
3F8000
3F8000
3F0000
3F0000
7F00FE
7F07FE
7F0FFE
7F07FE
FF07FE
FF07FE
FF07FE
FF07FE
FF87FE
FFFFFE
FFFFFE
FFFFFE
FFFFFE
FFFFFC
7FFFF8
7FFFE0
3FFF80
1FFE00
07F800
ENDCHAR
STARTCHAR 0120
ENCODING 288
SWIDTH 500 0
DWIDTH 25 0
BBX 23 39 1 0
BITMAP
003E00
003E00
003E00
003E00
001C00
000000
007FC0
00FFF0
01FFF8
03FFFC
07FFFC
07FFFE
0FFFFC
1FF9F8
1FE000
1FC000
3F8000
3F8000
3F0000
3F0000
7F00FE
7F07FE
7F0FFE
7F07FE
FF07FE
FF07FE
FF07FE
FF07FE
FF87FE
FFFFFE
FFFFFE
FFFFFE
FFFFFE
FFFFFC
7FFFF8
7FFFE0
3FFF80
1FFE00
07F800
ENDCHAR
STARTCHAR 0121
ENCODING 289
SWIDTH 500 0
DWIDTH 25 0
BBX 23 39 1 0
BITMAP
003E00
003E00
003E00
003E00
001C00
000000
007FC0
00FFF0
01FFF8
03FFFC
07FFFC
07FFFE
0FFFFC
1FF9F8
1FE000
1FC000
3F8000
3F8000
3F0000
3F0000
7F00FE
7F07FE
7F0FFE
7F07FE
FF07FE
FF07FE
FF07FE
FF07FE
FF87FE
FFFFFE
FFFFFE
FFFFFE
FFFFFE
FFFFFC
7FFFF8
7FFFE0
3FFF80
1FFE00
07F800
ENDCHAR
STARTCHAR 0122
ENCODING 290
SWIDTH 500 0
DWIDTH 25 0
BBX 23 42 1 -8
BITMAP
007FC0
00FFF0
01FFF8
03FFFC
07FFFC
07FFFE
0FFFFC
1FF9F8
1FE000
1FC000
3F8000
3F8000
3F0000
3F0000
7F00FE
7F07FE
7F0FFE
7F07FE
FF07FE
FF07FE
FF07FE
FF07FE
FF87FE
FFFFFE
FFFFFE
FFFFFE
FFFFFE
FFFFFC
7FFFF8
7FFFE0
3FFF80
1FFE00
07F800
000000
000000
07F000
07F000
07F000
07F000
07E000
07E000
07C000
ENDCHAR
STARTCHAR 0123
ENCODING 291
SWIDTH 500 0
DWIDTH 25 0
BBX 23 42 1 -8
BITMAP
007FC0
00FFF0
01FFF8
03FFFC
07FFFC
07FFFE
0FFFFC
1FF9F8
1FE000
1FC000
3F8000
3F8000
3F0000
3F0000
7F00FE
7F07FE
7F0FFE
7F07FE
FF07FE
FF07FE
FF07FE
FF07FE
FF87FE
FFFFFE
FFFFFE
FFFFFE
FFFFFE
FFFFFC
7FFFF8
7FFFE0
3FFF80
1FFE00
07F800
000000
000000
07F000
07F000
07F000
07F000
07E000
07E000
07C000
ENDCHAR
STARTCHAR 0124
ENCODING 292
SWIDTH 560 0
DWIDTH 28 0
BBX 26 42 1 1
BITMAP
0001E000
0007F000
000FF800
001FFC00
003FFE00
007F3F00
007E1F00
00000800
00000000
00F80000
0FFC1FC0
1FF83FC0
1FF83FC0
1FFC7FC0
1FF83FC0
1FF83FC0
1FF87FC0
1FF87FC0
1FF87FC0
1FF87FC0
1FF87FC0
1FF8FFC0
3FFFFFC0
3FFFFF80
3FFFFF80
3FFFFF80
3FFFFF80
3FFFFF80
3FFFFFC0
3FFFFFC0
3FFFFFC0
3FF7FFC0
7FF0FFC0
7FF0FFC0
7FF0FF80
7FF0FF80
7FF0FF80
7FF1FF80
7FF1FF80
7FF0FF80
FFF0FF80
FFF1F000
ENDCHAR
STARTCHAR 0125
ENCODING 293
SWIDTH 560 0
DWIDTH 28 0
BBX 26 42 1 1
BITMAP
0001E000
0007F000
000FF800
001FFC00
003FFE00
007F3F00
007E1F00
00000800
00000000
00F80000
0FFC1FC0
1FF83FC0
1FF83FC0
1FFC7FC0
1FF83FC0
1FF83FC0
1FF87FC0
1FF87FC0
1FF87FC0
1FF87FC0
1FF87FC0
1FF8FFC0
3FFFFFC0
3FFFFF80
3FFFFF80
3FFFFF80
3FFFFF80
3FFFFF80
3FFFFFC0
3FFFFFC0
3FFFFFC0
3FF7FFC0
7FF0FFC0
7FF0FFC0
7FF0FF80
7FF0FF80
7FF0FF80
7FF1FF80
7FF1FF80
7FF0FF80
FFF0FF80
FFF1F000
ENDCHAR
STARTCHAR 0126
ENCODING 294
SWIDTH 580 0
DWIDTH 29 0
BBX 28 33 1 1
BITMAP
01F80000
1FFC1FC0
1FF83FC0
1FF8FFC0
FFFFFFE0
FFFFFFF0
FFFFFFF0
FFFFFFF0
FFFFFFF0
FFFFFFF0
7FF87FC0
1FF87FC0
1FF8FFC0
3FFFFFC0
3FFFFF80
3FFFFF80
3FFFFF80
3FFFFF80
3FFFFF80
3FFFFFC0
3FFFFFC0
3FFFFFC0
3FF7FFC0
7FF0FFC0
7FF0FFC0
7FF0FF80
7FF0FF80
7FF0FF80
7FF1FF80
7FF1FF80
7FF0FF80
FFF0FF80
FFF1F000
ENDCHAR
STARTCHAR 0127
ENCODING 295
SWIDTH 580 0
DWIDTH 29 0
BBX 28 33 1 1
BITMAP
01F80000
1FFC1FC0
1FF83FC0
1FF8FFC0
FFFFFFE0
FFFFFFF0
FFFFFFF0
FFFFFFF0
FFFFFFF0
FFFFFFF0
7FF87FC0
1FF87FC0
1FF8FFC0
3FFFFFC0
3FFFFF80
3FFFFF80
3FFFFF80
3FFFFF80
3FFFFF80
3FFFFFC0
3FFFFFC0
3FFFFFC0
3FF7FFC0
7FF0FFC0
7FF0FFC0
7FF0FF80
7FF0FF80
7FF0FF80
7FF1FF80
7FF1FF80
7FF0FF80
FFF0FF80
FFF1F000
ENDCHAR
STARTCHAR 0128
ENCODING 296
SWIDTH 320 0
DWIDTH 16 0
BBX 17 43 1 0
BITMAP
070F80
0F8F80
1FFF80
1FFF80
1FFF80
1FFF00
3E7E00
3C0800
000000
07F000
0FFE00
1FFE00
0FFC00
0FFC00
0FFC00
1FFC00
1FFC00
1FFC00
1FF800
1FF800
1FF800
1FF800
1FF800
3FF800
3FF800
3FF800
3FF800
3FF800
3FF800
3FF800
3FF800
3FF800
3FF800
3FF800
3FF800
3FF800
3FF800
3FF000
7FF000
7FF000
7FF000
FFE000
F80000
ENDCHAR
STARTCHAR 0129
ENCODING 297
SWIDTH 320 0
DWIDTH 16 0
BBX 17 43 1 0
BITMAP
070F80
0F8F80
1FFF80
1FFF80
1FFF80
1FFF00
3E7E00
3C0800
000000
07F000
0FFE00
1FFE00
0FFC00
0FFC00
0FFC00
1FFC00
1FFC00
1FFC00
1FF800
1FF800
1FF800
1FF800
1FF800
3FF800
3FF800
3FF800
3FF800
3FF800
3FF800
3FF800
3FF800
3FF800
3FF800
3FF800
3FF800
3FF800
3FF800
3FF000
7FF000
7FF000
7FF000
FFE000
F80000
ENDCHAR
STARTCHAR 012A
ENCODING 298
SWIDTH 320 0
DWIDTH 16 0
BBX 17 40 1 0
BITMAP
3FFF80
3FFF80
3FFF80
3FFF80
080000
000000
07F000
0FFE00
1FFE00
0FFC00
0FFC00
0FFC00
1FFC00
1FFC00
1FFC00
1FF800
1FF800
1FF800
1FF800
1FF800
3FF800
3FF800
3FF800
3FF800
3FF800
3FF800
3FF800
3FF800
3FF800
3FF800
3FF800
3FF800
3FF800
3FF800
3FF000
7FF000
7FF000
7FF000
FFE000
F80000
ENDCHAR
STARTCHAR 012B
ENCODING 299
SWIDTH 320 0
DWIDTH 16 0
BBX 17 40 1 0
BITMAP
3FFF80
3FFF80
3FFF80
3FFF80
080000
000000
07F000
0FFE00
1FFE00
0FFC00
0FFC00
0FFC00
1FFC00
1FFC00
1FFC00
1FF800
1FF800
1FF800
1FF800
1FF800
3FF800
3FF800
3FF800
3FF800
3FF800
3FF800
3FF800
3FF800
3FF800
3FF800
3FF800
3FF800
3FF800
3FF800
3FF000
7FF000
7FF000
7FF000
FFE000
F80000
ENDCHAR
STARTCHAR 012C
ENCODING 300
SWIDTH 320 0
DWIDTH 16 0
BBX 17 43 1 0
BITMAP
3C0780
3E0F80
1F1F80
1FFF00
0FFF00
0FFE00
03FC00
00E000
000000
07F000
0FFE00
1FFE00
0FFC00
0FFC00
0FFC00
1FFC00
1FFC00
1FFC00
1FF800
1FF800
1FF800
1FF800
1FF800
3FF800
3FF800
3FF800
3FF800
3FF800
3FF800
3FF800
3FF800
3FF800
3FF800
3FF800
3FF800
3FF800
3FF800
3FF000
7FF000
7FF000
7FF000
FFE000
F80000
ENDCHAR
STARTCHAR 012D
ENCODING 301
SWIDTH 320 0
DWIDTH 16 0
BBX 17 43 1 0
BITMAP
3C0780
3E0F80
1F1F80
1FFF00
0FFF00
0FFE00
03FC00
00E000
000000
07F000
0FFE00
1FFE00
0FFC00
0FFC00
0FFC00
1FFC00
1FFC00
1FFC00
1FF800
1FF800
1FF800
1FF800
1FF800
3FF800
3FF800
3FF800
3FF800
3FF800
3FF800
3FF800
3FF800
3FF800
3FF800
3FF800
3FF800
3FF800
3FF800
3FF000
7FF000
7FF000
7FF000
FFE000
F80000
ENDCHAR
STARTCHAR 012E
ENCODING 302
SWIDTH 320 0
DWIDTH 16 0
BBX 15 42 1 -8
BITMAP
07F0
0FFE
1FFE
0FFC
0FFC
0FFC
1FFC
1FFC
1FFC
1FF8
1FF8
1FF8
1FF8
1FF8
3FF8
3FF8
3FF8
3FF8
3FF8
3FF8
3FF8
3FF8
3FF8
3FF8
3FF8
3FF8
3FF8
3FF8
3FF0
7FF0
7FF0
7FF0
FFE0
FF00
0F00
1E00
3E00
3E00
3F7E
3FFE
3FFE
1FFE
ENDCHAR
STARTCHAR 012F
ENCODING 303
SWIDTH 320 0
DWIDTH 16 0
BBX 15 42 1 -8
BITMAP
07F0
0FFE
1FFE
0FFC
0FFC
0FFC
1FFC
1FFC
1FFC
1FF8
1FF8
1FF8
1FF8
1FF8
3FF8
3FF8
3FF8
3FF8
3FF8
3FF8
3FF8
3FF8
3FF8
3FF8
3FF8
3FF8
3FF8
3FF8
3FF0
7FF0
7FF0
7FF0
FFE0
FF00
0F00
1E00
3E00
3E00
3F7E
3FFE
3FFE
1FFE
ENDCHAR
STARTCHAR 0130
ENCODING 304
SWIDTH 320 0
DWIDTH 16 0
BBX 15 41 1 0
BITMAP
0040
01F0
01F0
01F0
01F0
0060
0000
07F0
0FFE
1FFE
0FFC
0FFC
0FFC
1FFC
1FFC
1FFC
1FF8
1FF8
1FF8
1FF8
1FF8
3FF8
3FF8
3FF8
3FF8
3FF8
3FF8
3FF8
3FF8
3FF8
3FF8
3FF8
3FF8
3FF8
3FF8
3FF0
7FF0
7FF0
7FF0
FFE0
F800
ENDCHAR
STARTCHAR 0131
ENCODING 305
SWIDTH 320 0
DWIDTH 16 0
BBX 15 41 1 0
BITMAP
0040
01F0
01F0
01F0
01F0
0060
0000
07F0
0FFE
1FFE
0FFC
0FFC
0FFC
1FFC
1FFC
1FFC
1FF8
1FF8
1FF8
1FF8
1FF8
3FF8
3FF8
3FF8
3FF8
3FF8
3FF8
3FF8
3FF8
3FF8
3FF8
3FF8
3FF8
3FF8
3FF8
3FF0
7FF0
7FF0
7FF0
FFE0
F800
ENDCHAR
STARTCHAR 0132
ENCODING 306
SWIDTH 600 0
DWIDTH 30 0
BBX 29 34 1 0
BITMAP
0FC00E60
1FF01FF0
1FF01FF0
1FE01FF0
1FE01FF0
1FE01FF0
1FE03FF0
1FE03FF0
3FE03FF0
3FE03FF0
3FE03FF0
3FE03FF0
3FE03FF0
3FE03FF0
3FC03FF8
3FC03FF8
3FC03FF8
3FC01FF8
3FC01FF8
3FC01FF0
3FC01FF0
3FC00FF0
3FC00FF0
7FCF8FF0
7FCFCFF0
7FDFCFF0
7FDFEFE0
7FEFFFE0
7FCFFFE0
7FC7FFC0
7FC7FF80
7FC3FF80
FF01FE00
F0007E00
ENDCHAR
STARTCHAR 0133
ENCODING 307
SWIDTH 600 0
DWIDTH 30 0
BBX 29 34 1 0
BITMAP
0FC00E60
1FF01FF0
1FF01FF0
1FE01FF0
1FE01FF0
1FE01FF0
1FE03FF0
1FE03FF0
3FE03FF0
3FE03FF0
3FE03FF0
3FE03FF0
3FE03FF0
3FE03FF0
3FC03FF8
3FC03FF8
3FC03FF8
3FC01FF8
3FC01FF8
3FC01FF0
3FC01FF0
3FC00FF0
3FC00FF0
7FCF8FF0
7FCFCFF0
7FDFCFF0
7FDFEFE0
7FEFFFE0
7FCFFFE0
7FC7FFC0
7FC7FF80
7FC3FF80
FF01FE00
F0007E00
ENDCHAR
STARTCHAR 0134
ENCODING 308
SWIDTH 460 0
DWIDTH 23 0
BBX 22 44 1 0
BITMAP
000200
000F80
001FC0
007FF0
007FF8
00FFFC
01F8FC
01F030
00C000
000000
003C70
003FF0
007FF0
007FF8
007FF8
007FF8
007FF8
00FFF8
00FFF8
00FFF8
00FFF8
00FFF8
00FFF8
00FFF8
00FFF8
00FFF8
00FFF8
007FF8
007FF8
007FF8
003FF8
003FF8
003FF8
FE1FF8
FF1FF0
FFBFF0
FFBFF0
FFFFE0
FFFFE0
7FFFC0
3FFF80
1FFF00
0FFE00
01FC00
ENDCHAR
STARTCHAR 0135
ENCODING 309
SWIDTH 460 0
DWIDTH 23 0
BBX 22 44 1 0
BITMAP
000200
000F80
001FC0
007FF0
007FF8
00FFFC
01F8FC
01F030
00C000
000000
003C70
003FF0
007FF0
007FF8
007FF8
007FF8
007FF8
00FFF8
00FFF8
00FFF8
00FFF8
00FFF8
00FFF8
00FFF8
00FFF8
00FFF8
00FFF8
007FF8
007FF8
007FF8
003FF8
003FF8
003FF8
FE1FF8
FF1FF0
FFBFF0
FFBFF0
FFFFE0
FFFFE0
7FFFC0
3FFF80
1FFF00
0FFE00
01FC00
ENDCHAR
STARTCHAR 0136
ENCODING 310
SWIDTH 540 0
DWIDTH 27 0
BBX 26 43 1 -8
BITMAP
00000800
FFF81C00
FFF83C00
7FF87F00
7FF8FFC0
7FF8FF80
FFF9FF00
FFF9FF00
FFFBFE00
FFFBFC00
FFFFF800
FFFFF800
FFFFF000
FFFFF000
FFFFE000
FFFFE000
FFFFC000
FFFF8000
FFFF0000
FFFF8000
FFFFC000
FFFFE000
FFFFF000
FFFFF800
FFFFF800
FFFFFC00
FFFBFE00
FFF9FF00
FFF8FF00
FFF0FF80
FFF87F80
FFF87FC0
FFF83FC0
FFF83C00
00E03800
00000000
003F8000
003F8000
003F8000
003F8000
003F0000
007E0000
003E0000
ENDCHAR
STARTCHAR 0137
ENCODING 311
SWIDTH 540 0
DWIDTH 27 0
BBX 26 43 1 -8
BITMAP
00000800
FFF81C00
FFF83C00
7FF87F00
7FF8FFC0
7FF8FF80
FFF9FF00
FFF9FF00
FFFBFE00
FFFBFC00
FFFFF800
FFFFF800
FFFFF000
FFFFF000
FFFFE000
FFFFE000
FFFFC000
FFFF8000
FFFF0000
FFFF8000
FFFFC000
FFFFE000
FFFFF000
FFFFF800
FFFFF800
FFFFFC00
FFFBFE00
FFF9FF00
FFF8FF00
FFF0FF80
FFF87F80
FFF87FC0
FFF83FC0
FFF83C00
00E03800
00000000
003F8000
003F8000
003F8000
003F8000
003F0000
007E0000
003E0000
ENDCHAR
STARTCHAR 0138
ENCODING 312
SWIDTH 520 0
DWIDTH 26 0
BBX 25 28 1 -1
BITMAP
00183000
FFF87800
7FF8FE00
7FF9FF00
7FF9FF00
FFFBFE00
FFFBFC00
FFFFF800
FFFFF000
FFFFE000
FFFFE000
FFFFC000
FFFF8000
FFFF8000
FFFE0000
FFFF8000
FFFFC000
FFFFE000
FFFFF000
FFFFF800
FFFFFC00
FFF3FE00
FFF1FE00
FFF0FF00
FFF0FF00
FFF87F80
FFF07800
00003000
ENDCHAR
STARTCHAR 0139
ENCODING 313
SWIDTH 500 0
DWIDTH 25 0
BBX 24 44 1 -1
BITMAP
0007E0
000FE0
000FC0
001F80
003F00
003F00
003E00
000C00
000000
00FF80
07FF80
0FFF80
0FFF80
0FFF80
0FFF80
0FFF00
0FFF00
1FFF00
1FFF00
1FFF00
1FFF00
1FFE00
1FFE00
1FFE00
1FFE00
1FFE00
3FFE00
3FFC00
3FFC00
3FFC00
3FFC00
3FFC00
7FFC00
7FFFFE
7FFFFE
7FFFFE
7FFFFE
7FFFFE
7FFFFE
7FFFFE
7FFFFF
7FFFF0
7FE000
E00000
ENDCHAR
STARTCHAR 013A
ENCODING 314
SWIDTH 500 0
DWIDTH 25 0
BBX 24 44 1 -1
BITMAP
0007E0
000FE0
000FC0
001F80
003F00
003F00
003E00
000C00
000000
00FF80
07FF80
0FFF80
0FFF80
0FFF80
0FFF80
0FFF00
0FFF00
1FFF00
1FFF00
1FFF00
1FFF00
1FFE00
1FFE00
1FFE00
1FFE00
1FFE00
3FFE00
3FFC00
3FFC00
3FFC00
3FFC00
3FFC00
7FFC00
7FFFFE
7FFFFE
7FFFFE
7FFFFE
7FFFFE
7FFFFE
7FFFFE
7FFFFF
7FFFF0
7FE000
E00000
ENDCHAR
STARTCHAR 013B
ENCODING 315
SWIDTH 500 0
DWIDTH 25 0
BBX 24 42 1 -8
BITMAP
00FF80
07FF80
0FFF80
0FFF80
0FFF80
0FFF80
0FFF00
0FFF00
1FFF00
1FFF00
1FFF00
1FFF00
1FFE00
1FFE00
1FFE00
1FFE00
1FFE00
3FFE00
3FFC00
3FFC00
3FFC00
3FFC00
3FFC00
7FFC00
7FFFFE
7FFFFE
7FFFFE
7FFFFE
7FFFFE
7FFFFE
7FFFFE
7FFFFF
7FFFF0
7FE000
E00000
00FE00
00FE00
00FE00
00FC00
01FC00
01F800
00F000
ENDCHAR
STARTCHAR 013C
ENCODING 316
SWIDTH 500 0
DWIDTH 25 0
BBX 24 42 1 -8
BITMAP
00FF80
07FF80
0FFF80
0FFF80
0FFF80
0FFF80
0FFF00
0FFF00
1FFF00
1FFF00
1FFF00
1FFF00
1FFE00
1FFE00
1FFE00
1FFE00
1FFE00
3FFE00
3FFC00
3FFC00
3FFC00
3FFC00
3FFC00
7FFC00
7FFFFE
7FFFFE
7FFFFE
7FFFFE
7FFFFE
7FFFFE
7FFFFE
7FFFFF
7FFFF0
7FE000
E00000
00FE00
00FE00
00FE00
00FC00
01FC00
01F800
00F000
ENDCHAR
STARTCHAR 013D
ENCODING 317
SWIDTH 500 0
DWIDTH 25 0
BBX 24 37 1 -1
BITMAP
00000C
00001F
00FF9F
07FF9F
0FFF9F
0FFF9F
0FFFBF
0FFFBE
0FFF3E
0FFF3E
1FFF3C
1FFF1C
1FFF00
1FFF00
1FFE00
1FFE00
1FFE00
1FFE00
1FFE00
3FFE00
3FFC00
3FFC00
3FFC00
3FFC00
3FFC00
7FFC00
7FFFFE
7FFFFE
7FFFFE
7FFFFE
7FFFFE
7FFFFE
7FFFFE
7FFFFF
7FFFF0
7FE000
E00000
ENDCHAR
STARTCHAR 013E
ENCODING 318
SWIDTH 500 0
DWIDTH 25 0
BBX 24 37 1 -1
BITMAP
00000C
00001F
00FF9F
07FF9F
0FFF9F
0FFF9F
0FFFBF
0FFFBE
0FFF3E
0FFF3E
1FFF3C
1FFF1C
1FFF00
1FFF00
1FFE00
1FFE00
1FFE00
1FFE00
1FFE00
3FFE00
3FFC00
3FFC00
3FFC00
3FFC00
3FFC00
7FFC00
7FFFFE
7FFFFE
7FFFFE
7FFFFE
7FFFFE
7FFFFE
7FFFFE
7FFFFF
7FFFF0
7FE000
E00000
ENDCHAR
STARTCHAR 013F
ENCODING 319
SWIDTH 500 0
DWIDTH 25 0
BBX 24 35 1 -1
BITMAP
00FF80
07FF80
0FFF80
0FFF80
0FFF80
0FFF80
0FFF00
0FFF00
1FFF00
1FFF00
1FFF00
1FFF00
1FFE00
1FFE00
1FFE70
1FFEF8
1FFEF8
3FFEF8
3FFCF8
3FFC00
3FFC00
3FFC00
3FFC00
7FFC00
7FFFFE
7FFFFE
7FFFFE
7FFFFE
7FFFFE
7FFFFE
7FFFFE
7FFFFF
7FFFF0
7FE000
E00000
ENDCHAR
STARTCHAR 0140
ENCODING 320
SWIDTH 500 0
DWIDTH 25 0
BBX 24 35 1 -1
BITMAP
00FF80
07FF80
0FFF80
0FFF80
0FFF80
0FFF80
0FFF00
0FFF00
1FFF00
1FFF00
1FFF00
1FFF00
1FFE00
1FFE00
1FFE70
1FFEF8
1FFEF8
3FFEF8
3FFCF8
3FFC00
3FFC00
3FFC00
3FFC00
7FFC00
7FFFFE
7FFFFE
7FFFFE
7FFFFE
7FFFFE
7FFFFE
7FFFFE
7FFFFF
7FFFF0
7FE000
E00000
ENDCHAR
STARTCHAR 0141
ENCODING 321
SWIDTH 540 0
DWIDTH 27 0
BBX 26 35 0 -1
BITMAP
001FF000
00FFF000
01FFF000
01FFE000
03FFE000
03FFE200
03FFEF00
03FFFF80
03FFFFC0
03FFFFC0
03FFFFC0
03FFFF80
03FFFF00
03FFFC00
03FFF800
07FFF000
07FFC000
07FF8000
0FFF8000
1FFF8000
7FFF8000
FFFF0000
FFFF0000
FFFF8000
FFFFFFC0
7FFFFF80
7FFFFF80
6FFFFFC0
0FFFFFC0
0FFFFFC0
0FFFFFC0
0FFFFFC0
0FFFFC00
1FF80000
38000000
ENDCHAR
STARTCHAR 0142
ENCODING 322
SWIDTH 540 0
DWIDTH 27 0
BBX 26 35 0 -1
BITMAP
001FF000
00FFF000
01FFF000
01FFE000
03FFE000
03FFE200
03FFEF00
03FFFF80
03FFFFC0
03FFFFC0
03FFFFC0
03FFFF80
03FFFF00
03FFFC00
03FFF800
07FFF000
07FFC000
07FF8000
0FFF8000
1FFF8000
7FFF8000
FFFF0000
FFFF0000
FFFF8000
FFFFFFC0
7FFFFF80
7FFFFF80
6FFFFFC0
0FFFFFC0
0FFFFFC0
0FFFFFC0
0FFFFFC0
0FFFFC00
1FF80000
38000000
ENDCHAR
STARTCHAR 0143
ENCODING 323
SWIDTH 560 0
DWIDTH 28 0
BBX 27 43 1 0
BITMAP
00007E00
0000FE00
0000FC00
0001F800
0003F000
0003F000
0003E000
00004000
00000000
00000000
0FF01F80
1FF87FC0
1FF87FE0
1FF87FC0
1FF87FC0
3FF87FC0
3FF87FC0
3FF87FC0
3FFC7FC0
3FFC7FC0
3FFC7FC0
3FFE7F80
7FFE7F80
7FFEFF80
7FFEFF80
7FFFFF80
7FFFFF80
7FFFFF80
7FFFFF80
7FFFFF80
7FEFFF80
7FEFFF80
7FCFFF80
7FC7FF80
7FC7FF80
FFC7FF00
FFC3FF00
FFC3FF00
FFC3FF00
FFC3FF00
FFC3FF00
FF83FE00
F0000000
ENDCHAR
STARTCHAR 0144
ENCODING 324
SWIDTH 560 0
DWIDTH 28 0
BBX 27 43 1 0
BITMAP
00007E00
0000FE00
0000FC00
0001F800
0003F000
0003F000
0003E000
00004000
00000000
00000000
0FF01F80
1FF87FC0
1FF87FE0
1FF87FC0
1FF87FC0
3FF87FC0
3FF87FC0
3FF87FC0
3FFC7FC0
3FFC7FC0
3FFC7FC0
3FFE7F80
7FFE7F80
7FFEFF80
7FFEFF80
7FFFFF80
7FFFFF80
7FFFFF80
7FFFFF80
7FFFFF80
7FEFFF80
7FEFFF80
7FCFFF80
7FC7FF80
7FC7FF80
FFC7FF00
FFC3FF00
FFC3FF00
FFC3FF00
FFC3FF00
FFC3FF00
FF83FE00
F0000000
ENDCHAR
STARTCHAR 0145
ENCODING 325
SWIDTH 560 0
DWIDTH 28 0
BBX 27 41 1 -8
BITMAP
0FF01F80
1FF87FC0
1FF87FE0
1FF87FC0
1FF87FC0
3FF87FC0
3FF87FC0
3FF87FC0
3FFC7FC0
3FFC7FC0
3FFC7FC0
3FFE7F80
7FFE7F80
7FFEFF80
7FFEFF80
7FFFFF80
7FFFFF80
7FFFFF80
7FFFFF80
7FFFFF80
7FEFFF80
7FEFFF80
7FCFFF80
7FC7FF80
7FC7FF80
FFC7FF00
FFC3FF00
FFC3FF00
FFC3FF00
FFC3FF00
FFC3FF00
FF83FE00
F0000000
00000000
00FE0000
00FE0000
00FE0000
00FC0000
01FC0000
01F80000
00F00000
ENDCHAR
STARTCHAR 0146
ENCODING 326
SWIDTH 560 0
DWIDTH 28 0
BBX 27 41 1 -8
BITMAP
0FF01F80
1FF87FC0
1FF87FE0
1FF87FC0
1FF87FC0
3FF87FC0
3FF87FC0
3FF87FC0
3FFC7FC0
3FFC7FC0
3FFC7FC0
3FFE7F80
7FFE7F80
7FFEFF80
7FFEFF80
7FFFFF80
7FFFFF80
7FFFFF80
7FFFFF80
7FFFFF80
7FEFFF80
7FEFFF80
7FCFFF80
7FC7FF80
7FC7FF80
FFC7FF00
FFC3FF00
FFC3FF00
FFC3FF00
FFC3FF00
FFC3FF00
FF83FE00
F0000000
00000000
00FE0000
00FE0000
00FE0000
00FC0000
01FC0000
01F80000
00F00000
ENDCHAR
STARTCHAR 0147
ENCODING 327
SWIDTH 560 0
DWIDTH 28 0
BBX 27 43 1 0
BITMAP
00300800
00F87E00
00FCFE00
007FFC00
003FF800
001FF000
000FE000
00078000
00000000
00000000
0FF01F80
1FF87FC0
1FF87FE0
1FF87FC0
1FF87FC0
3FF87FC0
3FF87FC0
3FF87FC0
3FFC7FC0
3FFC7FC0
3FFC7FC0
3FFE7F80
7FFE7F80
7FFEFF80
7FFEFF80
7FFFFF80
7FFFFF80
7FFFFF80
7FFFFF80
7FFFFF80
7FEFFF80
7FEFFF80
7FCFFF80
7FC7FF80
7FC7FF80
FFC7FF00
FFC3FF00
FFC3FF00
FFC3FF00
FFC3FF00
FFC3FF00
FF83FE00
F0000000
ENDCHAR
STARTCHAR 0148
ENCODING 328
SWIDTH 560 0
DWIDTH 28 0
BBX 27 43 1 0
BITMAP
00300800
00F87E00
00FCFE00
007FFC00
003FF800
001FF000
000FE000
00078000
00000000
00000000
0FF01F80
1FF87FC0
1FF87FE0
1FF87FC0
1FF87FC0
3FF87FC0
3FF87FC0
3FF87FC0
3FFC7FC0
3FFC7FC0
3FFC7FC0
3FFE7F80
7FFE7F80
7FFEFF80
7FFEFF80
7FFFFF80
7FFFFF80
7FFFFF80
7FFFFF80
7FFFFF80
7FEFFF80
7FEFFF80
7FCFFF80
7FC7FF80
7FC7FF80
FFC7FF00
FFC3FF00
FFC3FF00
FFC3FF00
FFC3FF00
FFC3FF00
FF83FE00
F0000000
ENDCHAR
STARTCHAR 0149
ENCODING 329
SWIDTH 620 0
DWIDTH 31 0
BBX 30 36 1 1
BITMAP
7E000000
7F000000
7F000000
7F3F81F8
7F7FC7FC
7F7FC7FC
7F7FC7FC
7FFFC7FC
FEFFC7FC
FEFFC7FC
FEFFC7F8
FEFFC7F8
FCFFE7F8
FCFFE7F8
FDFFE7F8
79FFE7F8
79FFF7F8
11FFF7F8
01FFF7F8
01FFF7F8
01FFFFF8
01FFFFF0
01FFFFF0
01FF7FF0
01FF7FF0
01FF7FF0
01FF7FF0
01FE3FF0
01FE3FF0
03FE3FF0
03FE1FF0
03FE1FF0
03FE1FF0
03FE1FF0
03FC1FE0
03800000
ENDCHAR
STARTCHAR 014A
ENCODING 330
SWIDTH 540 0
DWIDTH 27 0
BBX 26 41 1 -6
BITMAP
7C000000
FE3FC000
FEFFF000
FFFFF800
FFFFF800
FFFFFC00
FFFFFE00
FFFFFE00
FFFFFF00
FFFFFF00
FFFFFF80
FFFFFF80
FFC1FF80
FF80FF80
FF80FF80
FF80FFC0
FF007FC0
FF007FC0
FF007FC0
FF007FC0
FF007F80
FF007F80
FF007F80
FF007F80
FF007F80
FF007F80
7F007F80
7F007F80
7F007F80
7F007F80
7F007F00
7F007F00
7F00FF00
7F01FF00
0007FF00
001FFF00
001FFE00
001FFE00
001FF800
001FF000
001F8000
ENDCHAR
STARTCHAR 014B
ENCODING 331
SWIDTH 540 0
DWIDTH 27 0
BBX 26 41 1 -6
BITMAP
7C000000
FE3FC000
FEFFF000
FFFFF800
FFFFF800
FFFFFC00
FFFFFE00
FFFFFE00
FFFFFF00
FFFFFF00
FFFFFF80
FFFFFF80
FFC1FF80
FF80FF80
FF80FF80
FF80FFC0
FF007FC0
FF007FC0
FF007FC0
FF007FC0
FF007F80
FF007F80
FF007F80
FF007F80
FF007F80
FF007F80
7F007F80
7F007F80
7F007F80
7F007F80
7F007F00
7F007F00
7F00FF00
7F01FF00
0007FF00
001FFF00
001FFE00
001FFE00
001FF800
001FF000
001F8000
ENDCHAR
STARTCHAR 014C
ENCODING 332
SWIDTH 520 0
DWIDTH 26 0
BBX 25 40 1 0
BITMAP
7FFF0000
7FFF0000
7FFF0000
7FFF0000
00000000
01E00000
01F80000
03FE0000
07FF0000
0FFFC000
0FFFE000
1FFFF000
1FFFF800
1FFFF800
3FFFFC00
3FFFFE00
7FFFFE00
7FFFFE00
7FE3FF00
FFC1FF00
FF81FF00
FF81FF80
FF81FF80
FF81FF80
FF81FF80
FFC1FF80
FFE3FF80
FFFFFF80
7FFFFF80
7FFFFF00
7FFFFF00
7FFFFF00
3FFFFF00
3FFFFE00
1FFFFE00
1FFFFE00
0FFFFC00
07FFF800
01FFF000
007FC000
ENDCHAR
STARTCHAR 014D
ENCODING 333
SWIDTH 520 0
DWIDTH 26 0
BBX 25 40 1 0
BITMAP
7FFF0000
7FFF0000
7FFF0000
7FFF0000
00000000
01E00000
01F80000
03FE0000
07FF0000
0FFFC000
0FFFE000
1FFFF000
1FFFF800
1FFFF800
3FFFFC00
3FFFFE00
7FFFFE00
7FFFFE00
7FE3FF00
FFC1FF00
FF81FF00
FF81FF80
FF81FF80
FF81FF80
FF81FF80
FFC1FF80
FFE3FF80
FFFFFF80
7FFFFF80
7FFFFF00
7FFFFF00
7FFFFF00
3FFFFF00
3FFFFE00
1FFFFE00
1FFFFE00
0FFFFC00
07FFF800
01FFF000
007FC000
ENDCHAR
STARTCHAR 014E
ENCODING 334
SWIDTH 520 0
DWIDTH 26 0
BBX 25 43 1 0
BITMAP
780F0000
3C1F0000
3F7F0000
3FFE0000
1FFC0000
0FF80000
07F00000
00000000
01E00000
01F80000
03FE0000
07FF0000
0FFFC000
0FFFE000
1FFFF000
1FFFF800
1FFFF800
3FFFFC00
3FFFFE00
7FFFFE00
7FFFFE00
7FE3FF00
FFC1FF00
FF81FF00
FF81FF80
FF81FF80
FF81FF80
FF81FF80
FFC1FF80
FFE3FF80
FFFFFF80
7FFFFF80
7FFFFF00
7FFFFF00
7FFFFF00
3FFFFF00
3FFFFE00
1FFFFE00
1FFFFE00
0FFFFC00
07FFF800
01FFF000
007FC000
ENDCHAR
STARTCHAR 014F
ENCODING 335
SWIDTH 520 0
DWIDTH 26 0
BBX 25 43 1 0
BITMAP
780F0000
3C1F0000
3F7F0000
3FFE0000
1FFC0000
0FF80000
07F00000
00000000
01E00000
01F80000
03FE0000
07FF0000
0FFFC000
0FFFE000
1FFFF000
1FFFF800
1FFFF800
3FFFFC00
3FFFFE00
7FFFFE00
7FFFFE00
7FE3FF00
FFC1FF00
FF81FF00
FF81FF80
FF81FF80
FF81FF80
FF81FF80
FFC1FF80
FFE3FF80
FFFFFF80
7FFFFF80
7FFFFF00
7FFFFF00
7FFFFF00
3FFFFF00
3FFFFE00
1FFFFE00
1FFFFE00
0FFFFC00
07FFF800
01FFF000
007FC000
ENDCHAR
STARTCHAR 0150
ENCODING 336
SWIDTH 520 0
DWIDTH 26 0
BBX 25 43 1 0
BITMAP
07F3F800
07F7F800
0FE7F000
0FCFE000
1F8FC000
1F1F8000
3E1F0000
04020000
01E00000
01F80000
03FE0000
07FF0000
0FFFC000
0FFFE000
1FFFF000
1FFFF800
1FFFF800
3FFFFC00
3FFFFE00
7FFFFE00
7FFFFE00
7FE3FF00
FFC1FF00
FF81FF00
FF81FF80
FF81FF80
FF81FF80
FF81FF80
FFC1FF80
FFE3FF80
FFFFFF80
7FFFFF80
7FFFFF00
7FFFFF00
7FFFFF00
3FFFFF00
3FFFFE00
1FFFFE00
1FFFFE00
0FFFFC00
07FFF800
01FFF000
007FC000
ENDCHAR
STARTCHAR 0151
ENCODING 337
SWIDTH 520 0
DWIDTH 26 0
BBX 25 43 1 0
BITMAP
07F3F800
07F7F800
0FE7F000
0FCFE000
1F8FC000
1F1F8000
3E1F0000
04020000
01E00000
01F80000
03FE0000
07FF0000
0FFFC000
0FFFE000
1FFFF000
1FFFF800
1FFFF800
3FFFFC00
3FFFFE00
7FFFFE00
7FFFFE00
7FE3FF00
FFC1FF00
FF81FF00
FF81FF80
FF81FF80
FF81FF80
FF81FF80
FFC1FF80
FFE3FF80
FFFFFF80
7FFFFF80
7FFFFF00
7FFFFF00
7FFFFF00
3FFFFF00
3FFFFE00
1FFFFE00
1FFFFE00
0FFFFC00
07FFF800
01FFF000
007FC000
ENDCHAR
STARTCHAR 0152
ENCODING 338
SWIDTH 720 0
DWIDTH 36 0
BBX 35 36 1 -1
BITMAP
00008E0000
0007FFFC00
001FFFFC00
007FFFFC00
00FFFFFC00
03FFFFF800
07FFFFF800
07FFFFF800
0FFFFFF800
1FFFFFF800
1FFFFFF800
3FFFFE0000
3FFFFC0000
7FFFFE0000
7FC1FE1800
7FC1FFF800
FFC0FFF800
FF80FFF800
FF80FFF800
FFC0FFF800
FFC1FF0000
FFC3FF0000
FFE7FF7F80
FFFFFFFF80
FFFFFFFFC0
7FFFFFFFC0
7FFFFFFFC0
7FFFFFFFC0
7FFFFFFFE0
3FFFFFFFE0
3FFFFFFFE0
3FFFFFFFE0
1FFFFFFE00
07FFFFE000
03FFBE0000
00FC000000
ENDCHAR
STARTCHAR 0153
ENCODING 339
SWIDTH 720 0
DWIDTH 36 0
BBX 35 36 1 -1
BITMAP
00008E0000
0007FFFC00
001FFFFC00
007FFFFC00
00FFFFFC00
03FFFFF800
07FFFFF800
07FFFFF800
0FFFFFF800
1FFFFFF800
1FFFFFF800
3FFFFE0000
3FFFFC0000
7FFFFE0000
7FC1FE1800
7FC1FFF800
FFC0FFF800
FF80FFF800
FF80FFF800
FFC0FFF800
FFC1FF0000
FFC3FF0000
FFE7FF7F80
FFFFFFFF80
FFFFFFFFC0
7FFFFFFFC0
7FFFFFFFC0
7FFFFFFFC0
7FFFFFFFE0
3FFFFFFFE0
3FFFFFFFE0
3FFFFFFFE0
1FFFFFFE00
07FFFFE000
03FFBE0000
00FC000000
ENDCHAR
STARTCHAR 0154
ENCODING 340
SWIDTH 580 0
DWIDTH 29 0
BBX 28 44 1 -1
BITMAP
00FE0000
01FC0000
01F80000
03F80000
07F00000
07E00000
07C00000
00800000
00000000
01FE0000
3FFF8000
FFFFE000
FFFFF800
FFFFFC00
FFF3FC00
FFE07E00
FFE07E00
FFE03E00
FFF03E00
FFF03E00
FFF07E00
FFF0FE00
7FF9FE00
7FFFFE00
7FFFFC00
7FFFF800
7FFFE000
7FFFE000
7FFFF000
7FFFF000
7FFFF800
7FFBFC00
7FFBFC00
7FF9FE00
7FF8FE00
7FF8FF00
7FFC7F80
3FFC7F80
3FFC3FC0
3FFC3FC0
3FFC3FE0
3FFC1FF0
1FFC1F80
0FE00000
ENDCHAR
STARTCHAR 0155
ENCODING 341
SWIDTH 580 0
DWIDTH 29 0
BBX 28 44 1 -1
BITMAP
00FE0000
01FC0000
01F80000
03F80000
07F00000
07E00000
07C00000
00800000
00000000
01FE0000
3FFF8000
FFFFE000
FFFFF800
FFFFFC00
FFF3FC00
FFE07E00
FFE07E00
FFE03E00
FFF03E00
FFF03E00
FFF07E00
FFF0FE00
7FF9FE00
7FFFFE00
7FFFFC00
7FFFF800
7FFFE000
7FFFE000
7FFFF000
7FFFF000
7FFFF800
7FFBFC00
7FFBFC00
7FF9FE00
7FF8FE00
7FF8FF00
7FFC7F80
3FFC7F80
3FFC3FC0
3FFC3FC0
3FFC3FE0
3FFC1FF0
1FFC1F80
0FE00000
ENDCHAR
STARTCHAR 0156
ENCODING 342
SWIDTH 580 0
DWIDTH 29 0
BBX 28 42 1 -8
BITMAP
01FE0000
3FFF8000
FFFFE000
FFFFF800
FFFFFC00
FFF3FC00
FFE07E00
FFE07E00
FFE03E00
FFF03E00
FFF03E00
FFF07E00
FFF0FE00
7FF9FE00
7FFFFE00
7FFFFC00
7FFFF800
7FFFE000
7FFFE000
7FFFF000
7FFFF000
7FFFF800
7FFBFC00
7FFBFC00
7FF9FE00
7FF8FE00
7FF8FF00
7FFC7F80
3FFC7F80
3FFC3FC0
3FFC3FC0
3FFC3FE0
3FFC1FF0
1FFC1F80
0FE00000
000FE000
000FE000
000FE000
000FE000
000FC000
001F8000
000F8000
ENDCHAR
STARTCHAR 0157
ENCODING 343
SWIDTH 580 0
DWIDTH 29 0
BBX 28 42 1 -8
BITMAP
01FE0000
3FFF8000
FFFFE000
FFFFF800
FFFFFC00
FFF3FC00
FFE07E00
FFE07E00
FFE03E00
FFF03E00
FFF03E00
FFF07E00
FFF0FE00
7FF9FE00
7FFFFE00
7FFFFC00
7FFFF800
7FFFE000
7FFFE000
7FFFF000
7FFFF000
7FFFF800
7FFBFC00
7FFBFC00
7FF9FE00
7FF8FE00
7FF8FF00
7FFC7F80
3FFC7F80
3FFC3FC0
3FFC3FC0
3FFC3FE0
3FFC1FF0
1FFC1F80
0FE00000
000FE000
000FE000
000FE000
000FE000
000FC000
001F8000
000F8000
ENDCHAR
STARTCHAR 0158
ENCODING 344
SWIDTH 580 0
DWIDTH 29 0
BBX 28 45 1 -1
BITMAP
00080000
307E0000
F8FE0000
FFFC0000
FFF80000
3FF00000
1FE00000
07C00000
03000000
00000000
01FE0000
3FFF8000
FFFFE000
FFFFF800
FFFFFC00
FFF3FC00
FFE07E00
FFE07E00
FFE03E00
FFF03E00
FFF03E00
FFF07E00
FFF0FE00
7FF9FE00
7FFFFE00
7FFFFC00
7FFFF800
7FFFE000
7FFFE000
7FFFF000
7FFFF000
7FFFF800
7FFBFC00
7FFBFC00
7FF9FE00
7FF8FE00
7FF8FF00
7FFC7F80
3FFC7F80
3FFC3FC0
3FFC3FC0
3FFC3FE0
3FFC1FF0
1FFC1F80
0FE00000
ENDCHAR
STARTCHAR 0159
ENCODING 345
SWIDTH 580 0
DWIDTH 29 0
BBX 28 45 1 -1
BITMAP
00080000
307E0000
F8FE0000
FFFC0000
FFF80000
3FF00000
1FE00000
07C00000
03000000
00000000
01FE0000
3FFF8000
FFFFE000
FFFFF800
FFFFFC00
FFF3FC00
FFE07E00
FFE07E00
FFE03E00
FFF03E00
FFF03E00
FFF07E00
FFF0FE00
7FF9FE00
7FFFFE00
7FFFFC00
7FFFF800
7FFFE000
7FFFE000
7FFFF000
7FFFF000
7FFFF800
7FFBFC00
7FFBFC00
7FF9FE00
7FF8FE00
7FF8FF00
7FFC7F80
3FFC7F80
3FFC3FC0
3FFC3FC0
3FFC3FE0
3FFC1FF0
1FFC1F80
0FE00000
ENDCHAR
STARTCHAR 015A
ENCODING 346
SWIDTH 500 0
DWIDTH 25 0
BBX 23 43 1 -1
BITMAP
0003F8
0007F0
0007E0
000FE0
001FC0
001F80
001F00
000200
000400
01FFFE
07FFFE
0FFFFE
0FFFFC
1FFFFC
1FFFF8
1FFFF8
3FFFF8
3FFFF0
3FFFF0
7FFFE0
7FFFE0
7FC1C0
3FC060
3FF000
3FFC00
1FFF00
0FFFE0
0FFFF0
01FFF8
003FF8
000FFC
0003FC
0007FC
700FFC
FDFFFC
FFFFFC
FFFFFC
FFFFFC
FFFFF8
7FFFF8
3FFFE0
1FFF80
07FE00
ENDCHAR
STARTCHAR 015B
ENCODING 347
SWIDTH 500 0
DWIDTH 25 0
BBX 23 43 1 -1
BITMAP
0003F8
0007F0
0007E0
000FE0
001FC0
001F80
001F00
000200
000400
01FFFE
07FFFE
0FFFFE
0FFFFC
1FFFFC
1FFFF8
1FFFF8
3FFFF8
3FFFF0
3FFFF0
7FFFE0
7FFFE0
7FC1C0
3FC060
3FF000
3FFC00
1FFF00
0FFFE0
0FFFF0
01FFF8
003FF8
000FFC
0003FC
0007FC
700FFC
FDFFFC
FFFFFC
FFFFFC
FFFFFC
FFFFF8
7FFFF8
3FFFE0
1FFF80
07FE00
ENDCHAR
STARTCHAR 015C
ENCODING 348
SWIDTH 500 0
DWIDTH 25 0
BBX 23 43 1 -1
BITMAP
000E00
003F80
00FFC0
01FFE0
03FFF0
03FBF8
03E0F8
000040
000400
01FFFE
07FFFE
0FFFFE
0FFFFC
1FFFFC
1FFFF8
1FFFF8
3FFFF8
3FFFF0
3FFFF0
7FFFE0
7FFFE0
7FC1C0
3FC060
3FF000
3FFC00
1FFF00
0FFFE0
0FFFF0
01FFF8
003FF8
000FFC
0003FC
0007FC
700FFC
FDFFFC
FFFFFC
FFFFFC
FFFFFC
FFFFF8
7FFFF8
3FFFE0
1FFF80
07FE00
ENDCHAR
STARTCHAR 015D
ENCODING 349
SWIDTH 500 0
DWIDTH 25 0
BBX 23 43 1 -1
BITMAP
000E00
003F80
00FFC0
01FFE0
03FFF0
03FBF8
03E0F8
000040
000400
01FFFE
07FFFE
0FFFFE
0FFFFC
1FFFFC
1FFFF8
1FFFF8
3FFFF8
3FFFF0
3FFFF0
7FFFE0
7FFFE0
7FC1C0
3FC060
3FF000
3FFC00
1FFF00
0FFFE0
0FFFF0
01FFF8
003FF8
000FFC
0003FC
0007FC
700FFC
FDFFFC
FFFFFC
FFFFFC
FFFFFC
FFFFF8
7FFFF8
3FFFE0
1FFF80
07FE00
ENDCHAR
STARTCHAR 015E
ENCODING 350
SWIDTH 500 0
DWIDTH 25 0
BBX 23 43 1 -8
BITMAP
000400
01FFFE
07FFFE
0FFFFE
0FFFFC
1FFFFC
1FFFF8
1FFFF8
3FFFF8
3FFFF0
3FFFF0
7FFFE0
7FFFE0
7FC1C0
3FC060
3FF000
3FFC00
1FFF00
0FFFE0
0FFFF0
01FFF8
003FF8
000FFC
0003FC
0007FC
700FFC
FDFFFC
FFFFFC
FFFFFC
FFFFFC
FFFFF8
7FFFF8
3FFFE0
1FFF80
07FE00
00FC00
00FE00
007F00
001F80
0E0F80
0FFF80
0FFF80
07FF00
ENDCHAR
STARTCHAR 015F
ENCODING 351
SWIDTH 500 0
DWIDTH 25 0
BBX 23 43 1 -8
BITMAP
000400
01FFFE
07FFFE
0FFFFE
0FFFFC
1FFFFC
1FFFF8
1FFFF8
3FFFF8
3FFFF0
3FFFF0
7FFFE0
7FFFE0
7FC1C0
3FC060
3FF000
3FFC00
1FFF00
0FFFE0
0FFFF0
01FFF8
003FF8
000FFC
0003FC
0007FC
700FFC
FDFFFC
FFFFFC
FFFFFC
FFFFFC
FFFFF8
7FFFF8
3FFFE0
1FFF80
07FE00
00FC00
00FE00
007F00
001F80
0E0F80
0FFF80
0FFF80
07FF00
ENDCHAR
STARTCHAR 0160
ENCODING 352
SWIDTH 500 0
DWIDTH 25 0
BBX 23 43 1 -1
BITMAP
03C0F0
03E3F8
03FFF0
01FFE0
00FFC0
007F80
001F00
000C00
000400
01FFFE
07FFFE
0FFFFE
0FFFFC
1FFFFC
1FFFF8
1FFFF8
3FFFF8
3FFFF0
3FFFF0
7FFFE0
7FFFE0
7FC1C0
3FC060
3FF000
3FFC00
1FFF00
0FFFE0
0FFFF0
01FFF8
003FF8
000FFC
0003FC
0007FC
700FFC
FDFFFC
FFFFFC
FFFFFC
FFFFFC
FFFFF8
7FFFF8
3FFFE0
1FFF80
07FE00
ENDCHAR
STARTCHAR 0161
ENCODING 353
SWIDTH 500 0
DWIDTH 25 0
BBX 23 43 1 -1
BITMAP
03C0F0
03E3F8
03FFF0
01FFE0
00FFC0
007F80
001F00
000C00
000400
01FFFE
07FFFE
0FFFFE
0FFFFC
1FFFFC
1FFFF8
1FFFF8
3FFFF8
3FFFF0
3FFFF0
7FFFE0
7FFFE0
7FC1C0
3FC060
3FF000
3FFC00
1FFF00
0FFFE0
0FFFF0
01FFF8
003FF8
000FFC
0003FC
0007FC
700FFC
FDFFFC
FFFFFC
FFFFFC
FFFFFC
FFFFF8
7FFFF8
3FFFE0
1FFF80
07FE00
ENDCHAR
STARTCHAR 0162
ENCODING 354
SWIDTH 560 0
DWIDTH 28 0
BBX 27 42 1 -8
BITMAP
003E0E00
FFFFFF80
FFFFFFC0
FFFFFFC0
FFFFFFE0
FFFFFFE0
FFFFFFE0
FFFFFFE0
FFFFFFE0
FFFFFF40
FFBFF000
F83FE000
003FC000
003FC000
003FC000
003FC000
003FC000
003F8000
003F8000
003FC000
003FC000
003FC000
003F8000
003F8000
003F8000
003F8000
003F8000
003F8000
003F8000
003F8000
003F8000
003F8000
003F8000
003F8000
001F8000
000FC000
0007F000
0001F800
00E1F800
01FFF800
01FFF800
007FF000
ENDCHAR
STARTCHAR 0163
ENCODING 355
SWIDTH 560 0
DWIDTH 28 0
BBX 27 42 1 -8
BITMAP
003E0E00
FFFFFF80
FFFFFFC0
FFFFFFC0
FFFFFFE0
FFFFFFE0
FFFFFFE0
FFFFFFE0
FFFFFFE0
FFFFFF40
FFBFF000
F83FE000
003FC000
003FC000
003FC000
003FC000
003FC000
003F8000
003F8000
003FC000
003FC000
003FC000
003F8000
003F8000
003F8000
003F8000
003F8000
003F8000
003F8000
003F8000
003F8000
003F8000
003F8000
003F8000
001F8000
000FC000
0007F000
0001F800
00E1F800
01FFF800
01FFF800
007FF000
ENDCHAR
STARTCHAR 0164
ENCODING 356
SWIDTH 560 0
DWIDTH 28 0
BBX 27 43 1 0
BITMAP
01E07800
03F1F800
01FFF800
01FFF000
00FFE000
003FC000
001F0000
00060000
00000000
003E0E00
FFFFFF80
FFFFFFC0
FFFFFFC0
FFFFFFE0
FFFFFFE0
FFFFFFE0
FFFFFFE0
FFFFFFE0
FFFFFF40
FFBFF000
F83FE000
003FC000
003FC000
003FC000
003FC000
003FC000
003F8000
003F8000
003FC000
003FC000
003FC000
003F8000
003F8000
003F8000
003F8000
003F8000
003F8000
003F8000
003F8000
003F8000
003F8000
003F8000
003F8000
ENDCHAR
STARTCHAR 0165
ENCODING 357
SWIDTH 560 0
DWIDTH 28 0
BBX 27 43 1 0
BITMAP
01E07800
03F1F800
01FFF800
01FFF000
00FFE000
003FC000
001F0000
00060000
00000000
003E0E00
FFFFFF80
FFFFFFC0
FFFFFFC0
FFFFFFE0
FFFFFFE0
FFFFFFE0
FFFFFFE0
FFFFFFE0
FFFFFF40
FFBFF000
F83FE000
003FC000
003FC000
003FC000
003FC000
003FC000
003F8000
003F8000
003FC000
003FC000
003FC000
003F8000
003F8000
003F8000
003F8000
003F8000
003F8000
003F8000
003F8000
003F8000
003F8000
003F8000
003F8000
ENDCHAR
STARTCHAR 0166
ENCODING 358
SWIDTH 560 0
DWIDTH 28 0
BBX 27 34 1 0
BITMAP
003E0E00
FFFFFF80
FFFFFFC0
FFFFFFC0
FFFFFFE0
FFFFFFE0
FFFFFFE0
FFFFFFE0
FFFFFFE0
FFFFFF40
FFBFF000
F83FE000
003FC000
003FC000
003FC000
003FFF00
1FFFFF80
1FFFFF00
1FFFFF00
1FFFFF00
0FFFFF00
0FFFFF00
003F8000
003F8000
003F8000
003F8000
003F8000
003F8000
003F8000
003F8000
003F8000
003F8000
003F8000
003F8000
ENDCHAR
STARTCHAR 0167
ENCODING 359
SWIDTH 560 0
DWIDTH 28 0
BBX 27 34 1 0
BITMAP
003E0E00
FFFFFF80
FFFFFFC0
FFFFFFC0
FFFFFFE0
FFFFFFE0
FFFFFFE0
FFFFFFE0
FFFFFFE0
FFFFFF40
FFBFF000
F83FE000
003FC000
003FC000
003FC000
003FFF00
1FFFFF80
1FFFFF00
1FFFFF00
1FFFFF00
0FFFFF00
0FFFFF00
003F8000
003F8000
003F8000
003F8000
003F8000
003F8000
003F8000
003F8000
003F8000
003F8000
003F8000
003F8000
ENDCHAR
STARTCHAR 0168
ENCODING 360
SWIDTH 540 0
DWIDTH 27 0
BBX 26 42 1 1
BITMAP
00187C00
007E7C00
00FFFC00
00FFFC00
00FFFC00
00FFF800
00F3F000
00F06000
00000000
1F803F00
1FE07F80
1FC07FC0
3FC03F80
3FC03F80
3FC03F80
3FC03F80
7FC03F80
7F803F80
7F807F80
7F807F80
7F807F80
FF807F80
FF807F80
FF807FC0
FF807FC0
FFC0FFC0
FFC0FFC0
FFE0FF80
FFFFFF80
FFFFFF80
FFFFFF00
FFFFFF00
7FFFFF00
7FFFFE00
7FFFFE00
3FFFFC00
3FFFFC00
1FFFF800
1FFFF000
0FFFE000
03FFC000
00FF8000
ENDCHAR
STARTCHAR 0169
ENCODING 361
SWIDTH 540 0
DWIDTH 27 0
BBX 26 42 1 1
BITMAP
00187C00
007E7C00
00FFFC00
00FFFC00
00FFFC00
00FFF800
00F3F000
00F06000
00000000
1F803F00
1FE07F80
1FC07FC0
3FC03F80
3FC03F80
3FC03F80
3FC03F80
7FC03F80
7F803F80
7F807F80
7F807F80
7F807F80
FF807F80
FF807F80
FF807FC0
FF807FC0
FFC0FFC0
FFC0FFC0
FFE0FF80
FFFFFF80
FFFFFF80
FFFFFF00
FFFFFF00
7FFFFF00
7FFFFE00
7FFFFE00
3FFFFC00
3FFFFC00
1FFFF800
1FFFF000
0FFFE000
03FFC000
00FF8000
ENDCHAR
STARTCHAR 016A
ENCODING 362
SWIDTH 540 0
DWIDTH 27 0
BBX 26 39 1 1
BITMAP
01FFFC00
01FFFC00
01FFFC00
01FFFC00
00000000
00000000
1F803F00
1FE07F80
1FC07FC0
3FC03F80
3FC03F80
3FC03F80
3FC03F80
7FC03F80
7F803F80
7F807F80
7F807F80
7F807F80
FF807F80
FF807F80
FF807FC0
FF807FC0
FFC0FFC0
FFC0FFC0
FFE0FF80
FFFFFF80
FFFFFF80
FFFFFF00
FFFFFF00
7FFFFF00
7FFFFE00
7FFFFE00
3FFFFC00
3FFFFC00
1FFFF800
1FFFF000
0FFFE000
03FFC000
00FF8000
ENDCHAR
STARTCHAR 016B
ENCODING 363
SWIDTH 540 0
DWIDTH 27 0
BBX 26 39 1 1
BITMAP
01FFFC00
01FFFC00
01FFFC00
01FFFC00
00000000
00000000
1F803F00
1FE07F80
1FC07FC0
3FC03F80
3FC03F80
3FC03F80
3FC03F80
7FC03F80
7F803F80
7F807F80
7F807F80
7F807F80
FF807F80
FF807F80
FF807FC0
FF807FC0
FFC0FFC0
FFC0FFC0
FFE0FF80
FFFFFF80
FFFFFF80
FFFFFF00
FFFFFF00
7FFFFF00
7FFFFE00
7FFFFE00
3FFFFC00
3FFFFC00
1FFFF800
1FFFF000
0FFFE000
03FFC000
00FF8000
ENDCHAR
STARTCHAR 016C
ENCODING 364
SWIDTH 540 0
DWIDTH 27 0
BBX 26 42 1 1
BITMAP
00F01E00
00F83C00
00FC7C00
007FFC00
007FF800
003FF800
001FE000
00038000
00000000
1F803F00
1FE07F80
1FC07FC0
3FC03F80
3FC03F80
3FC03F80
3FC03F80
7FC03F80
7F803F80
7F807F80
7F807F80
7F807F80
FF807F80
FF807F80
FF807FC0
FF807FC0
FFC0FFC0
FFC0FFC0
FFE0FF80
FFFFFF80
FFFFFF80
FFFFFF00
FFFFFF00
7FFFFF00
7FFFFE00
7FFFFE00
3FFFFC00
3FFFFC00
1FFFF800
1FFFF000
0FFFE000
03FFC000
00FF8000
ENDCHAR
STARTCHAR 016D
ENCODING 365
SWIDTH 540 0
DWIDTH 27 0
BBX 26 42 1 1
BITMAP
00F01E00
00F83C00
00FC7C00
007FFC00
007FF800
003FF800
001FE000
00038000
00000000
1F803F00
1FE07F80
1FC07FC0
3FC03F80
3FC03F80
3FC03F80
3FC03F80
7FC03F80
7F803F80
7F807F80
7F807F80
7F807F80
FF807F80
FF807F80
FF807FC0
FF807FC0
FFC0FFC0
FFC0FFC0
FFE0FF80
FFFFFF80
FFFFFF80
FFFFFF00
FFFFFF00
7FFFFF00
7FFFFE00
7FFFFE00
3FFFFC00
3FFFFC00
1FFFF800
1FFFF000
0FFFE000
03FFC000
00FF8000
ENDCHAR
STARTCHAR 016E
ENCODING 366
SWIDTH 540 0
DWIDTH 27 0
BBX 26 45 1 1
BITMAP
00030000
001FC000
007FF000
00FFF800
01F0F800
01F07C00
01F07C00
01F07C00
01F8F800
00FFF800
007FF000
001FC000
1F803F00
1FE07F80
1FC07FC0
3FC03F80
3FC03F80
3FC03F80
3FC03F80
7FC03F80
7F803F80
7F807F80
7F807F80
7F807F80
FF807F80
FF807F80
FF807FC0
FF807FC0
FFC0FFC0
FFC0FFC0
FFE0FF80
FFFFFF80
FFFFFF80
FFFFFF00
FFFFFF00
7FFFFF00
7FFFFE00
7FFFFE00
3FFFFC00
3FFFFC00
1FFFF800
1FFFF000
0FFFE000
03FFC000
00FF8000
ENDCHAR
STARTCHAR 016F
ENCODING 367
SWIDTH 540 0
DWIDTH 27 0
BBX 26 45 1 1
BITMAP
00030000
001FC000
007FF000
00FFF800
01F0F800
01F07C00
01F07C00
01F07C00
01F8F800
00FFF800
007FF000
001FC000
1F803F00
1FE07F80
1FC07FC0
3FC03F80
3FC03F80
3FC03F80
3FC03F80
7FC03F80
7F803F80
7F807F80
7F807F80
7F807F80
FF807F80
FF807F80
FF807FC0
FF807FC0
FFC0FFC0
FFC0FFC0
FFE0FF80
FFFFFF80
FFFFFF80
FFFFFF00
FFFFFF00
7FFFFF00
7FFFFE00
7FFFFE00
3FFFFC00
3FFFFC00
1FFFF800
1FFFF000
0FFFE000
03FFC000
00FF8000
ENDCHAR
STARTCHAR 0170
ENCODING 368
SWIDTH 540 0
DWIDTH 27 0
BBX 26 42 1 1
BITMAP
001FCFC0
003F9FC0
003F1F80
007F3F00
00FE7E00
00FC7E00
00F87C00
00101800
00000000
1F803F00
1FE07F80
1FC07FC0
3FC03F80
3FC03F80
3FC03F80
3FC03F80
7FC03F80
7F803F80
7F807F80
7F807F80
7F807F80
FF807F80
FF807F80
FF807FC0
FF807FC0
FFC0FFC0
FFC0FFC0
FFE0FF80
FFFFFF80
FFFFFF80
FFFFFF00
FFFFFF00
7FFFFF00
7FFFFE00
7FFFFE00
3FFFFC00
3FFFFC00
1FFFF800
1FFFF000
0FFFE000
03FFC000
00FF8000
ENDCHAR
STARTCHAR 0171
ENCODING 369
SWIDTH 540 0
DWIDTH 27 0
BBX 26 42 1 1
BITMAP
001FCFC0
003F9FC0
003F1F80
007F3F00
00FE7E00
00FC7E00
00F87C00
00101800
00000000
1F803F00
1FE07F80
1FC07FC0
3FC03F80
3FC03F80
3FC03F80
3FC03F80
7FC03F80
7F803F80
7F807F80
7F807F80
7F807F80
FF807F80
FF807F80
FF807FC0
FF807FC0
FFC0FFC0
FFC0FFC0
FFE0FF80
FFFFFF80
FFFFFF80
FFFFFF00
FFFFFF00
7FFFFF00
7FFFFE00
7FFFFE00
3FFFFC00
3FFFFC00
1FFFF800
1FFFF000
0FFFE000
03FFC000
00FF8000
ENDCHAR
STARTCHAR 0172
ENCODING 370
SWIDTH 540 0
DWIDTH 27 0
BBX 26 42 1 -8
BITMAP
1F803F00
1FE07F80
1FC07FC0
3FC03F80
3FC03F80
3FC03F80
3FC03F80
7FC03F80
7F803F80
7F807F80
7F807F80
7F807F80
FF807F80
FF807F80
FF807FC0
FF807FC0
FFC0FFC0
FFC0FFC0
FFE0FF80
FFFFFF80
FFFFFF80
FFFFFF00
FFFFFF00
7FFFFF00
7FFFFE00
7FFFFE00
3FFFFC00
3FFFFC00
1FFFF800
1FFFF000
0FFFE000
03FFC000
00FF8000
00780000
00F80000
00F00000
01F00000
01F02000
01FFF000
01FFF000
01FFF000
007FF000
ENDCHAR
STARTCHAR 0173
ENCODING 371
SWIDTH 540 0
DWIDTH 27 0
BBX 26 42 1 -8
BITMAP
1F803F00
1FE07F80
1FC07FC0
3FC03F80
3FC03F80
3FC03F80
3FC03F80
7FC03F80
7F803F80
7F807F80
7F807F80
7F807F80
FF807F80
FF807F80
FF807FC0
FF807FC0
FFC0FFC0
FFC0FFC0
FFE0FF80
FFFFFF80
FFFFFF80
FFFFFF00
FFFFFF00
7FFFFF00
7FFFFE00
7FFFFE00
3FFFFC00
3FFFFC00
1FFFF800
1FFFF000
0FFFE000
03FFC000
00FF8000
00780000
00F80000
00F00000
01F00000
01F02000
01FFF000
01FFF000
01FFF000
007FF000
ENDCHAR
STARTCHAR 0174
ENCODING 372
SWIDTH 720 0
DWIDTH 36 0
BBX 35 44 1 0
BITMAP
0000C00000
0003E00000
0007F80000
000FFC0000
001FFF0000
003FFF0000
003F1F0000
007E0C0000
0038000000
0000001000
70000038C0
FF80003FE0
FF80E03FC0
FFC0F07FC0
FFC0F07F80
FFC0F07F80
FFE0F8FF80
FFE0F8FF80
7FF0F8FF00
7FF1F9FF00
7FF1FDFF00
3FF9FDFF00
3FF9FFFF00
1FFFFFFF00
1FFFFFFF00
1FFFFFFE00
0FFFFFFE00
0FFFFFFE00
07FFFFFE00
07FFFFFE00
03FFFFFC00
03FFDFFC00
01FFCFFC00
01FFCFFC00
00FF8FFC00
00FF87FC00
007F07FC00
007F07F800
003F03F800
003F03F800
001E03F800
001E01F000
000E000000
0004000000
ENDCHAR
STARTCHAR 0175
ENCODING 373
SWIDTH 720 0
DWIDTH 36 0
BBX 35 44 1 0
BITMAP
0000C00000
0003E00000
0007F80000
000FFC0000
001FFF0000
003FFF0000
003F1F0000
007E0C0000
0038000000
0000001000
70000038C0
FF80003FE0
FF80E03FC0
FFC0F07FC0
FFC0F07F80
FFC0F07F80
FFE0F8FF80
FFE0F8FF80
7FF0F8FF00
7FF1F9FF00
7FF1FDFF00
3FF9FDFF00
3FF9FFFF00
1FFFFFFF00
1FFFFFFF00
1FFFFFFE00
0FFFFFFE00
0FFFFFFE00
07FFFFFE00
07FFFFFE00
03FFFFFC00
03FFDFFC00
01FFCFFC00
01FFCFFC00
00FF8FFC00
00FF87FC00
007F07FC00
007F07F800
003F03F800
003F03F800
001E03F800
001E01F000
000E000000
0004000000
ENDCHAR
STARTCHAR 0176
ENCODING 374
SWIDTH 600 0
DWIDTH 30 0
BBX 29 44 1 0
BITMAP
00060000
001F0000
003FC000
007FE000
00FFF800
01FFF800
01F8F800
03F06000
01C00000
00000000
000007F8
07000FF0
3F000FF0
FF801FF0
FFC01FE0
FFC01FE0
7FE03FC0
7FE03FC0
3FF07F80
1FF0FF80
1FF0FF00
1FF9FF00
0FF9FE00
0FFFFE00
07FFFC00
07FFFC00
03FFF800
03FFF800
01FFF000
00FFF000
00FFF000
007FE000
007FC000
003FC000
003FC000
001FC000
001FC000
001FC000
001FE000
001FE000
001FE000
001FE000
001FE000
001F8000
ENDCHAR
STARTCHAR 0177
ENCODING 375
SWIDTH 600 0
DWIDTH 30 0
BBX 29 44 1 0
BITMAP
00060000
001F0000
003FC000
007FE000
00FFF800
01FFF800
01F8F800
03F06000
01C00000
00000000
000007F8
07000FF0
3F000FF0
FF801FF0
FFC01FE0
FFC01FE0
7FE03FC0
7FE03FC0
3FF07F80
1FF0FF80
1FF0FF00
1FF9FF00
0FF9FE00
0FFFFE00
07FFFC00
07FFFC00
03FFF800
03FFF800
01FFF000
00FFF000
00FFF000
007FE000
007FC000
003FC000
003FC000
001FC000
001FC000
001FC000
001FE000
001FE000
001FE000
001FE000
001FE000
001F8000
ENDCHAR
STARTCHAR 0178
ENCODING 376
SWIDTH 600 0
DWIDTH 30 0
BBX 29 41 1 0
BITMAP
00003000
00F8F800
00F8FC00
00F8F800
00F8F800
00703000
00000000
000007F8
07000FF0
3F000FF0
FF801FF0
FFC01FE0
FFC01FE0
7FE03FC0
7FE03FC0
3FF07F80
1FF0FF80
1FF0FF00
1FF9FF00
0FF9FE00
0FFFFE00
07FFFC00
07FFFC00
03FFF800
03FFF800
01FFF000
00FFF000
00FFF000
007FE000
007FC000
003FC000
003FC000
001FC000
001FC000
001FC000
001FE000
001FE000
001FE000
001FE000
001FE000
001F8000
ENDCHAR
STARTCHAR 0179
ENCODING 377
SWIDTH 600 0
DWIDTH 30 0
BBX 28 43 1 0
BITMAP
0007F000
0007F000
000FE000
001FC000
001F8000
003F0000
003E0000
00040000
00000000
00FFFF00
0FFFFF00
3FFFFE00
7FFFFC00
7FFFFC00
FFFFF800
FFFFF000
FFFFF000
FF0FE000
001FE000
001FE000
001FC000
003FC000
003F8000
003F8000
007F8000
007F0000
00FF0000
00FF0000
00FF0000
01FF0000
01FE0000
01FE0000
03FC0000
03FC0C30
03FFFFF0
07FFFFF0
07FFFFF0
07FFFFF0
07FFFFE0
07FFFFC0
007FFF80
000FFF00
0000F000
ENDCHAR
STARTCHAR 017A
ENCODING 378
SWIDTH 600 0
DWIDTH 30 0
BBX 28 43 1 0
BITMAP
0007F000
0007F000
000FE000
001FC000
001F8000
003F0000
003E0000
00040000
00000000
00FFFF00
0FFFFF00
3FFFFE00
7FFFFC00
7FFFFC00
FFFFF800
FFFFF000
FFFFF000
FF0FE000
001FE000
001FE000
001FC000
003FC000
003F8000
003F8000
007F8000
007F0000
00FF0000
00FF0000
00FF0000
01FF0000
01FE0000
01FE0000
03FC0000
03FC0C30
03FFFFF0
07FFFFF0
07FFFFF0
07FFFFF0
07FFFFE0
07FFFFC0
007FFF80
000FFF00
0000F000
ENDCHAR
STARTCHAR 017B
ENCODING 379
SWIDTH 600 0
DWIDTH 30 0
BBX 28 41 1 0
BITMAP
00100000
003C0000
007E0000
007E0000
007C0000
00180000
00000000
00FFFF00
0FFFFF00
3FFFFE00
7FFFFC00
7FFFFC00
FFFFF800
FFFFF000
FFFFF000
FF0FE000
001FE000
001FE000
001FC000
003FC000
003F8000
003F8000
007F8000
007F0000
00FF0000
00FF0000
00FF0000
01FF0000
01FE0000
01FE0000
03FC0000
03FC0C30
03FFFFF0
07FFFFF0
07FFFFF0
07FFFFF0
07FFFFE0
07FFFFC0
007FFF80
000FFF00
0000F000
ENDCHAR
STARTCHAR 017C
ENCODING 380
SWIDTH 600 0
DWIDTH 30 0
BBX 28 41 1 0
BITMAP
00100000
003C0000
007E0000
007E0000
007C0000
00180000
00000000
00FFFF00
0FFFFF00
3FFFFE00
7FFFFC00
7FFFFC00
FFFFF800
FFFFF000
FFFFF000
FF0FE000
001FE000
001FE000
001FC000
003FC000
003F8000
003F8000
007F8000
007F0000
00FF0000
00FF0000
00FF0000
01FF0000
01FE0000
01FE0000
03FC0000
03FC0C30
03FFFFF0
07FFFFF0
07FFFFF0
07FFFFF0
07FFFFE0
07FFFFC0
007FFF80
000FFF00
0000F000
ENDCHAR
STARTCHAR 017D
ENCODING 381
SWIDTH 600 0
DWIDTH 30 0
BBX 28 43 1 0
BITMAP
07C1E000
07E3F000
07FFF000
03FFE000
01FFC000
007F0000
003E0000
00180000
00000000
00FFFF00
0FFFFF00
3FFFFE00
7FFFFC00
7FFFFC00
FFFFF800
FFFFF000
FFFFF000
FF0FE000
001FE000
001FE000
001FC000
003FC000
003F8000
003F8000
007F8000
007F0000
00FF0000
00FF0000
00FF0000
01FF0000
01FE0000
01FE0000
03FC0000
03FC0C30
03FFFFF0
07FFFFF0
07FFFFF0
07FFFFF0
07FFFFE0
07FFFFC0
007FFF80
000FFF00
0000F000
ENDCHAR
STARTCHAR 017E
ENCODING 382
SWIDTH 600 0
DWIDTH 30 0
BBX 28 43 1 0
BITMAP
07C1E000
07E3F000
07FFF000
03FFE000
01FFC000
007F0000
003E0000
00180000
00000000
00FFFF00
0FFFFF00
3FFFFE00
7FFFFC00
7FFFFC00
FFFFF800
FFFFF000
FFFFF000
FF0FE000
001FE000
001FE000
001FC000
003FC000
003F8000
003F8000
007F8000
007F0000
00FF0000
00FF0000
00FF0000
01FF0000
01FE0000
01FE0000
03FC0000
03FC0C30
03FFFFF0
07FFFFF0
07FFFFF0
07FFFFF0
07FFFFE0
07FFFFC0
007FFF80
000FFF00
0000F000
ENDCHAR
STARTCHAR 017F
ENCODING 383
SWIDTH 420 0
DWIDTH 21 0
BBX 20 42 1 -7
BITMAP
00F000
07FF80
0FFFE0
1FFFE0
3FFFF0
7FFFF0
7FFFF0
FFC7F0
FF83E0
FF8000
FF0000
FF0000
FF0000
FF0000
FF0000
FF0000
FF0000
7F8000
7F8000
7F8000
7F8000
7F8000
7F8000
7F8000
7F8000
7F8000
7F8000
3F8000
7F8000
7F8000
7F8000
7F8000
7F8000
7F8000
7F8000
7F8000
3F8000
3F8000
3F8000
3FC000
3FC000
1FC000
ENDCHAR
STARTCHAR 0180
ENCODING 384
SWIDTH 520 0
DWIDTH 26 0
BBX 24 34 1 0
BITMAP
3FFC00
FFFF00
FFFFC0
FFFFC0
FFFFC0
FFFFE0
FFFFF0
FF9FF0
7F87F0
7F83F0
7F83F0
7F83F0
7FC7E0
7FCFE0
3FFFC0
3FFF80
3FFFE0
3FFFF8
3FFFFC
3FFFFE
3FF1FE
3FFCFF
FFFCFF
FFFCFF
FFFEFF
FFFEFF
FFFBFF
DFFFFE
1FFFFE
1FFFF8
1FFFF8
1FFFF0
0FFF00
01C000
ENDCHAR
STARTCHAR 0181
ENCODING 385
SWIDTH 660 0
DWIDTH 33 0
BBX 32 34 1 1
BITMAP
01FFFC00
0FFFFF00
1FFFFF80
3FFFFFC0
3FFFFFC0
7FFFFFE0
7FFFFFF0
FFFF9FF0
FFFF87F0
FE7F87F0
FC7F83F0
FC7F83E0
FC7F87E0
FC7FCFE0
7C7FFFC0
7F3FFF80
7F3FFFC0
7F3FFFF8
3F3FFFFC
3F3FFFFC
1F3FF1FE
003FE0FF
003FE0FF
003FF0FF
003FF1FF
001FF3FF
001FF7FF
001FFFFE
001FFFFE
001FFFF8
001FFFF8
001FFFE0
000FFF00
00018000
ENDCHAR
STARTCHAR 0186
ENCODING 390
SWIDTH 480 0
DWIDTH 24 0
BBX 23 34 1 0
BITMAP
03F000
1FFE00
3FFF80
FFFFC0
FFFFE0
FFFFF0
FFFFF8
FFFFF8
FFFFFC
5FFFFC
003FFC
001FFE
000FFE
0007FE
0007FE
0007FE
0007FE
000FFE
401FFE
FF3FFE
FFFFFE
FFFFFC
FFFFFC
FFFFFC
FFFFFC
FFFFF8
FFFFF8
FFFFF0
7FFFF0
3FFFE0
1FFFE0
0FFFC0
03FE00
008000
ENDCHAR
STARTCHAR 0187
ENCODING 391
SWIDTH 480 0
DWIDTH 24 0
BBX 23 42 1 0
BITMAP
0000FC
0003FE
0007FE
000FFE
001FFE
001FFE
003FF8
003FE0
003FE0
003FE0
00FFF0
03FFF8
0FFFFC
1FFFFE
3FFFFE
3FFFFE
7FFFFE
7FFFFC
FFFFD4
FFF800
FFE000
FFE000
FFC000
FFC000
FFC000
FFC000
FFC000
FFE004
FFF9FC
FFFFFC
FFFFFC
FFFFFC
7FFFFC
7FFFFC
7FFFFC
3FFFFC
3FFFFC
1FFFFC
1FFFF0
0FFFF0
07FFE0
01FF80
ENDCHAR
STARTCHAR 0188
ENCODING 392
SWIDTH 480 0
DWIDTH 24 0
BBX 23 42 1 0
BITMAP
0000FC
0003FE
0007FE
000FFE
001FFE
001FFE
003FF8
003FE0
003FE0
003FE0
00FFF0
03FFF8
0FFFFC
1FFFFE
3FFFFE
3FFFFE
7FFFFE
7FFFFC
FFFFD4
FFF800
FFE000
FFE000
FFC000
FFC000
FFC000
FFC000
FFC000
FFE004
FFF9FC
FFFFFC
FFFFFC
FFFFFC
7FFFFC
7FFFFC
7FFFFC
3FFFFC
3FFFFC
1FFFFC
1FFFF0
0FFFF0
07FFE0
01FF80
ENDCHAR
STARTCHAR 0189
ENCODING 393
SWIDTH 480 0
DWIDTH 24 0
BBX 24 34 0 0
BITMAP
0FF000
3FFE00
3FFF80
3FFFC0
3FFFE0
3FFFF0
3FFFF8
3FFFFC
3FFFFC
1FF3FE
1FF0FE
1FFE7E
1FFE7F
FFFE7F
FFFE7F
FFFE7F
FFFEFF
FFFCFE
FFF1FE
2FF3FC
0FFFFC
0FFFF8
0FFFF8
07FFF0
07FFF0
07FFE0
07FFC0
07FFC0
03FF80
03FF00
03FC00
03F800
01E000
010000
ENDCHAR
STARTCHAR 018A
ENCODING 394
SWIDTH 620 0
DWIDTH 31 0
BBX 30 34 1 0
BITMAP
00FFE000
0FFFF800
1FFFFF00
3FFFFF80
3FFFFF80
7FFFFFC0
7FFFFFE0
FFFFFFF0
FFFFFFF0
FE7FC7F8
FC7FC1F8
FC7FC1FC
FC7FC1FC
FC7FC1FC
7C7FC1FC
7F7FC1FC
7F7FC1FC
7F3FC3F8
3F3FC7F8
3F3FCFF8
1F3FFFF0
003FFFF0
001FFFE0
001FFFE0
001FFFC0
001FFF80
001FFF80
000FFF00
000FFE00
000FFC00
000FF800
0007E000
00078000
00060000
ENDCHAR
STARTCHAR 018F
ENCODING 399
SWIDTH 480 0
DWIDTH 24 0
BBX 23 34 1 0
BITMAP
07FE00
1FFF00
3FFF80
7FFFC0
FFFFC0
FFFFE0
FFFFF0
7E7FF0
000FF0
0003F8
0001F8
0001F8
0001F8
FFFFFC
FFFFFC
FFFFFC
FFFFFC
FFFFFC
FFFFFC
FF83FC
FF83FC
7F83FE
7F87FE
7FFFFE
7FFFFE
7FFFFE
7FFFFC
7FFFFC
3FFFFC
1FFFF8
0FFFF0
07FFE0
01FFC0
000200
ENDCHAR
STARTCHAR 0190
ENCODING 400
SWIDTH 480 0
DWIDTH 24 0
BBX 23 35 1 0
BITMAP
01FC00
07FF00
1FFFE0
1FFFF0
3FFFF0
7FFFF8
7FFFF8
FFE000
FFC000
FF8000
FF8000
FF8000
FF8000
7FC000
7FE000
3FFF80
3FFFC0
1FFFC0
0FFFC0
1FFF80
1FFC00
3FE000
3FC000
3FC000
3FC000
3FC000
7FE03E
3FFBFE
3FFFFE
3FFFFE
1FFFFC
0FFFFC
07FFF8
03FFF0
007F80
ENDCHAR
STARTCHAR 0191
ENCODING 401
SWIDTH 500 0
DWIDTH 25 0
BBX 27 42 -3 -7
BITMAP
0003FFC0
01FFFFC0
0FFFFFE0
0FFFFFE0
0FFFFFE0
0FFFFFE0
0FFFFFE0
0FFFF8E0
0FFE0000
0FF80000
0FF80000
0FF80000
0FF80000
0FFBE000
0FFFE000
0FFFE000
0FFFC000
0FFFC000
0FFFC000
0FFFC000
0FF84000
0FF80000
0FF80000
0FF80000
0FF80000
0FF80000
0FF80000
0FF80000
0FF80000
0FF80000
0FF80000
0FF80000
0FF80000
0FF80000
1FF80000
FFF00000
FFF00000
FFF00000
FFE00000
FF800000
FF000000
C0000000
ENDCHAR
STARTCHAR 0192
ENCODING 402
SWIDTH 500 0
DWIDTH 25 0
BBX 27 42 -3 -7
BITMAP
0003FFC0
01FFFFC0
0FFFFFE0
0FFFFFE0
0FFFFFE0
0FFFFFE0
0FFFFFE0
0FFFF8E0
0FFE0000
0FF80000
0FF80000
0FF80000
0FF80000
0FFBE000
0FFFE000
0FFFE000
0FFFC000
0FFFC000
0FFFC000
0FFFC000
0FF84000
0FF80000
0FF80000
0FF80000
0FF80000
0FF80000
0FF80000
0FF80000
0FF80000
0FF80000
0FF80000
0FF80000
0FF80000
0FF80000
1FF80000
FFF00000
FFF00000
FFF00000
FFE00000
FF800000
FF000000
C0000000
ENDCHAR
STARTCHAR 0193
ENCODING 403
SWIDTH 500 0
DWIDTH 25 0
BBX 24 42 1 0
BITMAP
00003E
0001FF
0003FF
000FFF
000FFF
001FFF
001FFC
001FF0
001FF0
007FF0
00FFF0
01FFF8
03FFFC
07FFFC
07FFFE
0FFFFC
1FF9F8
1FE000
1FC000
3F8000
3F8000
3F0000
3F0000
7F00FE
7F07FE
7F0FFE
7F07FE
FF07FE
FF07FE
FF07FE
FF07FE
FF87FE
FFFFFE
FFFFFE
FFFFFE
FFFFFE
FFFFFC
7FFFF8
7FFFE0
3FFF80
1FFE00
07F800
ENDCHAR
STARTCHAR 0194
ENCODING 404
SWIDTH 600 0
DWIDTH 30 0
BBX 29 40 1 -6
BITMAP
0E000000
FF000600
FF000FE0
7F000FF8
7F801FF8
7F801FF0
3F803FF0
3F803FE0
3FC03FE0
3FC07FC0
1FE07FC0
1FE07F80
0FE0FF80
0FF0FF80
07F1FF00
07F9FF00
03F9FE00
03FFFE00
01FFFC00
01FFFC00
00FFF800
00FFF800
007FF000
003FE000
007FE000
00FFF000
00FFF000
01FFF800
01FBF800
03F1F800
03F0F800
03E0F800
03E0F800
03F1F800
03F1F800
01FFF000
00FFE000
00FFE000
007FC000
003F0000
ENDCHAR
STARTCHAR 0197
ENCODING 407
SWIDTH 360 0
DWIDTH 18 0
BBX 17 34 1 0
BITMAP
03F800
0FFF00
0FFE00
07FE00
0FFE00
0FFE00
0FFE00
0FFC00
0FFC00
0FFC00
0FFC00
1FFC00
1FFC00
1FFC00
1FFF80
FFFF00
FFFF00
FFFF00
FFFF00
FFFF00
1FFC00
1FFC00
1FFC00
1FFC00
1FFC00
1FFC00
1FFC00
1FFC00
3FF800
3FF800
3FF800
3FF800
7FE000
7C0000
ENDCHAR
STARTCHAR 0198
ENCODING 408
SWIDTH 600 0
DWIDTH 30 0
BBX 29 35 1 0
BITMAP
00000C00
FFF81F80
FFF83FC0
7FF87FE0
7FF8FFE0
7FF8FFF0
FFF9FFF0
FFF9FFF8
FFFBFBF8
FFFBF1F8
FFFFF1F8
FFFFE1F0
FFFFE1F0
FFFFC3F0
FFFFCFE0
FFFF8FE0
FFFF8FE0
FFFF8FC0
FFFF0F80
FFFF8000
FFFFC000
FFFFE000
FFFFF000
FFFFF800
FFFFF800
FFFFFC00
FFFBFE00
FFF9FF00
FFF8FF00
FFF0FF80
FFF87F80
FFF87FC0
FFF83FC0
FFF83C00
00E03800
ENDCHAR
STARTCHAR 0199
ENCODING 409
SWIDTH 600 0
DWIDTH 30 0
BBX 29 35 1 0
BITMAP
00000C00
FFF81F80
FFF83FC0
7FF87FE0
7FF8FFE0
7FF8FFF0
FFF9FFF0
FFF9FFF8
FFFBFBF8
FFFBF1F8
FFFFF1F8
FFFFE1F0
FFFFE1F0
FFFFC3F0
FFFFCFE0
FFFF8FE0
FFFF8FE0
FFFF8FC0
FFFF0F80
FFFF8000
FFFFC000
FFFFE000
FFFFF000
FFFFF800
FFFFF800
FFFFFC00
FFFBFE00
FFF9FF00
FFF8FF00
FFF0FF80
FFF87F80
FFF87FC0
FFF83FC0
FFF83C00
00E03800
ENDCHAR
STARTCHAR 019D
ENCODING 413
SWIDTH 560 0
DWIDTH 28 0
BBX 31 40 -3 -7
BITMAP
00FF01F8
01FF87FC
01FF87FE
01FF87FC
01FF87FC
03FF87FC
03FF87FC
03FF87FC
03FFC7FC
03FFC7FC
03FFC7FC
03FFE7F8
07FFE7F8
07FFEFF8
07FFEFF8
07FFFFF8
07FFFFF8
07FFFFF8
07FFFFF8
07FFFFF8
07FEFFF8
07FEFFF8
07FCFFF8
07FC7FF8
0FFC7FF8
0FFC7FF0
0FFC3FF0
0FFC3FF0
0FFC3FF0
0FF83FF0
0FF83FF0
0FF83FE0
1FF80000
FFF00000
FFF00000
FFF00000
FFE00000
FF800000
FF000000
C0000000
ENDCHAR
STARTCHAR 01A0
ENCODING 416
SWIDTH 540 0
DWIDTH 27 0
BBX 26 36 1 0
BITMAP
00000380
01E00FC0
01F807C0
03FE07C0
07FF07C0
0FFFC3C0
0FFFE3C0
1FFFF3C0
1FFFFBC0
1FFFFFC0
3FFFFFC0
3FFFFF80
7FFFFF80
7FFFFF00
7FE3FF00
FFC1FF00
FF81FF00
FF81FF80
FF81FF80
FF81FF80
FF81FF80
FFC1FF80
FFE3FF80
FFFFFF80
7FFFFF80
7FFFFF00
7FFFFF00
7FFFFF00
3FFFFF00
3FFFFE00
1FFFFE00
1FFFFE00
0FFFFC00
07FFF800
01FFF000
007FC000
ENDCHAR
STARTCHAR 01A1
ENCODING 417
SWIDTH 540 0
DWIDTH 27 0
BBX 26 36 1 0
BITMAP
00000380
01E00FC0
01F807C0
03FE07C0
07FF07C0
0FFFC3C0
0FFFE3C0
1FFFF3C0
1FFFFBC0
1FFFFFC0
3FFFFFC0
3FFFFF80
7FFFFF80
7FFFFF00
7FE3FF00
FFC1FF00
FF81FF00
FF81FF80
FF81FF80
FF81FF80
FF81FF80
FFC1FF80
FFE3FF80
FFFFFF80
7FFFFF80
7FFFFF00
7FFFFF00
7FFFFF00
3FFFFF00
3FFFFE00
1FFFFE00
1FFFFE00
0FFFFC00
07FFF800
01FFF000
007FC000
ENDCHAR
STARTCHAR 01AF
ENCODING 431
SWIDTH 600 0
DWIDTH 30 0
BBX 29 36 1 0
BITMAP
00000070
000001F0
000031F0
FE03F8F8
FF03F8F8
FE03F8F8
FE01F8F8
FE01FC78
FE01FC78
FE01FFF0
FE01FFF0
FE01FFF0
FE01FFF0
FF01FFE0
FF01FF80
FF01FF00
FF01FE00
FF01FE00
FF01FF00
FF83FF00
FF83FE00
FF8FFE00
7FFFFE00
7FFFFE00
7FFFFE00
3FFFFE00
3FFFFE00
3FFFFC00
1FFFFC00
1FFFFC00
0FFFF800
07FFF800
07FFF000
03FFE000
01FF8000
000C0000
ENDCHAR
STARTCHAR 01B0
ENCODING 432
SWIDTH 600 0
DWIDTH 30 0
BBX 29 36 1 0
BITMAP
00000070
000001F0
000031F0
FE03F8F8
FF03F8F8
FE03F8F8
FE01F8F8
FE01FC78
FE01FC78
FE01FFF0
FE01FFF0
FE01FFF0
FE01FFF0
FF01FFE0
FF01FF80
FF01FF00
FF01FE00
FF01FE00
FF01FF00
FF83FF00
FF83FE00
FF8FFE00
7FFFFE00
7FFFFE00
7FFFFE00
3FFFFE00
3FFFFE00
3FFFFC00
1FFFFC00
1FFFFC00
0FFFF800
07FFF800
07FFF000
03FFE000
01FF8000
000C0000
ENDCHAR
STARTCHAR 01B1
ENCODING 433
SWIDTH 600 0
DWIDTH 30 0
BBX 29 35 1 0
BITMAP
FF007FF8
FFF87FF8
FFF87FF8
FFF87FF8
FFF07FF8
FFF07FF8
FFF07FF8
FFF07FF0
0FE03F80
1FE01FC0
1FC00FE0
3FC00FE0
3F800FE0
3F8007F0
7F0007F0
7F0007F0
7F0007F0
FF0007F8
FF0007F8
FF0007F8
FF000FF0
FF800FF0
FF801FF0
FFC01FF0
7FE07FF0
7FFFFFE0
7FFFFFE0
7FFFFFC0
3FFFFFC0
3FFFFF80
1FFFFF00
1FFFFF00
0FFFFC00
07FFF800
01FFC000
ENDCHAR
STARTCHAR 01B2
ENCODING 434
SWIDTH 560 0
DWIDTH 28 0
BBX 26 34 1 1
BITMAP
00038000
7C0FE000
FC1FF000
FE1FF800
FE0FFC00
FE07FC00
FE03FE00
FF03FF00
FF01FF00
FF00FF80
FF00FF80
FF007FC0
FF807FC0
FF807FC0
FF807FC0
FF807FC0
FFC07FC0
FFC07FC0
7FC07FC0
7FE0FFC0
7FE1FFC0
3FFFFFC0
3FFFFFC0
3FFFFFC0
1FFFFFC0
1FFFFF80
1FFFFF80
0FFFFF00
07FFFF00
07FFFE00
03FFFE00
01FFFC00
00FFF000
007FC000
ENDCHAR
STARTCHAR 01B3
ENCODING 435
SWIDTH 660 0
DWIDTH 33 0
BBX 32 34 1 0
BITMAP
000007E0
07000FF0
3F001FF8
FF801FFC
FFC03FFE
FFC03FFE
7FE03FFE
7FE07FFF
3FF07FFF
1FF0FFBF
1FF0FF3F
1FF9FF3F
0FF9FE3F
0FFFFE3F
07FFFC7E
07FFFCFE
03FFF8FE
03FFF8FC
01FFF0FC
00FFF0F8
00FFF0F0
007FE000
007FC000
003FC000
003FC000
001FC000
001FC000
001FC000
001FE000
001FE000
001FE000
001FE000
001FE000
001F8000
ENDCHAR
STARTCHAR 01B4
ENCODING 436
SWIDTH 660 0
DWIDTH 33 0
BBX 32 34 1 0
BITMAP
000007E0
07000FF0
3F001FF8
FF801FFC
FFC03FFE
FFC03FFE
7FE03FFE
7FE07FFF
3FF07FFF
1FF0FFBF
1FF0FF3F
1FF9FF3F
0FF9FE3F
0FFFFE3F
07FFFC7E
07FFFCFE
03FFF8FE
03FFF8FC
01FFF0FC
00FFF0F8
00FFF0F0
007FE000
007FC000
003FC000
003FC000
001FC000
001FC000
001FC000
001FE000
001FE000
001FE000
001FE000
001FE000
001F8000
ENDCHAR
STARTCHAR 01B5
ENCODING 437
SWIDTH 600 0
DWIDTH 30 0
BBX 28 34 1 0
BITMAP
00FFFF00
0FFFFF00
3FFFFE00
7FFFFC00
7FFFFC00
FFFFF800
FFFFF000
FFFFF000
FF0FE000
001FE000
001FE000
001FC000
003FC000
0FFFFF00
3FFFFF00
3FFFFF00
3FFFFF00
3FFFFF00
3FFFFF00
3FFFF400
01FF0000
01FE0000
01FE0000
03FC0000
03FC0C30
03FFFFF0
07FFFFF0
07FFFFF0
07FFFFF0
07FFFFE0
07FFFFC0
007FFF80
000FFF00
0000F000
ENDCHAR
STARTCHAR 01B6
ENCODING 438
SWIDTH 600 0
DWIDTH 30 0
BBX 28 34 1 0
BITMAP
00FFFF00
0FFFFF00
3FFFFE00
7FFFFC00
7FFFFC00
FFFFF800
FFFFF000
FFFFF000
FF0FE000
001FE000
001FE000
001FC000
003FC000
0FFFFF00
3FFFFF00
3FFFFF00
3FFFFF00
3FFFFF00
3FFFFF00
3FFFF400
01FF0000
01FE0000
01FE0000
03FC0000
03FC0C30
03FFFFF0
07FFFFF0
07FFFFF0
07FFFFF0
07FFFFE0
07FFFFC0
007FFF80
000FFF00
0000F000
ENDCHAR
STARTCHAR 01B7
ENCODING 439
SWIDTH 480 0
DWIDTH 24 0
BBX 23 35 1 -1
BITMAP
1FFFE0
7FFFF0
7FFFF8
7FFFF8
3FFFF0
1FFFE0
0007E0
000FC0
001F80
007F80
00FF00
01FF00
03FFC0
0FFFF0
1FFFF8
1FFFF8
1FFFF8
07FFFC
0003FC
0000FC
0000FE
00007E
00007E
00007E
F000FE
FF01FE
FFFFFE
FFFFFC
FFFFFC
FFFFF8
7FFFF8
3FFFF0
0FFFE0
03FF80
003C00
ENDCHAR
STARTCHAR 01BB
ENCODING 443
SWIDTH 500 0
DWIDTH 25 0
BBX 24 34 1 0
BITMAP
01C000
07F800
0FFE00
1FFF80
3FFFC0
7FFFC0
FFFFC0
FFFFC0
7FFFC0
7F0FC0
3C0FC0
180FC0
000FC0
001FFE
3FFFFE
3FFFFE
3FFFFE
3FFFFE
3FFFF6
3FFF00
00FE07
00FFFF
01FFFF
01FFFE
03FFFE
03FFFE
07FFFE
0FFFFE
0FFFFC
3FFFFC
7FFFFC
7FFFF8
3FFFC0
07FE00
ENDCHAR
STARTCHAR 01C0
ENCODING 448
SWIDTH 180 0
DWIDTH 9 0
BBX 8 34 1 0
BITMAP
FE
FE
FE
FE
FE
FE
FE
FE
FE
FE
FE
FE
FE
FF
FF
FF
FF
FE
FE
FE
FE
FF
FF
FF
FF
FE
FE
FE
FE
FE
FE
FE
FE
FE
ENDCHAR
STARTCHAR 01C1
ENCODING 449
SWIDTH 300 0
DWIDTH 15 0
BBX 14 35 1 0
BITMAP
0008
FCF8
FCFC
FCFC
FCFC
FCFC
FCFC
FCFC
FCFC
FCFC
FCFC
FCFC
FCFC
FCFC
FCFC
FCFC
FCFC
FCFC
FCFC
FCFC
FCFC
FCFC
FCFC
FCFC
FCFC
FCFC
FCFC
FCFC
FCFC
FCFC
FCFC
FCFC
FCFC
FCF8
FC28
ENDCHAR
STARTCHAR 01C2
ENCODING 450
SWIDTH 320 0
DWIDTH 16 0
BBX 15 34 1 0
BITMAP
0FE0
0FE0
0FE0
0FE0
1FE0
1FE0
1FE0
1FE0
FFFC
FFFE
FFFE
FFFE
FFFE
FFFE
FFE0
0FE0
0FE0
0FE0
0FE0
0FE0
0FE0
FFFC
FFFE
FFFE
FFFE
FFFE
FFFE
7FE0
0FE0
0FE0
0FE0
0FE0
0FE0
0FE0
ENDCHAR
STARTCHAR 01C3
ENCODING 451
SWIDTH 200 0
DWIDTH 10 0
BBX 9 35 1 0
BITMAP
7F80
FF80
FF80
FF80
FF80
FF80
FF80
FF80
FF80
FF80
FF80
FF80
FF80
FF80
FF80
FF00
FF00
FF00
FF00
FF00
FF00
7F00
7E00
0000
0000
0000
1C00
7F00
FF00
FF00
FF00
FF00
FF00
7F00
1800
ENDCHAR
STARTCHAR 01CA
ENCODING 458
SWIDTH 720 0
DWIDTH 36 0
BBX 35 34 1 0
BITMAP
0000001CC0
1F03C01FC0
3F8FE01FE0
3F8FE03FE0
3F8FE03FE0
3F8FE03FE0
3F8FE03FE0
3F8FE03FE0
7FCFE03FE0
7FCFE03FE0
7FCFC03FE0
7FCFC03FE0
7FCFC03FE0
7FEFC03FE0
7FEFC03FE0
7FEFC03FE0
7FEFC03FE0
7FEFC03FE0
7FFFC03FE0
7FFFC01FE0
7FFFC01FE0
FFFFC01FE0
FF7FC01FE0
FE7FCF9FE0
FE7FCFCFE0
FE7FCFDFC0
FE3FCFDFC0
FE3FCFFFC0
FE3F8FFF80
FE3F87FF80
FE3F87FF00
FE3F83FF00
FE3F81FE00
C000007C00
ENDCHAR
STARTCHAR 01CB
ENCODING 459
SWIDTH 720 0
DWIDTH 36 0
BBX 35 34 1 0
BITMAP
0000001CC0
1F03C01FC0
3F8FE01FE0
3F8FE03FE0
3F8FE03FE0
3F8FE03FE0
3F8FE03FE0
3F8FE03FE0
7FCFE03FE0
7FCFE03FE0
7FCFC03FE0
7FCFC03FE0
7FCFC03FE0
7FEFC03FE0
7FEFC03FE0
7FEFC03FE0
7FEFC03FE0
7FEFC03FE0
7FFFC03FE0
7FFFC01FE0
7FFFC01FE0
FFFFC01FE0
FF7FC01FE0
FE7FCF9FE0
FE7FCFCFE0
FE7FCFDFC0
FE3FCFDFC0
FE3FCFFFC0
FE3F8FFF80
FE3F87FF80
FE3F87FF00
FE3F83FF00
FE3F81FE00
C000007C00
ENDCHAR
STARTCHAR 01CC
ENCODING 460
SWIDTH 720 0
DWIDTH 36 0
BBX 35 34 1 0
BITMAP
0000001CC0
1F03C01FC0
3F8FE01FE0
3F8FE03FE0
3F8FE03FE0
3F8FE03FE0
3F8FE03FE0
3F8FE03FE0
7FCFE03FE0
7FCFE03FE0
7FCFC03FE0
7FCFC03FE0
7FCFC03FE0
7FEFC03FE0
7FEFC03FE0
7FEFC03FE0
7FEFC03FE0
7FEFC03FE0
7FFFC03FE0
7FFFC01FE0
7FFFC01FE0
FFFFC01FE0
FF7FC01FE0
FE7FCF9FE0
FE7FCFCFE0
FE7FCFDFC0
FE3FCFDFC0
FE3FCFFFC0
FE3F8FFF80
FE3F87FF80
FE3F87FF00
FE3F83FF00
FE3F81FE00
C000007C00
ENDCHAR
STARTCHAR 01CD
ENCODING 461
SWIDTH 620 0
DWIDTH 31 0
BBX 30 44 1 -1
BITMAP
00783E00
00FC7E00
00FFFE00
007FFC00
003FF800
000FF000
0007C000
00030000
00000000
0001C000
0007E000
0007E000
0007E000
000FF000
000FF000
001FF000
001FF000
001FF800
003FF800
003FF800
003FF800
007FFC00
007FFC00
00FFFC00
00FFFE00
00FFFE00
01FFFE00
01F3FF00
03F1FF00
03E1FF00
07C1FF80
07C1FF80
0FFFFF80
0FFFFFC0
0FFFFFC0
1FFFFFC0
1FF8FFE0
3FE0FFE0
3FC0FFF0
7FC0FFF0
7F807FF8
FF807FF8
FF807FFC
FE002000
ENDCHAR
STARTCHAR 01CE
ENCODING 462
SWIDTH 620 0
DWIDTH 31 0
BBX 30 44 1 -1
BITMAP
00783E00
00FC7E00
00FFFE00
007FFC00
003FF800
000FF000
0007C000
00030000
00000000
0001C000
0007E000
0007E000
0007E000
000FF000
000FF000
001FF000
001FF000
001FF800
003FF800
003FF800
003FF800
007FFC00
007FFC00
00FFFC00
00FFFE00
00FFFE00
01FFFE00
01F3FF00
03F1FF00
03E1FF00
07C1FF80
07C1FF80
0FFFFF80
0FFFFFC0
0FFFFFC0
1FFFFFC0
1FF8FFE0
3FE0FFE0
3FC0FFF0
7FC0FFF0
7F807FF8
FF807FF8
FF807FFC
FE002000
ENDCHAR
STARTCHAR 01CF
ENCODING 463
SWIDTH 320 0
DWIDTH 16 0
BBX 17 43 1 0
BITMAP
1E0F80
3F1F80
1FFF80
1FFF00
07FE00
03FC00
01F000
00C000
000000
07F000
0FFE00
1FFE00
0FFC00
0FFC00
0FFC00
1FFC00
1FFC00
1FFC00
1FF800
1FF800
1FF800
1FF800
1FF800
3FF800
3FF800
3FF800
3FF800
3FF800
3FF800
3FF800
3FF800
3FF800
3FF800
3FF800
3FF800
3FF800
3FF800
3FF000
7FF000
7FF000
7FF000
FFE000
F80000
ENDCHAR
STARTCHAR 01D0
ENCODING 464
SWIDTH 320 0
DWIDTH 16 0
BBX 17 43 1 0
BITMAP
1E0F80
3F1F80
1FFF80
1FFF00
07FE00
03FC00
01F000
00C000
000000
07F000
0FFE00
1FFE00
0FFC00
0FFC00
0FFC00
1FFC00
1FFC00
1FFC00
1FF800
1FF800
1FF800
1FF800
1FF800
3FF800
3FF800
3FF800
3FF800
3FF800
3FF800
3FF800
3FF800
3FF800
3FF800
3FF800
3FF800
3FF800
3FF800
3FF000
7FF000
7FF000
7FF000
FFE000
F80000
ENDCHAR
STARTCHAR 01D1
ENCODING 465
SWIDTH 520 0
DWIDTH 26 0
BBX 25 43 1 0
BITMAP
7C3E0000
FE7E0000
7FFE0000
3FFC0000
1FF80000
0FE00000
03C00000
00000000
01E00000
01F80000
03FE0000
07FF0000
0FFFC000
0FFFE000
1FFFF000
1FFFF800
1FFFF800
3FFFFC00
3FFFFE00
7FFFFE00
7FFFFE00
7FE3FF00
FFC1FF00
FF81FF00
FF81FF80
FF81FF80
FF81FF80
FF81FF80
FFC1FF80
FFE3FF80
FFFFFF80
7FFFFF80
7FFFFF00
7FFFFF00
7FFFFF00
3FFFFF00
3FFFFE00
1FFFFE00
1FFFFE00
0FFFFC00
07FFF800
01FFF000
007FC000
ENDCHAR
STARTCHAR 01D2
ENCODING 466
SWIDTH 520 0
DWIDTH 26 0
BBX 25 43 1 0
BITMAP
7C3E0000
FE7E0000
7FFE0000
3FFC0000
1FF80000
0FE00000
03C00000
00000000
01E00000
01F80000
03FE0000
07FF0000
0FFFC000
0FFFE000
1FFFF000
1FFFF800
1FFFF800
3FFFFC00
3FFFFE00
7FFFFE00
7FFFFE00
7FE3FF00
FFC1FF00
FF81FF00
FF81FF80
FF81FF80
FF81FF80
FF81FF80
FFC1FF80
FFE3FF80
FFFFFF80
7FFFFF80
7FFFFF00
7FFFFF00
7FFFFF00
3FFFFF00
3FFFFE00
1FFFFE00
1FFFFE00
0FFFFC00
07FFF800
01FFF000
007FC000
ENDCHAR
STARTCHAR 01D3
ENCODING 467
SWIDTH 540 0
DWIDTH 27 0
BBX 26 42 1 1
BITMAP
00F03C00
00F8FE00
00FDFC00
007FF800
003FF000
001FE000
000FC000
00030000
00000000
1F803F00
1FE07F80
1FC07FC0
3FC03F80
3FC03F80
3FC03F80
3FC03F80
7FC03F80
7F803F80
7F807F80
7F807F80
7F807F80
FF807F80
FF807F80
FF807FC0
FF807FC0
FFC0FFC0
FFC0FFC0
FFE0FF80
FFFFFF80
FFFFFF80
FFFFFF00
FFFFFF00
7FFFFF00
7FFFFE00
7FFFFE00
3FFFFC00
3FFFFC00
1FFFF800
1FFFF000
0FFFE000
03FFC000
00FF8000
ENDCHAR
STARTCHAR 01D4
ENCODING 468
SWIDTH 540 0
DWIDTH 27 0
BBX 26 42 1 1
BITMAP
00F03C00
00F8FE00
00FDFC00
007FF800
003FF000
001FE000
000FC000
00030000
00000000
1F803F00
1FE07F80
1FC07FC0
3FC03F80
3FC03F80
3FC03F80
3FC03F80
7FC03F80
7F803F80
7F807F80
7F807F80
7F807F80
FF807F80
FF807F80
FF807FC0
FF807FC0
FFC0FFC0
FFC0FFC0
FFE0FF80
FFFFFF80
FFFFFF80
FFFFFF00
FFFFFF00
7FFFFF00
7FFFFE00
7FFFFE00
3FFFFC00
3FFFFC00
1FFFF800
1FFFF000
0FFFE000
03FFC000
00FF8000
ENDCHAR
STARTCHAR 01D5
ENCODING 469
SWIDTH 540 0
DWIDTH 27 0
BBX 26 44 1 1
BITMAP
00FFFC00
01FFFC00
01FFFC00
00FFFC00
00000000
00702000
00F8F800
00F8F800
00F8F800
00707000
00000000
1F803F00
1FE07F80
1FC07FC0
3FC03F80
3FC03F80
3FC03F80
3FC03F80
7FC03F80
7F803F80
7F807F80
7F807F80
7F807F80
FF807F80
FF807F80
FF807FC0
FF807FC0
FFC0FFC0
FFC0FFC0
FFE0FF80
FFFFFF80
FFFFFF80
FFFFFF00
FFFFFF00
7FFFFF00
7FFFFE00
7FFFFE00
3FFFFC00
3FFFFC00
1FFFF800
1FFFF000
0FFFE000
03FFC000
00FF8000
ENDCHAR
STARTCHAR 01D6
ENCODING 470
SWIDTH 540 0
DWIDTH 27 0
BBX 26 44 1 1
BITMAP
00FFFC00
01FFFC00
01FFFC00
00FFFC00
00000000
00702000
00F8F800
00F8F800
00F8F800
00707000
00000000
1F803F00
1FE07F80
1FC07FC0
3FC03F80
3FC03F80
3FC03F80
3FC03F80
7FC03F80
7F803F80
7F807F80
7F807F80
7F807F80
FF807F80
FF807F80
FF807FC0
FF807FC0
FFC0FFC0
FFC0FFC0
FFE0FF80
FFFFFF80
FFFFFF80
FFFFFF00
FFFFFF00
7FFFFF00
7FFFFE00
7FFFFE00
3FFFFC00
3FFFFC00
1FFFF800
1FFFF000
0FFFE000
03FFC000
00FF8000
ENDCHAR
STARTCHAR 01D7
ENCODING 471
SWIDTH 540 0
DWIDTH 27 0
BBX 26 44 1 1
BITMAP
0001FC00
0001F800
0003F000
0007E000
000FC000
00702000
00F8F800
00F8F800
00F8F800
00707000
00000000
1F803F00
1FE07F80
1FC07FC0
3FC03F80
3FC03F80
3FC03F80
3FC03F80
7FC03F80
7F803F80
7F807F80
7F807F80
7F807F80
FF807F80
FF807F80
FF807FC0
FF807FC0
FFC0FFC0
FFC0FFC0
FFE0FF80
FFFFFF80
FFFFFF80
FFFFFF00
FFFFFF00
7FFFFF00
7FFFFE00
7FFFFE00
3FFFFC00
3FFFFC00
1FFFF800
1FFFF000
0FFFE000
03FFC000
00FF8000
ENDCHAR
STARTCHAR 01D8
ENCODING 472
SWIDTH 540 0
DWIDTH 27 0
BBX 26 44 1 1
BITMAP
0001FC00
0001F800
0003F000
0007E000
000FC000
00702000
00F8F800
00F8F800
00F8F800
00707000
00000000
1F803F00
1FE07F80
1FC07FC0
3FC03F80
3FC03F80
3FC03F80
3FC03F80
7FC03F80
7F803F80
7F807F80
7F807F80
7F807F80
FF807F80
FF807F80
FF807FC0
FF807FC0
FFC0FFC0
FFC0FFC0
FFE0FF80
FFFFFF80
FFFFFF80
FFFFFF00
FFFFFF00
7FFFFF00
7FFFFE00
7FFFFE00
3FFFFC00
3FFFFC00
1FFFF800
1FFFF000
0FFFE000
03FFC000
00FF8000
ENDCHAR
STARTCHAR 01D9
ENCODING 473
SWIDTH 540 0
DWIDTH 27 0
BBX 26 44 1 1
BITMAP
01F87C00
00FDFC00
007FF800
003FE000
000F8000
00702000
00F8F800
00F8F800
00F8F800
00707000
00000000
1F803F00
1FE07F80
1FC07FC0
3FC03F80
3FC03F80
3FC03F80
3FC03F80
7FC03F80
7F803F80
7F807F80
7F807F80
7F807F80
FF807F80
FF807F80
FF807FC0
FF807FC0
FFC0FFC0
FFC0FFC0
FFE0FF80
FFFFFF80
FFFFFF80
FFFFFF00
FFFFFF00
7FFFFF00
7FFFFE00
7FFFFE00
3FFFFC00
3FFFFC00
1FFFF800
1FFFF000
0FFFE000
03FFC000
00FF8000
ENDCHAR
STARTCHAR 01DA
ENCODING 474
SWIDTH 540 0
DWIDTH 27 0
BBX 26 44 1 1
BITMAP
01F87C00
00FDFC00
007FF800
003FE000
000F8000
00702000
00F8F800
00F8F800
00F8F800
00707000
00000000
1F803F00
1FE07F80
1FC07FC0
3FC03F80
3FC03F80
3FC03F80
3FC03F80
7FC03F80
7F803F80
7F807F80
7F807F80
7F807F80
FF807F80
FF807F80
FF807FC0
FF807FC0
FFC0FFC0
FFC0FFC0
FFE0FF80
FFFFFF80
FFFFFF80
FFFFFF00
FFFFFF00
7FFFFF00
7FFFFE00
7FFFFE00
3FFFFC00
3FFFFC00
1FFFF800
1FFFF000
0FFFE000
03FFC000
00FF8000
ENDCHAR
STARTCHAR 01DB
ENCODING 475
SWIDTH 540 0
DWIDTH 27 0
BBX 26 44 1 1
BITMAP
01FC0000
00FE0000
003F0000
001F8000
000F8000
00702000
00F8F800
00F8F800
00F8F800
00707000
00000000
1F803F00
1FE07F80
1FC07FC0
3FC03F80
3FC03F80
3FC03F80
3FC03F80
7FC03F80
7F803F80
7F807F80
7F807F80
7F807F80
FF807F80
FF807F80
FF807FC0
FF807FC0
FFC0FFC0
FFC0FFC0
FFE0FF80
FFFFFF80
FFFFFF80
FFFFFF00
FFFFFF00
7FFFFF00
7FFFFE00
7FFFFE00
3FFFFC00
3FFFFC00
1FFFF800
1FFFF000
0FFFE000
03FFC000
00FF8000
ENDCHAR
STARTCHAR 01DC
ENCODING 476
SWIDTH 540 0
DWIDTH 27 0
BBX 26 44 1 1
BITMAP
01FC0000
00FE0000
003F0000
001F8000
000F8000
00702000
00F8F800
00F8F800
00F8F800
00707000
00000000
1F803F00
1FE07F80
1FC07FC0
3FC03F80
3FC03F80
3FC03F80
3FC03F80
7FC03F80
7F803F80
7F807F80
7F807F80
7F807F80
FF807F80
FF807F80
FF807FC0
FF807FC0
FFC0FFC0
FFC0FFC0
FFE0FF80
FFFFFF80
FFFFFF80
FFFFFF00
FFFFFF00
7FFFFF00
7FFFFE00
7FFFFE00
3FFFFC00
3FFFFC00
1FFFF800
1FFFF000
0FFFE000
03FFC000
00FF8000
ENDCHAR
STARTCHAR 01DE
ENCODING 478
SWIDTH 620 0
DWIDTH 31 0
BBX 30 46 1 -1
BITMAP
007FFE00
007FFE00
007FFE00
007F8000
00000000
00383C00
003C3E00
007C3E00
007C3C00
003C1800
00000000
0001C000
0007E000
0007E000
0007E000
000FF000
000FF000
001FF000
001FF000
001FF800
003FF800
003FF800
003FF800
007FFC00
007FFC00
00FFFC00
00FFFE00
00FFFE00
01FFFE00
01F3FF00
03F1FF00
03E1FF00
07C1FF80
07C1FF80
0FFFFF80
0FFFFFC0
0FFFFFC0
1FFFFFC0
1FF8FFE0
3FE0FFE0
3FC0FFF0
7FC0FFF0
7F807FF8
FF807FF8
FF807FFC
FE002000
ENDCHAR
STARTCHAR 01DF
ENCODING 479
SWIDTH 620 0
DWIDTH 31 0
BBX 30 46 1 -1
BITMAP
007FFE00
007FFE00
007FFE00
007F8000
00000000
00383C00
003C3E00
007C3E00
007C3C00
003C1800
00000000
0001C000
0007E000
0007E000
0007E000
000FF000
000FF000
001FF000
001FF000
001FF800
003FF800
003FF800
003FF800
007FFC00
007FFC00
00FFFC00
00FFFE00
00FFFE00
01FFFE00
01F3FF00
03F1FF00
03E1FF00
07C1FF80
07C1FF80
0FFFFF80
0FFFFFC0
0FFFFFC0
1FFFFFC0
1FF8FFE0
3FE0FFE0
3FC0FFF0
7FC0FFF0
7F807FF8
FF807FF8
FF807FFC
FE002000
ENDCHAR
STARTCHAR 01E0
ENCODING 480
SWIDTH 620 0
DWIDTH 31 0
BBX 30 46 1 -1
BITMAP
007FFE00
007FFE00
007FFE00
007F8000
00000000
0001C000
0003E000
0007E000
0007E000
0001C000
00000000
0001C000
0007E000
0007E000
0007E000
000FF000
000FF000
001FF000
001FF000
001FF800
003FF800
003FF800
003FF800
007FFC00
007FFC00
00FFFC00
00FFFE00
00FFFE00
01FFFE00
01F3FF00
03F1FF00
03E1FF00
07C1FF80
07C1FF80
0FFFFF80
0FFFFFC0
0FFFFFC0
1FFFFFC0
1FF8FFE0
3FE0FFE0
3FC0FFF0
7FC0FFF0
7F807FF8
FF807FF8
FF807FFC
FE002000
ENDCHAR
STARTCHAR 01E1
ENCODING 481
SWIDTH 620 0
DWIDTH 31 0
BBX 30 46 1 -1
BITMAP
007FFE00
007FFE00
007FFE00
007F8000
00000000
0001C000
0003E000
0007E000
0007E000
0001C000
00000000
0001C000
0007E000
0007E000
0007E000
000FF000
000FF000
001FF000
001FF000
001FF800
003FF800
003FF800
003FF800
007FFC00
007FFC00
00FFFC00
00FFFE00
00FFFE00
01FFFE00
01F3FF00
03F1FF00
03E1FF00
07C1FF80
07C1FF80
0FFFFF80
0FFFFFC0
0FFFFFC0
1FFFFFC0
1FF8FFE0
3FE0FFE0
3FC0FFF0
7FC0FFF0
7F807FF8
FF807FF8
FF807FFC
FE002000
ENDCHAR
STARTCHAR 01E2
ENCODING 482
SWIDTH 720 0
DWIDTH 36 0
BBX 35 41 1 -1
BITMAP
0003FFF800
0003FFF800
0003FFF800
0003FFF800
0000000000
00000E0000
0003FFFC00
0007FFFC00
0007FFFC00
000FFFFC00
000FFFF800
000FFFF800
001FFFF800
001FFFF800
001FFFF800
003FFFF800
003FFE0000
003FFC0000
007FFE0000
007FFE1800
00FFFFF800
00FFFFF800
01FFFFF800
01FFFFF800
01F3FFF800
03E1FF0000
03E1FF0000
07C1FF7F80
07C3FFFF80
0FFFFFFFC0
0FFFFFFFC0
1FFFFFFFC0
1FFFFFFFC0
1FF0FFFFE0
3FC0FFFFE0
3FC0FFFFE0
7FC0FFFFE0
7F807FFE00
FF807FE000
FFC07E0000
F800000000
ENDCHAR
STARTCHAR 01E3
ENCODING 483
SWIDTH 720 0
DWIDTH 36 0
BBX 35 41 1 -1
BITMAP
0003FFF800
0003FFF800
0003FFF800
0003FFF800
0000000000
00000E0000
0003FFFC00
0007FFFC00
0007FFFC00
000FFFFC00
000FFFF800
000FFFF800
001FFFF800
001FFFF800
001FFFF800
003FFFF800
003FFE0000
003FFC0000
007FFE0000
007FFE1800
00FFFFF800
00FFFFF800
01FFFFF800
01FFFFF800
01F3FFF800
03E1FF0000
03E1FF0000
07C1FF7F80
07C3FFFF80
0FFFFFFFC0
0FFFFFFFC0
1FFFFFFFC0
1FFFFFFFC0
1FF0FFFFE0
3FC0FFFFE0
3FC0FFFFE0
7FC0FFFFE0
7F807FFE00
FF807FE000
FFC07E0000
F800000000
ENDCHAR
STARTCHAR 01E4
ENCODING 484
SWIDTH 540 0
DWIDTH 27 0
BBX 26 34 1 0
BITMAP
001FF000
003FFC00
007FFE00
00FFFF00
00FFFF80
01FFFF80
03FFFF00
03FF3E00
07F80000
07F00000
07F00000
FFFC0000
FFFC0000
FFFC0000
FFFC1FC0
FFFDFFC0
FFFFFFC0
1FC1FFC0
1FC1FFC0
1FC1FF80
3FC1FF80
3FC1FF80
3FE1FF80
3FFFFF80
3FFFFF80
3FFFFF80
3FFFFF80
1FFFFF00
1FFFFE00
0FFFF800
07FFF000
03FFC000
01FE0000
00400000
ENDCHAR
STARTCHAR 01E5
ENCODING 485
SWIDTH 540 0
DWIDTH 27 0
BBX 26 34 1 0
BITMAP
001FF000
003FFC00
007FFE00
00FFFF00
00FFFF80
01FFFF80
03FFFF00
03FF3E00
07F80000
07F00000
07F00000
FFFC0000
FFFC0000
FFFC0000
FFFC1FC0
FFFDFFC0
FFFFFFC0
1FC1FFC0
1FC1FFC0
1FC1FF80
3FC1FF80
3FC1FF80
3FE1FF80
3FFFFF80
3FFFFF80
3FFFFF80
3FFFFF80
1FFFFF00
1FFFFE00
0FFFF800
07FFF000
03FFC000
01FE0000
00400000
ENDCHAR
STARTCHAR 01E6
ENCODING 486
SWIDTH 500 0
DWIDTH 25 0
BBX 23 42 1 0
BITMAP
03C1F0
07E3F0
07FFF0
03FFE0
00FFC0
007F80
003E00
001800
000000
007FC0
00FFF0
01FFF8
03FFFC
07FFFC
07FFFE
0FFFFC
1FF9F8
1FE000
1FC000
3F8000
3F8000
3F0000
3F0000
7F00FE
7F07FE
7F0FFE
7F07FE
FF07FE
FF07FE
FF07FE
FF07FE
FF87FE
FFFFFE
FFFFFE
FFFFFE
FFFFFE
FFFFFC
7FFFF8
7FFFE0
3FFF80
1FFE00
07F800
ENDCHAR
STARTCHAR 01E7
ENCODING 487
SWIDTH 500 0
DWIDTH 25 0
BBX 23 42 1 0
BITMAP
03C1F0
07E3F0
07FFF0
03FFE0
00FFC0
007F80
003E00
001800
000000
007FC0
00FFF0
01FFF8
03FFFC
07FFFC
07FFFE
0FFFFC
1FF9F8
1FE000
1FC000
3F8000
3F8000
3F0000
3F0000
7F00FE
7F07FE
7F0FFE
7F07FE
FF07FE
FF07FE
FF07FE
FF07FE
FF87FE
FFFFFE
FFFFFE
FFFFFE
FFFFFE
FFFFFC
7FFFF8
7FFFE0
3FFF80
1FFE00
07F800
ENDCHAR
STARTCHAR 01E8
ENCODING 488
SWIDTH 540 0
DWIDTH 27 0
BBX 26 43 1 0
BITMAP
00781E00
00FC7E00
007EFE00
003FFC00
001FF800
000FF000
0007C000
00010000
00000800
FFF81C00
FFF83C00
7FF87F00
7FF8FFC0
7FF8FF80
FFF9FF00
FFF9FF00
FFFBFE00
FFFBFC00
FFFFF800
FFFFF800
FFFFF000
FFFFF000
FFFFE000
FFFFE000
FFFFC000
FFFF8000
FFFF0000
FFFF8000
FFFFC000
FFFFE000
FFFFF000
FFFFF800
FFFFF800
FFFFFC00
FFFBFE00
FFF9FF00
FFF8FF00
FFF0FF80
FFF87F80
FFF87FC0
FFF83FC0
FFF83C00
00E03800
ENDCHAR
STARTCHAR 01E9
ENCODING 489
SWIDTH 540 0
DWIDTH 27 0
BBX 26 43 1 0
BITMAP
00781E00
00FC7E00
007EFE00
003FFC00
001FF800
000FF000
0007C000
00010000
00000800
FFF81C00
FFF83C00
7FF87F00
7FF8FFC0
7FF8FF80
FFF9FF00
FFF9FF00
FFFBFE00
FFFBFC00
FFFFF800
FFFFF800
FFFFF000
FFFFF000
FFFFE000
FFFFE000
FFFFC000
FFFF8000
FFFF0000
FFFF8000
FFFFC000
FFFFE000
FFFFF000
FFFFF800
FFFFF800
FFFFFC00
FFFBFE00
FFF9FF00
FFF8FF00
FFF0FF80
FFF87F80
FFF87FC0
FFF83FC0
FFF83C00
00E03800
ENDCHAR
STARTCHAR 01EA
ENCODING 490
SWIDTH 520 0
DWIDTH 26 0
BBX 25 43 1 -8
BITMAP
01E00000
01F80000
03FE0000
07FF0000
0FFFC000
0FFFE000
1FFFF000
1FFFF800
1FFFF800
3FFFFC00
3FFFFE00
7FFFFE00
7FFFFE00
7FE3FF00
FFC1FF00
FF81FF00
FF81FF80
FF81FF80
FF81FF80
FF81FF80
FFC1FF80
FFE3FF80
FFFFFF80
7FFFFF80
7FFFFF00
7FFFFF00
7FFFFF00
3FFFFF00
3FFFFE00
1FFFFE00
1FFFFE00
0FFFFC00
07FFF800
01FFF000
007FC000
001E0000
003E0000
003C0000
007C0000
007FFC00
007FFC00
003FFC00
001FFC00
ENDCHAR
STARTCHAR 01EB
ENCODING 491
SWIDTH 520 0
DWIDTH 26 0
BBX 25 43 1 -8
BITMAP
01E00000
01F80000
03FE0000
07FF0000
0FFFC000
0FFFE000
1FFFF000
1FFFF800
1FFFF800
3FFFFC00
3FFFFE00
7FFFFE00
7FFFFE00
7FE3FF00
FFC1FF00
FF81FF00
FF81FF80
FF81FF80
FF81FF80
FF81FF80
FFC1FF80
FFE3FF80
FFFFFF80
7FFFFF80
7FFFFF00
7FFFFF00
7FFFFF00
3FFFFF00
3FFFFE00
1FFFFE00
1FFFFE00
0FFFFC00
07FFF800
01FFF000
007FC000
001E0000
003E0000
003C0000
007C0000
007FFC00
007FFC00
003FFC00
001FFC00
ENDCHAR
STARTCHAR 01EC
ENCODING 492
SWIDTH 520 0
DWIDTH 26 0
BBX 25 48 1 -8
BITMAP
7FFF0000
7FFF0000
7FFF0000
7FFF0000
00000000
01E00000
01F80000
03FE0000
07FF0000
0FFFC000
0FFFE000
1FFFF000
1FFFF800
1FFFF800
3FFFFC00
3FFFFE00
7FFFFE00
7FFFFE00
7FE3FF00
FFC1FF00
FF81FF00
FF81FF80
FF81FF80
FF81FF80
FF81FF80
FFC1FF80
FFE3FF80
FFFFFF80
7FFFFF80
7FFFFF00
7FFFFF00
7FFFFF00
3FFFFF00
3FFFFE00
1FFFFE00
1FFFFE00
0FFFFC00
07FFF800
01FFF000
007FC000
001E0000
003E0000
003C0000
007C0000
007FFC00
007FFC00
003FFC00
001FFC00
ENDCHAR
STARTCHAR 01ED
ENCODING 493
SWIDTH 520 0
DWIDTH 26 0
BBX 25 48 1 -8
BITMAP
7FFF0000
7FFF0000
7FFF0000
7FFF0000
00000000
01E00000
01F80000
03FE0000
07FF0000
0FFFC000
0FFFE000
1FFFF000
1FFFF800
1FFFF800
3FFFFC00
3FFFFE00
7FFFFE00
7FFFFE00
7FE3FF00
FFC1FF00
FF81FF00
FF81FF80
FF81FF80
FF81FF80
FF81FF80
FFC1FF80
FFE3FF80
FFFFFF80
7FFFFF80
7FFFFF00
7FFFFF00
7FFFFF00
3FFFFF00
3FFFFE00
1FFFFE00
1FFFFE00
0FFFFC00
07FFF800
01FFF000
007FC000
001E0000
003E0000
003C0000
007C0000
007FFC00
007FFC00
003FFC00
001FFC00
ENDCHAR
STARTCHAR 01EE
ENCODING 494
SWIDTH 480 0
DWIDTH 24 0
BBX 23 44 1 -1
BITMAP
0E0380
1F8FC0
1FDFC0
0FFF80
07FF00
03FE00
01F800
007000
000000
1FFFE0
7FFFF0
7FFFF8
7FFFF8
3FFFF0
1FFFE0
0007E0
000FC0
001F80
007F80
00FF00
01FF00
03FFC0
0FFFF0
1FFFF8
1FFFF8
1FFFF8
07FFFC
0003FC
0000FC
0000FE
00007E
00007E
00007E
F000FE
FF01FE
FFFFFE
FFFFFC
FFFFFC
FFFFF8
7FFFF8
3FFFF0
0FFFE0
03FF80
003C00
ENDCHAR
STARTCHAR 01EF
ENCODING 495
SWIDTH 480 0
DWIDTH 24 0
BBX 23 44 1 -1
BITMAP
0E0380
1F8FC0
1FDFC0
0FFF80
07FF00
03FE00
01F800
007000
000000
1FFFE0
7FFFF0
7FFFF8
7FFFF8
3FFFF0
1FFFE0
0007E0
000FC0
001F80
007F80
00FF00
01FF00
03FFC0
0FFFF0
1FFFF8
1FFFF8
1FFFF8
07FFFC
0003FC
0000FC
0000FE
00007E
00007E
00007E
F000FE
FF01FE
FFFFFE
FFFFFC
FFFFFC
FFFFF8
7FFFF8
3FFFF0
0FFFE0
03FF80
003C00
ENDCHAR
STARTCHAR 01F0
ENCODING 496
SWIDTH 460 0
DWIDTH 23 0
BBX 22 43 1 0
BITMAP
00F03C
01F8FC
00FDFC
007FF8
003FF0
001FE0
000F80
000200
000000
003C70
003FF0
007FF0
007FF8
007FF8
007FF8
007FF8
00FFF8
00FFF8
00FFF8
00FFF8
00FFF8
00FFF8
00FFF8
00FFF8
00FFF8
00FFF8
007FF8
007FF8
007FF8
003FF8
003FF8
003FF8
FE1FF8
FF1FF0
FFBFF0
FFBFF0
FFFFE0
FFFFE0
7FFFC0
3FFF80
1FFF00
0FFE00
01FC00
ENDCHAR
STARTCHAR 01F4
ENCODING 500
SWIDTH 500 0
DWIDTH 25 0
BBX 23 42 1 0
BITMAP
0007F0
0007F0
000FE0
000FC0
001F80
001F00
003E00
000600
000000
007FC0
00FFF0
01FFF8
03FFFC
07FFFC
07FFFE
0FFFFC
1FF9F8
1FE000
1FC000
3F8000
3F8000
3F0000
3F0000
7F00FE
7F07FE
7F0FFE
7F07FE
FF07FE
FF07FE
FF07FE
FF07FE
FF87FE
FFFFFE
FFFFFE
FFFFFE
FFFFFE
FFFFFC
7FFFF8
7FFFE0
3FFF80
1FFE00
07F800
ENDCHAR
STARTCHAR 01F5
ENCODING 501
SWIDTH 500 0
DWIDTH 25 0
BBX 23 42 1 0
BITMAP
0007F0
0007F0
000FE0
000FC0
001F80
001F00
003E00
000600
000000
007FC0
00FFF0
01FFF8
03FFFC
07FFFC
07FFFE
0FFFFC
1FF9F8
1FE000
1FC000
3F8000
3F8000
3F0000
3F0000
7F00FE
7F07FE
7F0FFE
7F07FE
FF07FE
FF07FE
FF07FE
FF07FE
FF87FE
FFFFFE
FFFFFE
FFFFFE
FFFFFE
FFFFFC
7FFFF8
7FFFE0
3FFF80
1FFE00
07F800
ENDCHAR
STARTCHAR 01F8
ENCODING 504
SWIDTH 560 0
DWIDTH 28 0
BBX 27 43 1 0
BITMAP
01FC0000
01FE0000
00FE0000
007F0000
003F0000
001F8000
000F8000
00040000
00000000
00000000
0FF01F80
1FF87FC0
1FF87FE0
1FF87FC0
1FF87FC0
3FF87FC0
3FF87FC0
3FF87FC0
3FFC7FC0
3FFC7FC0
3FFC7FC0
3FFE7F80
7FFE7F80
7FFEFF80
7FFEFF80
7FFFFF80
7FFFFF80
7FFFFF80
7FFFFF80
7FFFFF80
7FEFFF80
7FEFFF80
7FCFFF80
7FC7FF80
7FC7FF80
FFC7FF00
FFC3FF00
FFC3FF00
FFC3FF00
FFC3FF00
FFC3FF00
FF83FE00
F0000000
ENDCHAR
STARTCHAR 01F9
ENCODING 505
SWIDTH 560 0
DWIDTH 28 0
BBX 27 43 1 0
BITMAP
01FC0000
01FE0000
00FE0000
007F0000
003F0000
001F8000
000F8000
00040000
00000000
00000000
0FF01F80
1FF87FC0
1FF87FE0
1FF87FC0
1FF87FC0
3FF87FC0
3FF87FC0
3FF87FC0
3FFC7FC0
3FFC7FC0
3FFC7FC0
3FFE7F80
7FFE7F80
7FFEFF80
7FFEFF80
7FFFFF80
7FFFFF80
7FFFFF80
7FFFFF80
7FFFFF80
7FEFFF80
7FEFFF80
7FCFFF80
7FC7FF80
7FC7FF80
FFC7FF00
FFC3FF00
FFC3FF00
FFC3FF00
FFC3FF00
FFC3FF00
FF83FE00
F0000000
ENDCHAR
STARTCHAR 01FE
ENCODING 510
SWIDTH 520 0
DWIDTH 26 0
BBX 27 44 0 -1
BITMAP
001FC000
001FC000
003F8000
007F0000
007E0000
00FC0000
00F80000
00180000
00F01FE0
00FC3FE0
01FF3FC0
03FFFF80
07FFFF80
07FFFF00
0FFFFF00
0FFFFE00
0FFFFC00
1FFFFE00
1FFFFF00
3FFFFF00
3FFFFF00
3FCFFF80
7F9FFF80
7F9FFF80
7F3FBFC0
7F7FBFC0
7F7F3FC0
7FFE7FC0
7FFE7FC0
7FFCFFC0
7FF9FFC0
3FFFFFC0
3FFFFF80
3FFFFF80
3FFFFF80
1FFFFF80
1FFFFF00
1FFFFF00
3FFFFF00
7FFFFE00
7FFFFC00
FEFFF800
BC3FE000
08000000
ENDCHAR
STARTCHAR 01FF
ENCODING 511
SWIDTH 520 0
DWIDTH 26 0
BBX 27 44 0 -1
BITMAP
001FC000
001FC000
003F8000
007F0000
007E0000
00FC0000
00F80000
00180000
00F01FE0
00FC3FE0
01FF3FC0
03FFFF80
07FFFF80
07FFFF00
0FFFFF00
0FFFFE00
0FFFFC00
1FFFFE00
1FFFFF00
3FFFFF00
3FFFFF00
3FCFFF80
7F9FFF80
7F9FFF80
7F3FBFC0
7F7FBFC0
7F7F3FC0
7FFE7FC0
7FFE7FC0
7FFCFFC0
7FF9FFC0
3FFFFFC0
3FFFFF80
3FFFFF80
3FFFFF80
1FFFFF80
1FFFFF00
1FFFFF00
3FFFFF00
7FFFFE00
7FFFFC00
FEFFF800
BC3FE000
08000000
ENDCHAR
STARTCHAR 0218
ENCODING 536
SWIDTH 500 0
DWIDTH 25 0
BBX 23 43 1 -8
BITMAP
000400
01FFFE
07FFFE
0FFFFE
0FFFFC
1FFFFC
1FFFF8
1FFFF8
3FFFF8
3FFFF0
3FFFF0
7FFFE0
7FFFE0
7FC1C0
3FC060
3FF000
3FFC00
1FFF00
0FFFE0
0FFFF0
01FFF8
003FF8
000FFC
0003FC
0007FC
700FFC
FDFFFC
FFFFFC
FFFFFC
FFFFFC
FFFFF8
7FFFF8
3FFFE0
1FFF80
07FE00
000000
01F800
01FC00
01F800
03F800
03F000
03F000
01E000
ENDCHAR
STARTCHAR 0219
ENCODING 537
SWIDTH 500 0
DWIDTH 25 0
BBX 23 43 1 -8
BITMAP
000400
01FFFE
07FFFE
0FFFFE
0FFFFC
1FFFFC
1FFFF8
1FFFF8
3FFFF8
3FFFF0
3FFFF0
7FFFE0
7FFFE0
7FC1C0
3FC060
3FF000
3FFC00
1FFF00
0FFFE0
0FFFF0
01FFF8
003FF8
000FFC
0003FC
0007FC
700FFC
FDFFFC
FFFFFC
FFFFFC
FFFFFC
FFFFF8
7FFFF8
3FFFE0
1FFF80
07FE00
000000
01F800
01FC00
01F800
03F800
03F000
03F000
01E000
ENDCHAR
STARTCHAR 021A
ENCODING 538
SWIDTH 560 0
DWIDTH 28 0
BBX 27 42 1 -8
BITMAP
003E0E00
FFFFFF80
FFFFFFC0
FFFFFFC0
FFFFFFE0
FFFFFFE0
FFFFFFE0
FFFFFFE0
FFFFFFE0
FFFFFF40
FFBFF000
F83FE000
003FC000
003FC000
003FC000
003FC000
003FC000
003F8000
003F8000
003FC000
003FC000
003FC000
003F8000
003F8000
003F8000
003F8000
003F8000
003F8000
003F8000
003F8000
003F8000
003F8000
003F8000
003F8000
00000000
003F8000
003F8000
003F8000
003F0000
007F0000
007E0000
003C0000
ENDCHAR
STARTCHAR 021B
ENCODING 539
SWIDTH 560 0
DWIDTH 28 0
BBX 27 42 1 -8
BITMAP
003E0E00
FFFFFF80
FFFFFFC0
FFFFFFC0
FFFFFFE0
FFFFFFE0
FFFFFFE0
FFFFFFE0
FFFFFFE0
FFFFFF40
FFBFF000
F83FE000
003FC000
003FC000
003FC000
003FC000
003FC000
003F8000
003F8000
003FC000
003FC000
003FC000
003F8000
003F8000
003F8000
003F8000
003F8000
003F8000
003F8000
003F8000
003F8000
003F8000
003F8000
003F8000
00000000
003F8000
003F8000
003F8000
003F0000
007F0000
007E0000
003C0000
ENDCHAR
STARTCHAR 021E
ENCODING 542
SWIDTH 560 0
DWIDTH 28 0
BBX 26 42 1 1
BITMAP
003C1F00
007E3F00
007FFF00
003FFE00
001FFC00
0007F800
0003E000
00018000
00000000
00F80000
0FFC1FC0
1FF83FC0
1FF83FC0
1FFC7FC0
1FF83FC0
1FF83FC0
1FF87FC0
1FF87FC0
1FF87FC0
1FF87FC0
1FF87FC0
1FF8FFC0
3FFFFFC0
3FFFFF80
3FFFFF80
3FFFFF80
3FFFFF80
3FFFFF80
3FFFFFC0
3FFFFFC0
3FFFFFC0
3FF7FFC0
7FF0FFC0
7FF0FFC0
7FF0FF80
7FF0FF80
7FF0FF80
7FF1FF80
7FF1FF80
7FF0FF80
FFF0FF80
FFF1F000
ENDCHAR
STARTCHAR 021F
ENCODING 543
SWIDTH 560 0
DWIDTH 28 0
BBX 26 42 1 1
BITMAP
003C1F00
007E3F00
007FFF00
003FFE00
001FFC00
0007F800
0003E000
00018000
00000000
00F80000
0FFC1FC0
1FF83FC0
1FF83FC0
1FFC7FC0
1FF83FC0
1FF83FC0
1FF87FC0
1FF87FC0
1FF87FC0
1FF87FC0
1FF87FC0
1FF8FFC0
3FFFFFC0
3FFFFF80
3FFFFF80
3FFFFF80
3FFFFF80
3FFFFF80
3FFFFFC0
3FFFFFC0
3FFFFFC0
3FF7FFC0
7FF0FFC0
7FF0FFC0
7FF0FF80
7FF0FF80
7FF0FF80
7FF1FF80
7FF1FF80
7FF0FF80
FFF0FF80
FFF1F000
ENDCHAR
STARTCHAR 0224
ENCODING 548
SWIDTH 600 0
DWIDTH 30 0
BBX 28 41 1 -7
BITMAP
00FFFF00
0FFFFF00
3FFFFE00
7FFFFC00
7FFFFC00
FFFFF800
FFFFF000
FFFFF000
FF0FE000
001FE000
001FE000
001FC000
003FC000
003F8000
003F8000
007F8000
007F0000
007F0000
00FF0000
00FF0000
01FF0000
01FE0000
01FE0000
03FC0000
03FC0000
03FFFFF0
07FFFFF0
07FFFFF0
07FFFFF0
07FFFFF0
07FFFFF0
07FFFFF0
00001FF0
00003FF0
0001FFF0
0001FFE0
0001FFE0
0001FFC0
0001FF80
0001FE00
00008000
ENDCHAR
STARTCHAR 0225
ENCODING 549
SWIDTH 600 0
DWIDTH 30 0
BBX 28 41 1 -7
BITMAP
00FFFF00
0FFFFF00
3FFFFE00
7FFFFC00
7FFFFC00
FFFFF800
FFFFF000
FFFFF000
FF0FE000
001FE000
001FE000
001FC000
003FC000
003F8000
003F8000
007F8000
007F0000
007F0000
00FF0000
00FF0000
01FF0000
01FE0000
01FE0000
03FC0000
03FC0000
03FFFFF0
07FFFFF0
07FFFFF0
07FFFFF0
07FFFFF0
07FFFFF0
07FFFFF0
00001FF0
00003FF0
0001FFF0
0001FFE0
0001FFE0
0001FFC0
0001FF80
0001FE00
00008000
ENDCHAR
STARTCHAR 0226
ENCODING 550
SWIDTH 620 0
DWIDTH 31 0
BBX 30 41 1 -1
BITMAP
0003C000
0007C000
0007C000
0007C000
0003C000
00000000
0001C000
0007E000
0007E000
0007E000
000FF000
000FF000
001FF000
001FF000
001FF800
003FF800
003FF800
003FF800
007FFC00
007FFC00
00FFFC00
00FFFE00
00FFFE00
01FFFE00
01F3FF00
03F1FF00
03E1FF00
07C1FF80
07C1FF80
0FFFFF80
0FFFFFC0
0FFFFFC0
1FFFFFC0
1FF8FFE0
3FE0FFE0
3FC0FFF0
7FC0FFF0
7F807FF8
FF807FF8
FF807FFC
FE002000
ENDCHAR
STARTCHAR 0227
ENCODING 551
SWIDTH 620 0
DWIDTH 31 0
BBX 30 41 1 -1
BITMAP
0003C000
0007C000
0007C000
0007C000
0003C000
00000000
0001C000
0007E000
0007E000
0007E000
000FF000
000FF000
001FF000
001FF000
001FF800
003FF800
003FF800
003FF800
007FFC00
007FFC00
00FFFC00
00FFFE00
00FFFE00
01FFFE00
01F3FF00
03F1FF00
03E1FF00
07C1FF80
07C1FF80
0FFFFF80
0FFFFFC0
0FFFFFC0
1FFFFFC0
1FF8FFE0
3FE0FFE0
3FC0FFF0
7FC0FFF0
7F807FF8
FF807FF8
FF807FFC
FE002000
ENDCHAR
STARTCHAR 0228
ENCODING 552
SWIDTH 480 0
DWIDTH 24 0
BBX 23 43 1 -8
BITMAP
07FC00
3FFFC0
FFFFC0
FFFFC0
FFFF80
7FFF80
7FFF80
7FFF80
7FFF80
7FFF80
3FFF00
3FC000
3FC000
3FE000
3FE380
1FFF80
1FFF00
1FFF00
1FFF80
1FFE80
1FF000
0FF000
0FFFF8
0FFFF8
0FFFFC
0FFFFC
0FFFFC
0FFFFC
0FFFFE
0FFFFE
0FFFFE
07FFFC
07FFC0
07FF00
039F80
001F80
000FC0
0007F0
0001F8
00E1F8
01FFF8
01FFF8
007FF0
ENDCHAR
STARTCHAR 0229
ENCODING 553
SWIDTH 480 0
DWIDTH 24 0
BBX 23 43 1 -8
BITMAP
07FC00
3FFFC0
FFFFC0
FFFFC0
FFFF80
7FFF80
7FFF80
7FFF80
7FFF80
7FFF80
3FFF00
3FC000
3FC000
3FE000
3FE380
1FFF80
1FFF00
1FFF00
1FFF80
1FFE80
1FF000
0FF000
0FFFF8
0FFFF8
0FFFFC
0FFFFC
0FFFFC
0FFFFC
0FFFFE
0FFFFE
0FFFFE
07FFFC
07FFC0
07FF00
039F80
001F80
000FC0
0007F0
0001F8
00E1F8
01FFF8
01FFF8
007FF0
ENDCHAR
STARTCHAR 022A
ENCODING 554
SWIDTH 520 0
DWIDTH 26 0
BBX 25 45 1 0
BITMAP
3FFF0000
3FFF0000
3FFF0000
3FFF0000
00000000
1C080000
3E1E0000
3E3F0000
3E3E0000
1C1E0000
01E00000
01F80000
03FE0000
07FF0000
0FFFC000
0FFFE000
1FFFF000
1FFFF800
1FFFF800
3FFFFC00
3FFFFE00
7FFFFE00
7FFFFE00
7FE3FF00
FFC1FF00
FF81FF00
FF81FF80
FF81FF80
FF81FF80
FF81FF80
FFC1FF80
FFE3FF80
FFFFFF80
7FFFFF80
7FFFFF00
7FFFFF00
7FFFFF00
3FFFFF00
3FFFFE00
1FFFFE00
1FFFFE00
0FFFFC00
07FFF800
01FFF000
007FC000
ENDCHAR
STARTCHAR 022B
ENCODING 555
SWIDTH 520 0
DWIDTH 26 0
BBX 25 45 1 0
BITMAP
3FFF0000
3FFF0000
3FFF0000
3FFF0000
00000000
1C080000
3E1E0000
3E3F0000
3E3E0000
1C1E0000
01E00000
01F80000
03FE0000
07FF0000
0FFFC000
0FFFE000
1FFFF000
1FFFF800
1FFFF800
3FFFFC00
3FFFFE00
7FFFFE00
7FFFFE00
7FE3FF00
FFC1FF00
FF81FF00
FF81FF80
FF81FF80
FF81FF80
FF81FF80
FFC1FF80
FFE3FF80
FFFFFF80
7FFFFF80
7FFFFF00
7FFFFF00
7FFFFF00
3FFFFF00
3FFFFE00
1FFFFE00
1FFFFE00
0FFFFC00
07FFF800
01FFF000
007FC000
ENDCHAR
STARTCHAR 022C
ENCODING 556
SWIDTH 520 0
DWIDTH 26 0
BBX 25 45 1 0
BITMAP
7FFF0000
7FFF0000
7FFF0000
7F800000
00000000
1F1F0000
3FFF0000
3FFF0000
3DFE0000
78180000
01E00000
01F80000
03FE0000
07FF0000
0FFFC000
0FFFE000
1FFFF000
1FFFF800
1FFFF800
3FFFFC00
3FFFFE00
7FFFFE00
7FFFFE00
7FE3FF00
FFC1FF00
FF81FF00
FF81FF80
FF81FF80
FF81FF80
FF81FF80
FFC1FF80
FFE3FF80
FFFFFF80
7FFFFF80
7FFFFF00
7FFFFF00
7FFFFF00
3FFFFF00
3FFFFE00
1FFFFE00
1FFFFE00
0FFFFC00
07FFF800
01FFF000
007FC000
ENDCHAR
STARTCHAR 022D
ENCODING 557
SWIDTH 520 0
DWIDTH 26 0
BBX 25 45 1 0
BITMAP
7FFF0000
7FFF0000
7FFF0000
7F800000
00000000
1F1F0000
3FFF0000
3FFF0000
3DFE0000
78180000
01E00000
01F80000
03FE0000
07FF0000
0FFFC000
0FFFE000
1FFFF000
1FFFF800
1FFFF800
3FFFFC00
3FFFFE00
7FFFFE00
7FFFFE00
7FE3FF00
FFC1FF00
FF81FF00
FF81FF80
FF81FF80
FF81FF80
FF81FF80
FFC1FF80
FFE3FF80
FFFFFF80
7FFFFF80
7FFFFF00
7FFFFF00
7FFFFF00
3FFFFF00
3FFFFE00
1FFFFE00
1FFFFE00
0FFFFC00
07FFF800
01FFF000
007FC000
ENDCHAR
STARTCHAR 022E
ENCODING 558
SWIDTH 520 0
DWIDTH 26 0
BBX 25 41 1 0
BITMAP
03C00000
03E00000
03E00000
03E00000
03C00000
00000000
01E00000
01F80000
03FE0000
07FF0000
0FFFC000
0FFFE000
1FFFF000
1FFFF800
1FFFF800
3FFFFC00
3FFFFE00
7FFFFE00
7FFFFE00
7FE3FF00
FFC1FF00
FF81FF00
FF81FF80
FF81FF80
FF81FF80
FF81FF80
FFC1FF80
FFE3FF80
FFFFFF80
7FFFFF80
7FFFFF00
7FFFFF00
7FFFFF00
3FFFFF00
3FFFFE00
1FFFFE00
1FFFFE00
0FFFFC00
07FFF800
01FFF000
007FC000
ENDCHAR
STARTCHAR 022F
ENCODING 559
SWIDTH 520 0
DWIDTH 26 0
BBX 25 41 1 0
BITMAP
03C00000
03E00000
03E00000
03E00000
03C00000
00000000
01E00000
01F80000
03FE0000
07FF0000
0FFFC000
0FFFE000
1FFFF000
1FFFF800
1FFFF800
3FFFFC00
3FFFFE00
7FFFFE00
7FFFFE00
7FE3FF00
FFC1FF00
FF81FF00
FF81FF80
FF81FF80
FF81FF80
FF81FF80
FFC1FF80
FFE3FF80
FFFFFF80
7FFFFF80
7FFFFF00
7FFFFF00
7FFFFF00
3FFFFF00
3FFFFE00
1FFFFE00
1FFFFE00
0FFFFC00
07FFF800
01FFF000
007FC000
ENDCHAR
STARTCHAR 0230
ENCODING 560
SWIDTH 520 0
DWIDTH 26 0
BBX 25 45 1 0
BITMAP
7FFF0000
7FFF0000
7FFF0000
7F800000
00800000
01E00000
03F00000
03F00000
01E00000
00000000
01E00000
01F80000
03FE0000
07FF0000
0FFFC000
0FFFE000
1FFFF000
1FFFF800
1FFFF800
3FFFFC00
3FFFFE00
7FFFFE00
7FFFFE00
7FE3FF00
FFC1FF00
FF81FF00
FF81FF80
FF81FF80
FF81FF80
FF81FF80
FFC1FF80
FFE3FF80
FFFFFF80
7FFFFF80
7FFFFF00
7FFFFF00
7FFFFF00
3FFFFF00
3FFFFE00
1FFFFE00
1FFFFE00
0FFFFC00
07FFF800
01FFF000
007FC000
ENDCHAR
STARTCHAR 0231
ENCODING 561
SWIDTH 520 0
DWIDTH 26 0
BBX 25 45 1 0
BITMAP
7FFF0000
7FFF0000
7FFF0000
7F800000
00800000
01E00000
03F00000
03F00000
01E00000
00000000
01E00000
01F80000
03FE0000
07FF0000
0FFFC000
0FFFE000
1FFFF000
1FFFF800
1FFFF800
3FFFFC00
3FFFFE00
7FFFFE00
7FFFFE00
7FE3FF00
FFC1FF00
FF81FF00
FF81FF80
FF81FF80
FF81FF80
FF81FF80
FFC1FF80
FFE3FF80
FFFFFF80
7FFFFF80
7FFFFF00
7FFFFF00
7FFFFF00
3FFFFF00
3FFFFE00
1FFFFE00
1FFFFE00
0FFFFC00
07FFF800
01FFF000
007FC000
ENDCHAR
STARTCHAR 0232
ENCODING 562
SWIDTH 600 0
DWIDTH 30 0
BBX 29 40 1 0
BITMAP
01FFFC00
01FFFC00
01FFFC00
01FFFC00
00000000
00000000
000007F8
07000FF0
3F000FF0
FF801FF0
FFC01FE0
FFC01FE0
7FE03FC0
7FE03FC0
3FF07F80
1FF0FF80
1FF0FF00
1FF9FF00
0FF9FE00
0FFFFE00
07FFFC00
07FFFC00
03FFF800
03FFF800
01FFF000
00FFF000
00FFF000
007FE000
007FC000
003FC000
003FC000
001FC000
001FC000
001FC000
001FE000
001FE000
001FE000
001FE000
001FE000
001F8000
ENDCHAR
STARTCHAR 0233
ENCODING 563
SWIDTH 600 0
DWIDTH 30 0
BBX 29 40 1 0
BITMAP
01FFFC00
01FFFC00
01FFFC00
01FFFC00
00000000
00000000
000007F8
07000FF0
3F000FF0
FF801FF0
FFC01FE0
FFC01FE0
7FE03FC0
7FE03FC0
3FF07F80
1FF0FF80
1FF0FF00
1FF9FF00
0FF9FE00
0FFFFE00
07FFFC00
07FFFC00
03FFF800
03FFF800
01FFF000
00FFF000
00FFF000
007FE000
007FC000
003FC000
003FC000
001FC000
001FC000
001FC000
001FE000
001FE000
001FE000
001FE000
001FE000
001F8000
ENDCHAR
STARTCHAR 0241
ENCODING 577
SWIDTH 460 0
DWIDTH 23 0
BBX 22 35 1 0
BITMAP
0FFC00
1FFFE0
3FFFF0
7FFFF8
7FFFF8
FFFFF8
FFFFF8
FF9FF8
FE07F8
7807FC
0007F8
0007F8
0007F8
0007F8
0007F8
000FF8
001FF8
003FF0
00FFE0
03FFC0
03FF80
07FE00
07FC00
07FC00
07F800
07F800
07F800
07F800
07F800
07F800
07F800
07F800
07F800
07F800
07F800
ENDCHAR
STARTCHAR 0242
ENCODING 578
SWIDTH 460 0
DWIDTH 23 0
BBX 22 35 1 0
BITMAP
0FFC00
1FFFE0
3FFFF0
7FFFF8
7FFFF8
FFFFF8
FFFFF8
FF9FF8
FE07F8
7807FC
0007F8
0007F8
0007F8
0007F8
0007F8
000FF8
001FF8
003FF0
00FFE0
03FFC0
03FF80
07FE00
07FC00
07FC00
07F800
07F800
07F800
07F800
07F800
07F800
07F800
07F800
07F800
07F800
07F800
ENDCHAR
STARTCHAR 0243
ENCODING 579
SWIDTH 520 0
DWIDTH 26 0
BBX 24 34 1 0
BITMAP
3FFC00
FFFF00
FFFFC0
FFFFC0
FFFFC0
FFFFE0
FFFFF0
FF9FF0
7F87F0
7F83F0
7F83F0
7F83F0
7FC7E0
7FCFE0
3FFFC0
3FFF80
3FFFE0
3FFFF8
3FFFFC
3FFFFE
3FF1FE
3FFCFF
FFFCFF
FFFCFF
FFFEFF
FFFEFF
FFFBFF
DFFFFE
1FFFFE
1FFFF8
1FFFF8
1FFFF0
0FFF00
01C000
ENDCHAR
STARTCHAR 0244
ENCODING 580
SWIDTH 580 0
DWIDTH 29 0
BBX 27 33 1 1
BITMAP
0FC01F80
0FE03FC0
1FE03FC0
1FE03FC0
1FC01FC0
1FC01FC0
3FC01FC0
FFFFFFE0
FFFFFFE0
FFFFFFE0
FFFFFFE0
FFFFFFE0
FFFFFFE0
FFFE3FC0
7FC03FC0
7FC07FC0
7FE07FE0
7FE07FC0
7FF07FC0
7FFEFFC0
7FFFFF80
7FFFFF80
7FFFFF80
7FFFFF00
3FFFFF00
3FFFFF00
1FFFFE00
1FFFFC00
0FFFFC00
0FFFF800
07FFF000
01FFE000
007FC000
ENDCHAR
STARTCHAR 0253
ENCODING 595
SWIDTH 660 0
DWIDTH 33 0
BBX 32 34 1 1
BITMAP
01FFFC00
0FFFFF00
1FFFFF80
3FFFFFC0
3FFFFFC0
7FFFFFE0
7FFFFFF0
FFFF9FF0
FFFF87F0
FE7F87F0
FC7F83F0
FC7F83E0
FC7F87E0
FC7FCFE0
7C7FFFC0
7F3FFF80
7F3FFFC0
7F3FFFF8
3F3FFFFC
3F3FFFFC
1F3FF1FE
003FE0FF
003FE0FF
003FF0FF
003FF1FF
001FF3FF
001FF7FF
001FFFFE
001FFFFE
001FFFF8
001FFFF8
001FFFE0
000FFF00
00018000
ENDCHAR
STARTCHAR 0254
ENCODING 596
SWIDTH 480 0
DWIDTH 24 0
BBX 23 34 1 0
BITMAP
03F000
1FFE00
3FFF80
FFFFC0
FFFFE0
FFFFF0
FFFFF8
FFFFF8
FFFFFC
5FFFFC
003FFC
001FFE
000FFE
0007FE
0007FE
0007FE
0007FE
000FFE
401FFE
FF3FFE
FFFFFE
FFFFFC
FFFFFC
FFFFFC
FFFFFC
FFFFF8
FFFFF8
FFFFF0
7FFFF0
3FFFE0
1FFFE0
0FFFC0
03FE00
008000
ENDCHAR
STARTCHAR 0256
ENCODING 598
SWIDTH 480 0
DWIDTH 24 0
BBX 24 34 0 0
BITMAP
0FF000
3FFE00
3FFF80
3FFFC0
3FFFE0
3FFFF0
3FFFF8
3FFFFC
3FFFFC
1FF3FE
1FF0FE
1FFE7E
1FFE7F
FFFE7F
FFFE7F
FFFE7F
FFFEFF
FFFCFE
FFF1FE
2FF3FC
0FFFFC
0FFFF8
0FFFF8
07FFF0
07FFF0
07FFE0
07FFC0
07FFC0
03FF80
03FF00
03FC00
03F800
01E000
010000
ENDCHAR
STARTCHAR 0257
ENCODING 599
SWIDTH 620 0
DWIDTH 31 0
BBX 30 34 1 0
BITMAP
00FFE000
0FFFF800
1FFFFF00
3FFFFF80
3FFFFF80
7FFFFFC0
7FFFFFE0
FFFFFFF0
FFFFFFF0
FE7FC7F8
FC7FC1F8
FC7FC1FC
FC7FC1FC
FC7FC1FC
7C7FC1FC
7F7FC1FC
7F7FC1FC
7F3FC3F8
3F3FC7F8
3F3FCFF8
1F3FFFF0
003FFFF0
001FFFE0
001FFFE0
001FFFC0
001FFF80
001FFF80
000FFF00
000FFE00
000FFC00
000FF800
0007E000
00078000
00060000
ENDCHAR
STARTCHAR 0259
ENCODING 601
SWIDTH 480 0
DWIDTH 24 0
BBX 23 34 1 0
BITMAP
07FE00
1FFF00
3FFF80
7FFFC0
FFFFC0
FFFFE0
FFFFF0
7E7FF0
000FF0
0003F8
0001F8
0001F8
0001F8
FFFFFC
FFFFFC
FFFFFC
FFFFFC
FFFFFC
FFFFFC
FF83FC
FF83FC
7F83FE
7F87FE
7FFFFE
7FFFFE
7FFFFE
7FFFFC
7FFFFC
3FFFFC
1FFFF8
0FFFF0
07FFE0
01FFC0
000200
ENDCHAR
STARTCHAR 025B
ENCODING 603
SWIDTH 480 0
DWIDTH 24 0
BBX 23 35 1 0
BITMAP
01FC00
07FF00
1FFFE0
1FFFF0
3FFFF0
7FFFF8
7FFFF8
FFE000
FFC000
FF8000
FF8000
FF8000
FF8000
7FC000
7FE000
3FFF80
3FFFC0
1FFFC0
0FFFC0
1FFF80
1FFC00
3FE000
3FC000
3FC000
3FC000
3FC000
7FE03E
3FFBFE
3FFFFE
3FFFFE
1FFFFC
0FFFFC
07FFF8
03FFF0
007F80
ENDCHAR
STARTCHAR 0260
ENCODING 608
SWIDTH 500 0
DWIDTH 25 0
BBX 24 42 1 0
BITMAP
00003E
0001FF
0003FF
000FFF
000FFF
001FFF
001FFC
001FF0
001FF0
007FF0
00FFF0
01FFF8
03FFFC
07FFFC
07FFFE
0FFFFC
1FF9F8
1FE000
1FC000
3F8000
3F8000
3F0000
3F0000
7F00FE
7F07FE
7F0FFE
7F07FE
FF07FE
FF07FE
FF07FE
FF07FE
FF87FE
FFFFFE
FFFFFE
FFFFFE
FFFFFE
FFFFFC
7FFFF8
7FFFE0
3FFF80
1FFE00
07F800
ENDCHAR
STARTCHAR 0263
ENCODING 611
SWIDTH 600 0
DWIDTH 30 0
BBX 29 40 1 -6
BITMAP
0E000000
FF000600
FF000FE0
7F000FF8
7F801FF8
7F801FF0
3F803FF0
3F803FE0
3FC03FE0
3FC07FC0
1FE07FC0
1FE07F80
0FE0FF80
0FF0FF80
07F1FF00
07F9FF00
03F9FE00
03FFFE00
01FFFC00
01FFFC00
00FFF800
00FFF800
007FF000
003FE000
007FE000
00FFF000
00FFF000
01FFF800
01FBF800
03F1F800
03F0F800
03E0F800
03E0F800
03F1F800
03F1F800
01FFF000
00FFE000
00FFE000
007FC000
003F0000
ENDCHAR
STARTCHAR 0268
ENCODING 616
SWIDTH 360 0
DWIDTH 18 0
BBX 17 34 1 0
BITMAP
03F800
0FFF00
0FFE00
07FE00
0FFE00
0FFE00
0FFE00
0FFC00
0FFC00
0FFC00
0FFC00
1FFC00
1FFC00
1FFC00
1FFF80
FFFF00
FFFF00
FFFF00
FFFF00
FFFF00
1FFC00
1FFC00
1FFC00
1FFC00
1FFC00
1FFC00
1FFC00
1FFC00
3FF800
3FF800
3FF800
3FF800
7FE000
7C0000
ENDCHAR
STARTCHAR 0272
ENCODING 626
SWIDTH 560 0
DWIDTH 28 0
BBX 31 40 -3 -7
BITMAP
00FF01F8
01FF87FC
01FF87FE
01FF87FC
01FF87FC
03FF87FC
03FF87FC
03FF87FC
03FFC7FC
03FFC7FC
03FFC7FC
03FFE7F8
07FFE7F8
07FFEFF8
07FFEFF8
07FFFFF8
07FFFFF8
07FFFFF8
07FFFFF8
07FFFFF8
07FEFFF8
07FEFFF8
07FCFFF8
07FC7FF8
0FFC7FF8
0FFC7FF0
0FFC3FF0
0FFC3FF0
0FFC3FF0
0FF83FF0
0FF83FF0
0FF83FE0
1FF80000
FFF00000
FFF00000
FFF00000
FFE00000
FF800000
FF000000
C0000000
ENDCHAR
STARTCHAR 0278
ENCODING 632
SWIDTH 660 0
DWIDTH 33 0
BBX 31 39 1 -2
BITMAP
001FF800
001FF800
001FF800
001FF800
01DFF800
0FFFFFF0
1FFFFFF8
3FFFFFF8
3FFFFFFC
7FFFFFFC
7FFFFFFC
7FFFFFFE
7FFFFFFE
FFFFFFFE
FFDFF7FE
FF9FF3FE
FF9FF3FE
FF1FF3FE
FF1FF3FE
FF1FF3FE
FF9FF3FE
FF9FE3FE
FF9FE3FE
FF9FE3FE
FFDFE7FC
FFFFEFFC
FFFFFFFC
7FFFFFF8
7FFFFFF8
7FFFFFF0
7FFFFFE0
3FFFFFC0
3FFFFFC0
1FBFFF80
003FDF00
007F8000
007F8000
007F8000
007F8000
ENDCHAR
STARTCHAR 0289
ENCODING 649
SWIDTH 580 0
DWIDTH 29 0
BBX 27 33 1 1
BITMAP
0FC01F80
0FE03FC0
1FE03FC0
1FE03FC0
1FC01FC0
1FC01FC0
3FC01FC0
FFFFFFE0
FFFFFFE0
FFFFFFE0
FFFFFFE0
FFFFFFE0
FFFFFFE0
FFFE3FC0
7FC03FC0
7FC07FC0
7FE07FE0
7FE07FC0
7FF07FC0
7FFEFFC0
7FFFFF80
7FFFFF80
7FFFFF80
7FFFFF00
3FFFFF00
3FFFFF00
1FFFFE00
1FFFFC00
0FFFFC00
0FFFF800
07FFF000
01FFE000
007FC000
ENDCHAR
STARTCHAR 028B
ENCODING 651
SWIDTH 560 0
DWIDTH 28 0
BBX 26 34 1 1
BITMAP
00038000
7C0FE000
FC1FF000
FE1FF800
FE0FFC00
FE07FC00
FE03FE00
FF03FF00
FF01FF00
FF00FF80
FF00FF80
FF007FC0
FF807FC0
FF807FC0
FF807FC0
FF807FC0
FFC07FC0
FFC07FC0
7FC07FC0
7FE0FFC0
7FE1FFC0
3FFFFFC0
3FFFFFC0
3FFFFFC0
1FFFFFC0
1FFFFF80
1FFFFF80
0FFFFF00
07FFFF00
07FFFE00
03FFFE00
01FFFC00
00FFF000
007FC000
ENDCHAR
STARTCHAR 0292
ENCODING 658
SWIDTH 480 0
DWIDTH 24 0
BBX 23 35 1 -1
BITMAP
1FFFE0
7FFFF0
7FFFF8
7FFFF8
3FFFF0
1FFFE0
0007E0
000FC0
001F80
007F80
00FF00
01FF00
03FFC0
0FFFF0
1FFFF8
1FFFF8
1FFFF8
07FFFC
0003FC
0000FC
0000FE
00007E
00007E
00007E
F000FE
FF01FE
FFFFFE
FFFFFC
FFFFFC
FFFFF8
7FFFF8
3FFFF0
0FFFE0
03FF80
003C00
ENDCHAR
STARTCHAR 0294
ENCODING 660
SWIDTH 460 0
DWIDTH 23 0
BBX 22 35 1 0
BITMAP
0FFC00
1FFFE0
3FFFF0
7FFFF8
7FFFF8
FFFFF8
FFFFF8
FF9FF8
FE07F8
7807FC
0007F8
0007F8
0007F8
0007F8
0007F8
000FF8
001FF8
003FF0
00FFE0
03FFC0
03FF80
07FE00
07FC00
07FC00
07F800
07F800
07F800
07F800
07F800
07F800
07F800
07F800
07F800
07F800
07F800
ENDCHAR
STARTCHAR 0295
ENCODING 661
SWIDTH 460 0
DWIDTH 23 0
BBX 21 35 1 0
BITMAP
01FF80
3FFFE0
7FFFE0
7FFFF0
FFFFF8
FFFFF8
FFFFF8
FFEFF8
FF01F8
FF00F0
FF0000
FF0000
FF0000
FF0000
FF0000
FF8000
7FC000
7FF000
3FFC00
1FFE00
07FF00
03FF00
01FF00
00FF00
00FF00
00FF00
00FF00
00FF00
00FF00
00FF00
00FF00
00FF00
00FF00
007F00
007F00
ENDCHAR
STARTCHAR 0296
ENCODING 662
SWIDTH 460 0
DWIDTH 23 0
BBX 22 35 1 0
BITMAP
07F800
07F800
07F800
07F800
07F800
07F800
07F800
07F800
07F800
07F800
07F800
07FC00
07FE00
07FF00
03FF80
03FFC0
00FFF0
003FF0
001FF8
000FF8
0007F8
0007F8
0007F8
0007F8
0007F8
7807FC
FE07F8
FFFFF8
FFFFF8
FFFFF8
7FFFF8
7FFFF0
3FFFF0
1FFFC0
07FC00
ENDCHAR
STARTCHAR 02B9
ENCODING 697
SWIDTH 200 0
DWIDTH 10 0
BBX 9 18 1 18
BITMAP
1F80
1F80
1F80
3F80
3F00
3F00
3F00
7E00
7E00
7C00
7C00
7C00
F800
F800
F800
F800
F000
3000
ENDCHAR
STARTCHAR 02BA
ENCODING 698
SWIDTH 380 0
DWIDTH 19 0
BBX 18 18 1 18
BITMAP
1F8FC0
1F8FC0
1F8FC0
3F8FC0
3F1F80
3F1F80
3F1F80
7E1F00
7E3F00
7C3F00
7C3E00
7C3E00
F83E00
F87C00
F87C00
F87C00
F07C00
301800
ENDCHAR
STARTCHAR 02BB
ENCODING 699
SWIDTH 200 0
DWIDTH 10 0
BBX 9 18 1 19
BITMAP
0E00
1F00
3F00
3F80
3F80
7F80
7F00
7F00
FF00
FF00
FF00
FF00
FF00
FF00
FF00
FF00
FE00
0C00
ENDCHAR
STARTCHAR 02BC
ENCODING 700
SWIDTH 200 0
DWIDTH 10 0
BBX 9 18 1 19
BITMAP
7F00
7F80
7F80
7F80
7F80
7F80
7F80
7F00
7F00
FF00
FF00
FE00
FE00
FE00
FC00
7C00
3800
1000
ENDCHAR
STARTCHAR 02BD
ENCODING 701
SWIDTH 200 0
DWIDTH 10 0
BBX 9 18 1 18
BITMAP
0400
FE00
FF00
FF00
FF00
FF00
FF00
FF00
FF00
FF00
7F00
7F00
7F80
3F80
3F80
3F00
1F00
0E00
ENDCHAR
STARTCHAR 02C6
ENCODING 710
SWIDTH 320 0
DWIDTH 16 0
BBX 15 8 1 35
BITMAP
0380
0FE0
1FF0
3FF8
7FFC
FE7E
F83E
0010
ENDCHAR
STARTCHAR 02C7
ENCODING 711
SWIDTH 320 0
DWIDTH 16 0
BBX 15 8 1 35
BITMAP
F03C
FC7E
FFFC
7FFC
3FF8
1FE0
07C0
0300
ENDCHAR
STARTCHAR 02C8
ENCODING 712
SWIDTH 120 0
DWIDTH 6 0
BBX 4 9 1 35
BITMAP
30
F0
F0
F0
F0
F0
F0
F0
F0
ENDCHAR
STARTCHAR 02C9
ENCODING 713
SWIDTH 320 0
DWIDTH 16 0
BBX 15 4 1 35
BITMAP
FFFC
FFFE
FFFE
FFFE
ENDCHAR
STARTCHAR 02CA
ENCODING 714
SWIDTH 220 0
DWIDTH 11 0
BBX 10 8 1 35
BITMAP
1FC0
1FC0
3F80
7F00
7E00
FC00
F800
1000
ENDCHAR
STARTCHAR 02CB
ENCODING 715
SWIDTH 220 0
DWIDTH 11 0
BBX 10 8 1 35
BITMAP
FE00
FE00
7F00
3F00
1F80
0F80
07C0
0200
ENDCHAR
STARTCHAR 02CC
ENCODING 716
SWIDTH 120 0
DWIDTH 6 0
BBX 4 8 1 -8
BITMAP
F0
F0
F0
F0
F0
F0
F0
F0
ENDCHAR
STARTCHAR 02CD
ENCODING 717
SWIDTH 320 0
DWIDTH 16 0
BBX 15 4 1 -6
BITMAP
7FFC
FFFE
FFFE
FFFC
ENDCHAR
STARTCHAR 02D0
ENCODING 720
SWIDTH 200 0
DWIDTH 10 0
BBX 9 26 1 -1
BITMAP
7F00
FF80
FF80
FF80
FF00
7F00
7E00
3E00
3C00
1800
0000
0000
0000
0000
0000
0800
1C00
3C00
3E00
7E00
7F00
FF00
FF80
FF80
FF80
0E00
ENDCHAR
STARTCHAR 02D1
ENCODING 721
SWIDTH 200 0
DWIDTH 10 0
BBX 9 10 1 15
BITMAP
7F00
FF80
FF80
FF80
FF00
7F00
7E00
3E00
3C00
1800
ENDCHAR
STARTCHAR 02D8
ENCODING 728
SWIDTH 320 0
DWIDTH 16 0
BBX 15 8 1 35
BITMAP
F03E
F03E
F8FC
7FFC
7FF8
3FF0
1FE0
0700
ENDCHAR
STARTCHAR 02D9
ENCODING 729
SWIDTH 120 0
DWIDTH 6 0
BBX 5 5 1 35
BITMAP
78
F8
F8
F8
70
ENDCHAR
STARTCHAR 02DA
ENCODING 730
SWIDTH 320 0
DWIDTH 16 0
BBX 15 13 1 30
BITMAP
0FE0
3FF0
7FF8
FCFC
F87C
F83E
F83E
F83C
F87C
7FF8
3FF0
1FE0
0F80
ENDCHAR
STARTCHAR 02DB
ENCODING 731
SWIDTH 280 0
DWIDTH 14 0
BBX 13 11 1 -7
BITMAP
0C00
1C00
3C00
3C00
7800
F800
F800
FDF8
FFF8
FFF8
7FF8
ENDCHAR
STARTCHAR 02DC
ENCODING 732
SWIDTH 320 0
DWIDTH 16 0
BBX 14 8 1 35
BITMAP
187C
7E7C
FFFC
FFFC
FFFC
FFF8
F3F0
F0E0
ENDCHAR
STARTCHAR 02DD
ENCODING 733
SWIDTH 400 0
DWIDTH 20 0
BBX 19 8 1 35
BITMAP
1FCFE0
1FDFC0
3F9F80
7F3F80
7E7F00
FC7E00
F87C00
100800
ENDCHAR
STARTCHAR 0300
ENCODING 768
SWIDTH 0 0
DWIDTH 0 0
BBX 10 8 -21 35
BITMAP
FE00
7F00
3F00
1F80
1FC0
0FC0
07C0
0200
ENDCHAR
STARTCHAR 0301
ENCODING 769
SWIDTH 0 0
DWIDTH 0 0
BBX 10 8 -14 35
BITMAP
1FC0
3F80
3F80
7F00
7E00
FC00
F800
1000
ENDCHAR
STARTCHAR 0302
ENCODING 770
SWIDTH 0 0
DWIDTH 0 0
BBX 15 8 -21 35
BITMAP
0380
0FE0
3FF0
7FF8
FFFC
FEFE
F83E
0010
ENDCHAR
STARTCHAR 0303
ENCODING 771
SWIDTH 0 0
DWIDTH 0 0
BBX 15 8 -21 35
BITMAP
183C
7E7E
FFFC
FFFC
FFFC
FFF8
F3F0
F040
ENDCHAR
STARTCHAR 0304
ENCODING 772
SWIDTH 0 0
DWIDTH 0 0
BBX 15 4 -21 35
BITMAP
FFFC
FFFC
FFFC
FFFE
ENDCHAR
STARTCHAR 0305
ENCODING 773
SWIDTH 0 0
DWIDTH 0 0
BBX 18 7 -23 35
BITMAP
001000
FFFFC0
FFFFC0
FFFFC0
FFFFC0
FFFFC0
7FFFC0
ENDCHAR
STARTCHAR 0306
ENCODING 774
SWIDTH 0 0
DWIDTH 0 0
BBX 15 8 -21 35
BITMAP
F01E
F83E
FC7C
7FFC
7FF8
3FF8
1FE0
0380
ENDCHAR
STARTCHAR 0307
ENCODING 775
SWIDTH 0 0
DWIDTH 0 0
BBX 5 5 -16 35
BITMAP
F8
F8
F8
F8
70
ENDCHAR
STARTCHAR 0308
ENCODING 776
SWIDTH 0 0
DWIDTH 0 0
BBX 14 6 -21 35
BITMAP
1000
7878
FC7C
FC7C
7C7C
3038
ENDCHAR
STARTCHAR 030A
ENCODING 778
SWIDTH 0 0
DWIDTH 0 0
BBX 15 12 -21 34
BITMAP
0100
1FE0
3FF8
7FFC
F87C
F83C
F83E
F83E
FC7C
7FFC
3FF8
0FE0
ENDCHAR
STARTCHAR 030B
ENCODING 779
SWIDTH 0 0
DWIDTH 0 0
BBX 19 8 -20 35
BITMAP
0FCFE0
1FCFE0
3F9FC0
3F1F80
7E3F00
7C3E00
FC7C00
180000
ENDCHAR
STARTCHAR 030C
ENCODING 780
SWIDTH 0 0
DWIDTH 0 0
BBX 15 8 -21 35
BITMAP
F03C
F8FE
FFFC
7FF8
3FF0
1FE0
07C0
0300
ENDCHAR
STARTCHAR 030D
ENCODING 781
SWIDTH 0 0
DWIDTH 0 0
BBX 5 9 -16 35
BITMAP
30
F8
F0
F0
F0
F0
F0
F0
F0
ENDCHAR
STARTCHAR 0311
ENCODING 785
SWIDTH 0 0
DWIDTH 0 0
BBX 15 8 -21 35
BITMAP
0FC0
1FE0
7FF0
7FF8
FFFC
F87C
F03E
F03E
ENDCHAR
STARTCHAR 0323
ENCODING 803
SWIDTH 0 0
DWIDTH 0 0
BBX 5 6 -16 -8
BITMAP
20
F0
F8
F8
F8
60
ENDCHAR
STARTCHAR 0326
ENCODING 806
SWIDTH 0 0
DWIDTH 0 0
BBX 8 7 -19 -8
BITMAP
7F
7F
7F
7E
FE
FC
78
ENDCHAR
STARTCHAR 0327
ENCODING 807
SWIDTH 0 0
DWIDTH 0 0
BBX 13 12 -21 -8
BITMAP
1F00
1F00
1F80
1F80
0F80
0FE0
07F0
01F8
E1F8
FFF8
FFF8
7FF0
ENDCHAR
STARTCHAR 0328
ENCODING 808
SWIDTH 0 0
DWIDTH 0 0
BBX 13 12 -20 -8
BITMAP
0400
0C00
1E00
1C00
3C00
7C00
7800
F800
FFF8
FFF8
7FF8
3FF8
ENDCHAR
STARTCHAR 0329
ENCODING 809
SWIDTH 0 0
DWIDTH 0 0
BBX 4 8 -16 -8
BITMAP
F0
F0
F0
F0
F0
F0
F0
F0
ENDCHAR
STARTCHAR 0331
ENCODING 817
SWIDTH 0 0
DWIDTH 0 0
BBX 15 4 -21 -6
BITMAP
7FFC
FFFE
FFFE
FFFE
ENDCHAR
STARTCHAR 0342
ENCODING 834
SWIDTH 0 0
DWIDTH 0 0
BBX 15 8 -21 35
BITMAP
183C
7E7E
FFFC
FFFC
FFFC
FFF8
F3F0
F040
ENDCHAR
STARTCHAR 0344
ENCODING 836
SWIDTH 0 0
DWIDTH 0 0
BBX 14 10 -21 35
BITMAP
00F0
01F0
03E0
03C0
0380
3378
7C7C
FC7C
F87C
7838
ENDCHAR
STARTCHAR 0345
ENCODING 837
SWIDTH 0 0
DWIDTH 0 0
BBX 9 8 -16 -8
BITMAP
F000
F000
F000
F000
F800
FF80
7F80
3F80
ENDCHAR
STARTCHAR 0374
ENCODING 884
SWIDTH 200 0
DWIDTH 10 0
BBX 9 8 1 28
BITMAP
1F80
3F00
3F00
7E00
7C00
FC00
F800
F000
ENDCHAR
STARTCHAR 0375
ENCODING 885
SWIDTH 200 0
DWIDTH 10 0
BBX 9 8 1 -8
BITMAP
0F00
0F80
1F00
3F00
3E00
7E00
FC00
FC00
ENDCHAR
STARTCHAR 037A
ENCODING 890
SWIDTH 200 0
DWIDTH 10 0
BBX 9 8 1 -8
BITMAP
F000
F000
F000
F000
F800
FF80
7F80
3F80
ENDCHAR
STARTCHAR 037B
ENCODING 891
SWIDTH 480 0
DWIDTH 24 0
BBX 23 34 1 0
BITMAP
03F000
1FFE00
3FFF80
FFFFC0
FFFFE0
FFFFF0
FFFFF8
FFFFF8
FFFFFC
5FFFFC
003FFC
001FFE
000FFE
0007FE
0007FE
0007FE
0007FE
000FFE
401FFE
FF3FFE
FFFFFE
FFFFFC
FFFFFC
FFFFFC
FFFFFC
FFFFF8
FFFFF8
FFFFF0
7FFFF0
3FFFE0
1FFFE0
0FFFC0
03FE00
008000
ENDCHAR
STARTCHAR 037E
ENCODING 894
SWIDTH 200 0
DWIDTH 10 0
BBX 9 33 1 -8
BITMAP
0800
3F00
7F80
FF80
FF80
FF80
FF80
FF00
3E00
0400
0000
0000
0000
0000
0000
0000
3E00
7F80
7F80
7F80
7F80
7F80
7F80
7F80
7F00
FF00
FF00
FE00
FE00
FE00
FC00
7C00
3800
ENDCHAR
STARTCHAR 037F
ENCODING 895
SWIDTH 460 0
DWIDTH 23 0
BBX 21 34 1 0
BITMAP
003C70
003FF0
007FF0
007FF8
007FF8
007FF8
007FF8
00FFF8
00FFF8
00FFF8
00FFF8
00FFF8
00FFF8
00FFF8
00FFF8
00FFF8
00FFF8
007FF8
007FF8
007FF8
003FF8
003FF8
003FF8
FE1FF8
FF1FF0
FFBFF0
FFBFF0
FFFFE0
FFFFE0
7FFFC0
3FFF80
1FFF00
0FFE00
01FC00
ENDCHAR
STARTCHAR 0384
ENCODING 900
SWIDTH 160 0
DWIDTH 8 0
BBX 7 8 1 28
BITMAP
3E
3E
7C
7C
78
F0
F0
60
ENDCHAR
STARTCHAR 0385
ENCODING 901
SWIDTH 300 0
DWIDTH 15 0
BBX 14 10 1 35
BITMAP
01E0
03E0
03C0
0780
0780
7378
F8FC
F8FC
F8F8
7030
ENDCHAR
STARTCHAR 0386
ENCODING 902
SWIDTH 620 0
DWIDTH 31 0
BBX 30 37 1 -1
BITMAP
01F00000
01F00000
03E1C000
03C7E000
07C7E000
0787E000
070FF000
030FF000
001FF000
001FF000
001FF800
003FF800
003FF800
003FF800
007FFC00
007FFC00
00FFFC00
00FFFE00
00FFFE00
01FFFE00
01F3FF00
03F1FF00
03E1FF00
07C1FF80
07C1FF80
0FFFFF80
0FFFFFC0
0FFFFFC0
1FFFFFC0
1FF8FFE0
3FE0FFE0
3FC0FFF0
7FC0FFF0
7F807FF8
FF807FF8
FF807FFC
FE002000
ENDCHAR
STARTCHAR 0387
ENCODING 903
SWIDTH 200 0
DWIDTH 10 0
BBX 9 10 1 15
BITMAP
0800
3F00
7F80
FF80
FF80
FF80
FF80
FF00
3E00
0400
ENDCHAR
STARTCHAR 0388
ENCODING 904
SWIDTH 580 0
DWIDTH 29 0
BBX 29 36 0 0
BITMAP
1E000000
3E1FF000
3DFFFF00
7FFFFF00
7BFFFE00
FBFFFE00
F3FFFE00
71FFFE00
01FFFC00
01FFFC00
01FFFE00
01FFFC00
00FF0000
00FF0000
00FF0000
00FF9C00
00FFFC00
00FFFC00
007FFC00
007FFE00
007FF600
007F8000
007FC040
007FFFE0
003FFFE0
003FFFE0
003FFFF0
003FFFF0
003FFFF0
003FFFF0
003FFFF0
003FFFF8
003FFFF0
003FFF00
001FF000
001E0000
ENDCHAR
STARTCHAR 0389
ENCODING 905
SWIDTH 600 0
DWIDTH 30 0
BBX 30 35 0 1
BITMAP
1E000000
3E000000
3C1F0000
7DFF8178
7BFF07FC
FBFF07FC
F3FF87FC
71FF87FC
01FF87F8
03FF0FF8
03FF0FF8
03FF0FF8
03FF0FF8
03FF0FF8
03FF0FF8
03FFFFF8
03FFFFF8
03FFFFF8
07FFFFF8
07FFFFF8
07FFFFF8
07FFFFF8
07FFFFF8
07FFFFF8
07FF7FF8
07FE1FF8
07FE1FF8
07FE1FF8
07FE1FF8
07FE1FF8
0FFE1FF0
0FFE1FF0
0FFE1FF0
0FFE1FF0
1FFE3E00
ENDCHAR
STARTCHAR 038A
ENCODING 906
SWIDTH 380 0
DWIDTH 19 0
BBX 18 36 0 0
BITMAP
1E0000
3E0000
3C7F00
7DFFC0
79FFC0
F9FFC0
F1FF80
71FF80
01FF80
01FF80
03FF80
03FF80
03FF80
03FF80
03FF80
03FF80
03FF00
03FF00
03FF00
03FF00
07FF00
07FF00
07FF00
07FF00
07FF00
07FF00
07FF00
07FF00
07FF80
07FF80
07FF00
07FF00
07FF00
0FFF00
0FFC00
1F8000
ENDCHAR
STARTCHAR 038C
ENCODING 908
SWIDTH 540 0
DWIDTH 27 0
BBX 27 36 0 0
BITMAP
1E000000
3E780000
3CFE0000
7CFF8000
79FFC000
FBFFF000
F3FFF800
77FFFC00
07FFFC00
0FFFFE00
0FFFFF00
1FFFFF00
1FFFFF80
1FFFFF80
3FF0FFC0
3FF07FC0
3FE07FC0
3FE07FC0
3FE07FE0
3FE07FE0
3FE07FE0
3FF07FE0
3FF8FFE0
3FFFFFE0
3FFFFFC0
1FFFFFC0
1FFFFFC0
1FFFFFC0
0FFFFFC0
0FFFFF80
07FFFF80
07FFFF80
03FFFF00
01FFFE00
007FF800
001FF000
ENDCHAR
STARTCHAR 038E
ENCODING 910
SWIDTH 680 0
DWIDTH 34 0
BBX 34 36 0 0
BITMAP
1E00000000
3E00000000
3C00003FC0
7C38007F80
79F8007F80
FFFC00FF80
F7FE00FF00
77FE01FE00
03FF01FE00
03FF03FE00
01FF03FC00
01FF87FC00
00FF87F800
00FFCFF800
007FCFF000
007FFFF000
003FFFE000
003FFFE000
001FFFC000
001FFFC000
000FFF8000
000FFF8000
0007FF0000
0007FF0000
0003FE0000
0001FE0000
0001FE0000
0001FE0000
0001FE0000
0001FE0000
0001FE0000
0001FF0000
0001FF0000
0001FF0000
0000FF0000
0000FC0000
ENDCHAR
STARTCHAR 038F
ENCODING 911
SWIDTH 640 0
DWIDTH 32 0
BBX 32 36 0 0
BITMAP
1E000000
3E3FF000
3CFFFE00
7DFFFF80
7BFFFFC0
FFFFFFE0
F7FFFFF0
7FFFFFF0
0FFFFFF8
0FFFFFF8
1FFFFFFC
1FFC1FFC
1FF807FC
1FF003FE
1FF003FE
1FE001FE
1FE001FE
1FE001FE
1FE000FE
1FE000FE
1FE000FE
0FE000FE
0FE001FC
07F001FC
07F003FC
07F803F8
03F807F8
03FC07F0
1FFE0FFE
3FFE1FFF
3FFE1FFF
3FFE1FFF
3FFE1FFE
3FFE0FFE
3FFE0FFE
1FFA0FFE
ENDCHAR
STARTCHAR 0390
ENCODING 912
SWIDTH 320 0
DWIDTH 16 0
BBX 17 45 1 0
BITMAP
003C00
007C00
007800
00F000
00F000
0E6F00
1F1F80
1F1F80
1F1F00
0E0600
000000
07F000
0FFE00
1FFE00
0FFC00
0FFC00
0FFC00
1FFC00
1FFC00
1FFC00
1FF800
1FF800
1FF800
1FF800
1FF800
3FF800
3FF800
3FF800
3FF800
3FF800
3FF800
3FF800
3FF800
3FF800
3FF800
3FF800
3FF800
3FF800
3FF800
3FF000
7FF000
7FF000
7FF000
FFE000
F80000
ENDCHAR
STARTCHAR 0391
ENCODING 913
SWIDTH 620 0
DWIDTH 31 0
BBX 30 35 1 -1
BITMAP
0001C000
0007E000
0007E000
0007E000
000FF000
000FF000
001FF000
001FF000
001FF800
003FF800
003FF800
003FF800
007FFC00
007FFC00
00FFFC00
00FFFE00
00FFFE00
01FFFE00
01F3FF00
03F1FF00
03E1FF00
07C1FF80
07C1FF80
0FFFFF80
0FFFFFC0
0FFFFFC0
1FFFFFC0
1FF8FFE0
3FE0FFE0
3FC0FFF0
7FC0FFF0
7F807FF8
FF807FF8
FF807FFC
FE002000
ENDCHAR
STARTCHAR 0392
ENCODING 914
SWIDTH 520 0
DWIDTH 26 0
BBX 24 34 1 0
BITMAP
3FFC00
FFFF00
FFFFC0
FFFFC0
FFFFC0
FFFFE0
FFFFF0
FF9FF0
7F87F0
7F83F0
7F83F0
7F83F0
7FC7E0
7FCFE0
3FFFC0
3FFF80
3FFFE0
3FFFF8
3FFFFC
3FFFFE
3FF1FE
3FE0FF
3FF0FF
1FF0FF
1FF1FF
1FF3FF
1FF7FF
1FFFFE
1FFFFE
1FFFF8
1FFFF8
1FFFF0
0FFF00
01C000
ENDCHAR
STARTCHAR 0393
ENCODING 915
SWIDTH 500 0
DWIDTH 25 0
BBX 23 35 1 0
BITMAP
003FFC
1FFFFC
FFFFFE
FFFFFE
FFFFFE
FFFFFE
FFFFFE
FFFF8E
FFE000
FF8000
FF8000
FF8000
FF8000
FF8000
FF8000
FF8000
FF8000
FF8000
FF8000
FF8000
FF8000
FF8000
FF8000
FF8000
FF8000
FF8000
FF8000
FF8000
FF8000
FF8000
FF8000
7FC000
7FC000
7FC000
7E0000
ENDCHAR
STARTCHAR 0394
ENCODING 916
SWIDTH 580 0
DWIDTH 29 0
BBX 28 33 1 0
BITMAP
000FF000
001FF000
001FF000
003FF800
003FF800
007FF800
007FF800
00FFFC00
00FFFC00
01FFFC00
01FFFC00
03FFFE00
03FFFE00
07FFFE00
07FDFE00
0FFDFF00
0FF8FF00
1FF8FF00
1FF8FF80
1FF0FF80
3FF0FF80
3FF0FFC0
3FE0FFC0
7FE0FFC0
7FE0FFE0
7FC0FFE0
FFFFFFE0
FFFFFFE0
FFFFFFF0
FFFFFFF0
FFFFFFF0
FFFFFFF0
FFFFFFE0
ENDCHAR
STARTCHAR 0395
ENCODING 917
SWIDTH 480 0
DWIDTH 24 0
BBX 23 35 1 0
BITMAP
07FC00
3FFFC0
FFFFC0
FFFFC0
FFFF80
7FFF80
7FFF80
7FFF80
7FFF80
7FFF80
3FFF00
3FC000
3FC000
3FE000
3FE380
1FFF80
1FFF00
1FFF00
1FFF80
1FFE80
1FF000
0FF000
0FFFF8
0FFFF8
0FFFFC
0FFFFC
0FFFFC
0FFFFC
0FFFFE
0FFFFE
0FFFFE
07FFFC
07FFC0
07FC00
038000
ENDCHAR
STARTCHAR 0396
ENCODING 918
SWIDTH 600 0
DWIDTH 30 0
BBX 28 34 1 0
BITMAP
00FFFF00
0FFFFF00
3FFFFE00
7FFFFC00
7FFFFC00
FFFFF800
FFFFF000
FFFFF000
FF0FE000
001FE000
001FE000
001FC000
003FC000
003F8000
003F8000
007F8000
007F0000
00FF0000
00FF0000
00FF0000
01FF0000
01FE0000
01FE0000
03FC0000
03FC0C30
03FFFFF0
07FFFFF0
07FFFFF0
07FFFFF0
07FFFFE0
07FFFFC0
007FFF80
000FFF00
0000F000
ENDCHAR
STARTCHAR 0397
ENCODING 919
SWIDTH 560 0
DWIDTH 28 0
BBX 26 33 1 1
BITMAP
00F80000
0FFC1FC0
1FF83FC0
1FF83FC0
1FFC7FC0
1FF83FC0
1FF83FC0
1FF87FC0
1FF87FC0
1FF87FC0
1FF87FC0
1FF87FC0
1FF8FFC0
3FFFFFC0
3FFFFF80
3FFFFF80
3FFFFF80
3FFFFF80
3FFFFF80
3FFFFFC0
3FFFFFC0
3FFFFFC0
3FF7FFC0
7FF0FFC0
7FF0FFC0
7FF0FF80
7FF0FF80
7FF0FF80
7FF1FF80
7FF1FF80
7FF0FF80
FFF0FF80
FFF1F000
ENDCHAR
STARTCHAR 0398
ENCODING 920
SWIDTH 520 0
DWIDTH 26 0
BBX 25 35 1 0
BITMAP
007C0000
03FF8000
07FFE000
1FFFF000
3FFFF800
3FFFFC00
3FFFFC00
7FFFFE00
7FFFFE00
7FFFFF00
7FFFFF00
FFFFFF00
FFFFFF00
FFC3FF80
FF81FF80
FF81FF80
FFFFFF80
FFFFFF80
FFFFFF80
FFFFFF80
FFF0FF80
7F80FF80
7FC1FF00
7FFFFF00
7FFFFF00
3FFFFF00
3FFFFE00
1FFFFE00
1FFFFE00
0FFFFE00
0FFFFC00
03FFFC00
01FFF800
00FFF000
003FE000
ENDCHAR
STARTCHAR 0399
ENCODING 921
SWIDTH 320 0
DWIDTH 16 0
BBX 15 34 1 0
BITMAP
07F0
0FFE
1FFE
0FFC
0FFC
0FFC
1FFC
1FFC
1FFC
1FF8
1FF8
1FF8
1FF8
1FF8
3FF8
3FF8
3FF8
3FF8
3FF8
3FF8
3FF8
3FF8
3FF8
3FF8
3FF8
3FF8
3FF8
3FF8
3FF0
7FF0
7FF0
7FF0
FFE0
F800
ENDCHAR
STARTCHAR 039A
ENCODING 922
SWIDTH 540 0
DWIDTH 27 0
BBX 26 35 1 0
BITMAP
00000800
FFF81C00
FFF83C00
7FF87F00
7FF8FFC0
7FF8FF80
FFF9FF00
FFF9FF00
FFFBFE00
FFFBFC00
FFFFF800
FFFFF800
FFFFF000
FFFFF000
FFFFE000
FFFFE000
FFFFC000
FFFF8000
FFFF0000
FFFF8000
FFFFC000
FFFFE000
FFFFF000
FFFFF800
FFFFF800
FFFFFC00
FFFBFE00
FFF9FF00
FFF8FF00
FFF0FF80
FFF87F80
FFF87FC0
FFF83FC0
FFF83C00
00E03800
ENDCHAR
STARTCHAR 039B
ENCODING 923
SWIDTH 580 0
DWIDTH 29 0
BBX 28 32 1 1
BITMAP
03F00000
03F80000
07F80000
07FC0000
07FE0000
07FE0000
07FF0000
07FF8000
0FFF8000
0FFFC000
0FFFE000
0FFFE000
0FFFF000
1FFFF000
1FFFF800
1FFFF800
1FE7FC00
3FE7FE00
3FE7FE00
3FE7FF00
3FE7FF00
7FE3FF80
7FE3FF80
7FE3FFC0
7FE3FFC0
7FC1FFC0
FFC1FFE0
FFC1FFE0
FFC1FFF0
FFC17FF0
FFC003F0
FF800060
ENDCHAR
STARTCHAR 039C
ENCODING 924
SWIDTH 640 0
DWIDTH 32 0
BBX 31 34 1 0
BITMAP
0E0000C0
0F0001E0
0F0003E0
0F8007E0
0FC007E0
0FC007E0
0FE00FE0
0FF00FE0
1FF01FF0
1FF83FF0
1FF83FF0
1FFC7FF0
1FFE7FF0
1FFEFFF8
1FFFFFF0
3FFFFFF8
3FFFFFF8
3FFFFFF8
3FFFFFF8
3FFBFFF8
3FF9DFF8
3FF1DFF8
7FF01FF8
7FE01FF8
7FE01FFC
7FC03FFC
7FC03FFC
7FC03FFC
FFC03FFC
FF803FFC
FF803FFE
FF803FFE
FF003FF4
FF000000
ENDCHAR
STARTCHAR 039D
ENCODING 925
SWIDTH 560 0
DWIDTH 28 0
BBX 27 33 1 0
BITMAP
0FF01F80
1FF87FC0
1FF87FE0
1FF87FC0
1FF87FC0
3FF87FC0
3FF87FC0
3FF87FC0
3FFC7FC0
3FFC7FC0
3FFC7FC0
3FFE7F80
7FFE7F80
7FFEFF80
7FFEFF80
7FFFFF80
7FFFFF80
7FFFFF80
7FFFFF80
7FFFFF80
7FEFFF80
7FEFFF80
7FCFFF80
7FC7FF80
7FC7FF80
FFC7FF00
FFC3FF00
FFC3FF00
FFC3FF00
FFC3FF00
FFC3FF00
FF83FE00
F0000000
ENDCHAR
STARTCHAR 039E
ENCODING 926
SWIDTH 480 0
DWIDTH 24 0
BBX 22 34 1 0
BITMAP
FFF000
FFFFFC
FFFFFC
FFFFFC
FFFFFC
FFFFFC
FFFFFC
FFFFFC
0007F8
000000
000000
000000
000000
1FFFF0
1FFFF0
1FFFF0
1FFFF0
1FFFF0
3FFFF0
3FFE00
000000
000000
000000
000000
000000
FFF800
FFFFFC
FFFFFC
FFFFFC
FFFFFC
FFFFFC
FFFFFC
FFFFFC
000180
ENDCHAR
STARTCHAR 039F
ENCODING 927
SWIDTH 520 0
DWIDTH 26 0
BBX 25 35 1 0
BITMAP
01E00000
01F80000
03FE0000
07FF0000
0FFFC000
0FFFE000
1FFFF000
1FFFF800
1FFFF800
3FFFFC00
3FFFFE00
7FFFFE00
7FFFFE00
7FE3FF00
FFC1FF00
FF81FF00
FF81FF80
FF81FF80
FF81FF80
FF81FF80
FFC1FF80
FFE3FF80
FFFFFF80
7FFFFF80
7FFFFF00
7FFFFF00
7FFFFF00
3FFFFF00
3FFFFE00
1FFFFE00
1FFFFE00
0FFFFC00
07FFF800
01FFF000
007FC000
ENDCHAR
STARTCHAR 03A0
ENCODING 928
SWIDTH 540 0
DWIDTH 27 0
BBX 26 33 1 0
BITMAP
FFFFFF80
FFFFFF80
FFFFFF80
FFFFFF80
FFFFFF80
FFFFFF80
FFFFFF80
FFFFFF80
FFFFFF80
FF807F80
FF807F80
FF807F80
FF807F80
FF807F80
FF807F80
FF807F80
FF807F80
FF807F80
7F807F80
7FC07F80
7FC07F80
7FC07F80
7FC07F80
7FC07F80
7FC07F80
7FC07F80
7FC07F80
7FC07F80
7FC07F80
7FC07F80
7FC07F80
7FC07FC0
7FC07FC0
ENDCHAR
STARTCHAR 03A1
ENCODING 929
SWIDTH 480 0
DWIDTH 24 0
BBX 23 34 1 0
BITMAP
07FC00
3FFF80
3FFFE0
3FFFF0
3FFFF0
3FFFF8
3FFFF8
7FCFFC
7FC1FC
7FC0FC
7FC0FE
7FE0FE
7FE0FE
7FE1FE
7FE3FE
7FFFFE
7FFFFE
7FFFFC
7FFFF8
7FFFE0
FFFFC0
FFF000
FFF000
FFF000
FFF000
FFF000
FFF000
FFF000
FFF000
FFF000
FFF800
FFF800
FFF800
FFF800
ENDCHAR
STARTCHAR 03A3
ENCODING 931
SWIDTH 480 0
DWIDTH 24 0
BBX 22 34 1 0
BITMAP
FFFFFC
FFFFFC
FFFFFC
FFFFFC
FFFFFC
FFFFFC
FFFFFC
FFFF7C
FFE000
7FF000
3FF800
1FFC00
07FE00
03FF80
00FFC0
007FE0
003FE0
003FE0
003FE0
00FFC0
01FF00
03FE00
07FC00
0FF800
3FF000
7FE000
7FFFFC
FFFFFC
FFFFFC
FFFFFC
FFFFFC
FFFFFC
FFFFFC
00FFFC
ENDCHAR
STARTCHAR 03A4
ENCODING 932
SWIDTH 560 0
DWIDTH 28 0
BBX 27 34 1 0
BITMAP
003E0E00
FFFFFF80
FFFFFFC0
FFFFFFC0
FFFFFFE0
FFFFFFE0
FFFFFFE0
FFFFFFE0
FFFFFFE0
FFFFFF40
FFBFF000
F83FE000
003FC000
003FC000
003FC000
003FC000
003FC000
003F8000
003F8000
003FC000
003FC000
003FC000
003F8000
003F8000
003F8000
003F8000
003F8000
003F8000
003F8000
003F8000
003F8000
003F8000
003F8000
003F8000
ENDCHAR
STARTCHAR 03A5
ENCODING 933
SWIDTH 600 0
DWIDTH 30 0
BBX 29 34 1 0
BITMAP
000007F8
07000FF0
3F000FF0
FF801FF0
FFC01FE0
FFC01FE0
7FE03FC0
7FE03FC0
3FF07F80
1FF0FF80
1FF0FF00
1FF9FF00
0FF9FE00
0FFFFE00
07FFFC00
07FFFC00
03FFF800
03FFF800
01FFF000
00FFF000
00FFF000
007FE000
007FC000
003FC000
003FC000
001FC000
001FC000
001FC000
001FE000
001FE000
001FE000
001FE000
001FE000
001F8000
ENDCHAR
STARTCHAR 03A6
ENCODING 934
SWIDTH 660 0
DWIDTH 33 0
BBX 31 39 1 -2
BITMAP
001FF800
001FF800
001FF800
001FF800
01DFF800
0FFFFFF0
1FFFFFF8
3FFFFFF8
3FFFFFFC
7FFFFFFC
7FFFFFFC
7FFFFFFE
7FFFFFFE
FFFFFFFE
FFDFF7FE
FF9FF3FE
FF9FF3FE
FF1FF3FE
FF1FF3FE
FF1FF3FE
FF9FF3FE
FF9FE3FE
FF9FE3FE
FF9FE3FE
FFDFE7FC
FFFFEFFC
FFFFFFFC
7FFFFFF8
7FFFFFF8
7FFFFFF0
7FFFFFE0
3FFFFFC0
3FFFFFC0
1FBFFF80
003FDF00
007F8000
007F8000
007F8000
007F8000
ENDCHAR
STARTCHAR 03A7
ENCODING 935
SWIDTH 560 0
DWIDTH 28 0
BBX 27 33 1 1
BITMAP
00001FC0
3F801FE0
7F803FE0
FF803FE0
FFC07FC0
FFE0FFC0
FFE0FF80
FFF0FF80
7FF1FF00
7FF9FF00
3FF9FF00
1FFBFE00
0FFFFE00
07FFFE00
07FFFC00
03FFF800
01FFF800
01FFF800
00FFF000
00FFF000
01FFF800
03FFF800
03FFF800
07FFFC00
07FFFC00
0FFBFC00
0FF9FE00
1FF9FE00
1FF0FF00
3FF07F00
3FF03F00
3FF03000
3FE00000
ENDCHAR
STARTCHAR 03A8
ENCODING 936
SWIDTH 720 0
DWIDTH 36 0
BBX 34 34 1 0
BITMAP
0000000F80
FF03F03FC0
FF07F83FC0
FF07F83FC0
FF07F83FC0
FF07F83FC0
FF07F83FC0
FF07F83FC0
FF07F83FC0
FF07F83FC0
FF07F87FC0
FF07F87FC0
FF07F87FC0
FF07F87F80
FF07F87F80
7F87F8FF80
7FC7F9FF80
7FFFFFFF00
3FFFFFFF00
3FFFFFFF00
1FFFFFFE00
1FFFFFFC00
0FFFFFFC00
07FFFFF800
01FFFFE000
003FFF8000
0007FC0000
0007F80000
0007F80000
0007F80000
0007F80000
0007F80000
0007F80000
000FF80000
ENDCHAR
STARTCHAR 03A9
ENCODING 937
SWIDTH 600 0
DWIDTH 30 0
BBX 29 35 1 0
BITMAP
00FFC000
03FFF000
0FFFFC00
1FFFFE00
1FFFFF00
3FFFFF80
3FFFFFC0
7FFFFFC0
7FFFFFE0
7FFFFFE0
7FE07FF0
FFC03FF0
FF801FF0
FF800FF0
FF000FF0
FF0007F0
FF0007F8
FF0007F8
7F0007F0
7F0007F0
7F0007F0
3F8007F0
3F800FE0
3FC00FE0
1FC00FE0
1FE01FC0
0FE03F80
FFF07FF0
FFF07FF8
FFF07FF8
FFF07FF8
FFF87FF8
FFF87FF8
FFF87FF8
FFE07FF8
ENDCHAR
STARTCHAR 03AA
ENCODING 938
SWIDTH 320 0
DWIDTH 16 0
BBX 17 41 1 0
BITMAP
000400
0F0F00
1F1F80
1F1F00
1F1F00
0E0600
000000
07F000
0FFE00
1FFE00
0FFC00
0FFC00
0FFC00
1FFC00
1FFC00
1FFC00
1FF800
1FF800
1FF800
1FF800
1FF800
3FF800
3FF800
3FF800
3FF800
3FF800
3FF800
3FF800
3FF800
3FF800
3FF800
3FF800
3FF800
3FF800
3FF800
3FF000
7FF000
7FF000
7FF000
FFE000
F80000
ENDCHAR
STARTCHAR 03AB
ENCODING 939
SWIDTH 600 0
DWIDTH 30 0
BBX 29 41 1 0
BITMAP
00003000
00F8F800
00F8FC00
00F8F800
00F8F800
00703000
00000000
000007F8
07000FF0
3F000FF0
FF801FF0
FFC01FE0
FFC01FE0
7FE03FC0
7FE03FC0
3FF07F80
1FF0FF80
1FF0FF00
1FF9FF00
0FF9FE00
0FFFFE00
07FFFC00
07FFFC00
03FFF800
03FFF800
01FFF000
00FFF000
00FFF000
007FE000
007FC000
003FC000
003FC000
001FC000
001FC000
001FC000
001FE000
001FE000
001FE000
001FE000
001FE000
001F8000
ENDCHAR
STARTCHAR 03AC
ENCODING 940
SWIDTH 620 0
DWIDTH 31 0
BBX 30 37 1 -1
BITMAP
01F00000
01F00000
03E1C000
03C7E000
07C7E000
0787E000
070FF000
030FF000
001FF000
001FF000
001FF800
003FF800
003FF800
003FF800
007FFC00
007FFC00
00FFFC00
00FFFE00
00FFFE00
01FFFE00
01F3FF00
03F1FF00
03E1FF00
07C1FF80
07C1FF80
0FFFFF80
0FFFFFC0
0FFFFFC0
1FFFFFC0
1FF8FFE0
3FE0FFE0
3FC0FFF0
7FC0FFF0
7F807FF8
FF807FF8
FF807FFC
FE002000
ENDCHAR
STARTCHAR 03AD
ENCODING 941
SWIDTH 580 0
DWIDTH 29 0
BBX 29 36 0 0
BITMAP
1E000000
3E1FF000
3DFFFF00
7FFFFF00
7BFFFE00
FBFFFE00
F3FFFE00
71FFFE00
01FFFC00
01FFFC00
01FFFE00
01FFFC00
00FF0000
00FF0000
00FF0000
00FF9C00
00FFFC00
00FFFC00
007FFC00
007FFE00
007FF600
007F8000
007FC040
007FFFE0
003FFFE0
003FFFE0
003FFFF0
003FFFF0
003FFFF0
003FFFF0
003FFFF0
003FFFF8
003FFFF0
003FFF00
001FF000
001E0000
ENDCHAR
STARTCHAR 03AE
ENCODING 942
SWIDTH 600 0
DWIDTH 30 0
BBX 30 35 0 1
BITMAP
1E000000
3E000000
3C1F0000
7DFF8178
7BFF07FC
FBFF07FC
F3FF87FC
71FF87FC
01FF87F8
03FF0FF8
03FF0FF8
03FF0FF8
03FF0FF8
03FF0FF8
03FF0FF8
03FFFFF8
03FFFFF8
03FFFFF8
07FFFFF8
07FFFFF8
07FFFFF8
07FFFFF8
07FFFFF8
07FFFFF8
07FF7FF8
07FE1FF8
07FE1FF8
07FE1FF8
07FE1FF8
07FE1FF8
0FFE1FF0
0FFE1FF0
0FFE1FF0
0FFE1FF0
1FFE3E00
ENDCHAR
STARTCHAR 03AF
ENCODING 943
SWIDTH 380 0
DWIDTH 19 0
BBX 18 36 0 0
BITMAP
1E0000
3E0000
3C7F00
7DFFC0
79FFC0
F9FFC0
F1FF80
71FF80
01FF80
01FF80
03FF80
03FF80
03FF80
03FF80
03FF80
03FF80
03FF00
03FF00
03FF00
03FF00
07FF00
07FF00
07FF00
07FF00
07FF00
07FF00
07FF00
07FF00
07FF80
07FF80
07FF00
07FF00
07FF00
0FFF00
0FFC00
1F8000
ENDCHAR
STARTCHAR 03B0
ENCODING 944
SWIDTH 600 0
DWIDTH 30 0
BBX 29 45 1 0
BITMAP
0001E000
0003E000
0003C000
00078000
00070000
00777000
00F8F800
00F8F800
00F8F800
00703000
00000000
000007F8
07000FF0
3F000FF0
FF801FF0
FFC01FE0
FFC01FE0
7FE03FC0
7FE03FC0
3FF07F80
1FF0FF80
1FF0FF00
1FF9FF00
0FF9FE00
0FFFFE00
07FFFC00
07FFFC00
03FFF800
03FFF800
01FFF000
00FFF000
00FFF000
007FE000
007FC000
003FC000
003FC000
001FC000
001FC000
001FC000
001FE000
001FE000
001FE000
001FE000
001FE000
001F8000
ENDCHAR
STARTCHAR 03B1
ENCODING 945
SWIDTH 620 0
DWIDTH 31 0
BBX 30 35 1 -1
BITMAP
0001C000
0007E000
0007E000
0007E000
000FF000
000FF000
001FF000
001FF000
001FF800
003FF800
003FF800
003FF800
007FFC00
007FFC00
00FFFC00
00FFFE00
00FFFE00
01FFFE00
01F3FF00
03F1FF00
03E1FF00
07C1FF80
07C1FF80
0FFFFF80
0FFFFFC0
0FFFFFC0
1FFFFFC0
1FF8FFE0
3FE0FFE0
3FC0FFF0
7FC0FFF0
7F807FF8
FF807FF8
FF807FFC
FE002000
ENDCHAR
STARTCHAR 03B2
ENCODING 946
SWIDTH 520 0
DWIDTH 26 0
BBX 24 34 1 0
BITMAP
3FFC00
FFFF00
FFFFC0
FFFFC0
FFFFC0
FFFFE0
FFFFF0
FF9FF0
7F87F0
7F83F0
7F83F0
7F83F0
7FC7E0
7FCFE0
3FFFC0
3FFF80
3FFFE0
3FFFF8
3FFFFC
3FFFFE
3FF1FE
3FE0FF
3FF0FF
1FF0FF
1FF1FF
1FF3FF
1FF7FF
1FFFFE
1FFFFE
1FFFF8
1FFFF8
1FFFF0
0FFF00
01C000
ENDCHAR
STARTCHAR 03B3
ENCODING 947
SWIDTH 500 0
DWIDTH 25 0
BBX 23 35 1 0
BITMAP
003FFC
1FFFFC
FFFFFE
FFFFFE
FFFFFE
FFFFFE
FFFFFE
FFFF8E
FFE000
FF8000
FF8000
FF8000
FF8000
FF8000
FF8000
FF8000
FF8000
FF8000
FF8000
FF8000
FF8000
FF8000
FF8000
FF8000
FF8000
FF8000
FF8000
FF8000
FF8000
FF8000
FF8000
7FC000
7FC000
7FC000
7E0000
ENDCHAR
STARTCHAR 03B4
ENCODING 948
SWIDTH 580 0
DWIDTH 29 0
BBX 28 33 1 0
BITMAP
000FF000
001FF000
001FF000
003FF800
003FF800
007FF800
007FF800
00FFFC00
00FFFC00
01FFFC00
01FFFC00
03FFFE00
03FFFE00
07FFFE00
07FDFE00
0FFDFF00
0FF8FF00
1FF8FF00
1FF8FF80
1FF0FF80
3FF0FF80
3FF0FFC0
3FE0FFC0
7FE0FFC0
7FE0FFE0
7FC0FFE0
FFFFFFE0
FFFFFFE0
FFFFFFF0
FFFFFFF0
FFFFFFF0
FFFFFFF0
FFFFFFE0
ENDCHAR
STARTCHAR 03B5
ENCODING 949
SWIDTH 480 0
DWIDTH 24 0
BBX 23 35 1 0
BITMAP
07FC00
3FFFC0
FFFFC0
FFFFC0
FFFF80
7FFF80
7FFF80
7FFF80
7FFF80
7FFF80
3FFF00
3FC000
3FC000
3FE000
3FE380
1FFF80
1FFF00
1FFF00
1FFF80
1FFE80
1FF000
0FF000
0FFFF8
0FFFF8
0FFFFC
0FFFFC
0FFFFC
0FFFFC
0FFFFE
0FFFFE
0FFFFE
07FFFC
07FFC0
07FC00
038000
ENDCHAR
STARTCHAR 03B6
ENCODING 950
SWIDTH 600 0
DWIDTH 30 0
BBX 28 34 1 0
BITMAP
00FFFF00
0FFFFF00
3FFFFE00
7FFFFC00
7FFFFC00
FFFFF800
FFFFF000
FFFFF000
FF0FE000
001FE000
001FE000
001FC000
003FC000
003F8000
003F8000
007F8000
007F0000
00FF0000
00FF0000
00FF0000
01FF0000
01FE0000
01FE0000
03FC0000
03FC0C30
03FFFFF0
07FFFFF0
07FFFFF0
07FFFFF0
07FFFFE0
07FFFFC0
007FFF80
000FFF00
0000F000
ENDCHAR
STARTCHAR 03B7
ENCODING 951
SWIDTH 560 0
DWIDTH 28 0
BBX 26 33 1 1
BITMAP
00F80000
0FFC1FC0
1FF83FC0
1FF83FC0
1FFC7FC0
1FF83FC0
1FF83FC0
1FF87FC0
1FF87FC0
1FF87FC0
1FF87FC0
1FF87FC0
1FF8FFC0
3FFFFFC0
3FFFFF80
3FFFFF80
3FFFFF80
3FFFFF80
3FFFFF80
3FFFFFC0
3FFFFFC0
3FFFFFC0
3FF7FFC0
7FF0FFC0
7FF0FFC0
7FF0FF80
7FF0FF80
7FF0FF80
7FF1FF80
7FF1FF80
7FF0FF80
FFF0FF80
FFF1F000
ENDCHAR
STARTCHAR 03B8
ENCODING 952
SWIDTH 520 0
DWIDTH 26 0
BBX 25 35 1 0
BITMAP
007C0000
03FF8000
07FFE000
1FFFF000
3FFFF800
3FFFFC00
3FFFFC00
7FFFFE00
7FFFFE00
7FFFFF00
7FFFFF00
FFFFFF00
FFFFFF00
FFC3FF80
FF81FF80
FF81FF80
FFFFFF80
FFFFFF80
FFFFFF80
FFFFFF80
FFF0FF80
7F80FF80
7FC1FF00
7FFFFF00
7FFFFF00
3FFFFF00
3FFFFE00
1FFFFE00
1FFFFE00
0FFFFE00
0FFFFC00
03FFFC00
01FFF800
00FFF000
003FE000
ENDCHAR
STARTCHAR 03B9
ENCODING 953
SWIDTH 320 0
DWIDTH 16 0
BBX 15 34 1 0
BITMAP
07F0
0FFE
1FFE
0FFC
0FFC
0FFC
1FFC
1FFC
1FFC
1FF8
1FF8
1FF8
1FF8
1FF8
3FF8
3FF8
3FF8
3FF8
3FF8
3FF8
3FF8
3FF8
3FF8
3FF8
3FF8
3FF8
3FF8
3FF8
3FF0
7FF0
7FF0
7FF0
FFE0
F800
ENDCHAR
STARTCHAR 03BA
ENCODING 954
SWIDTH 540 0
DWIDTH 27 0
BBX 26 35 1 0
BITMAP
00000800
FFF81C00
FFF83C00
7FF87F00
7FF8FFC0
7FF8FF80
FFF9FF00
FFF9FF00
FFFBFE00
FFFBFC00
FFFFF800
FFFFF800
FFFFF000
FFFFF000
FFFFE000
FFFFE000
FFFFC000
FFFF8000
FFFF0000
FFFF8000
FFFFC000
FFFFE000
FFFFF000
FFFFF800
FFFFF800
FFFFFC00
FFFBFE00
FFF9FF00
FFF8FF00
FFF0FF80
FFF87F80
FFF87FC0
FFF83FC0
FFF83C00
00E03800
ENDCHAR
STARTCHAR 03BB
ENCODING 955
SWIDTH 580 0
DWIDTH 29 0
BBX 28 32 1 1
BITMAP
03F00000
03F80000
07F80000
07FC0000
07FE0000
07FE0000
07FF0000
07FF8000
0FFF8000
0FFFC000
0FFFE000
0FFFE000
0FFFF000
1FFFF000
1FFFF800
1FFFF800
1FE7FC00
3FE7FE00
3FE7FE00
3FE7FF00
3FE7FF00
7FE3FF80
7FE3FF80
7FE3FFC0
7FE3FFC0
7FC1FFC0
FFC1FFE0
FFC1FFE0
FFC1FFF0
FFC17FF0
FFC003F0
FF800060
ENDCHAR
STARTCHAR 03BC
ENCODING 956
SWIDTH 640 0
DWIDTH 32 0
BBX 31 34 1 0
BITMAP
0E0000C0
0F0001E0
0F0003E0
0F8007E0
0FC007E0
0FC007E0
0FE00FE0
0FF00FE0
1FF01FF0
1FF83FF0
1FF83FF0
1FFC7FF0
1FFE7FF0
1FFEFFF8
1FFFFFF0
3FFFFFF8
3FFFFFF8
3FFFFFF8
3FFFFFF8
3FFBFFF8
3FF9DFF8
3FF1DFF8
7FF01FF8
7FE01FF8
7FE01FFC
7FC03FFC
7FC03FFC
7FC03FFC
FFC03FFC
FF803FFC
FF803FFE
FF803FFE
FF003FF4
FF000000
ENDCHAR
STARTCHAR 03BD
ENCODING 957
SWIDTH 560 0
DWIDTH 28 0
BBX 27 33 1 0
BITMAP
0FF01F80
1FF87FC0
1FF87FE0
1FF87FC0
1FF87FC0
3FF87FC0
3FF87FC0
3FF87FC0
3FFC7FC0
3FFC7FC0
3FFC7FC0
3FFE7F80
7FFE7F80
7FFEFF80
7FFEFF80
7FFFFF80
7FFFFF80
7FFFFF80
7FFFFF80
7FFFFF80
7FEFFF80
7FEFFF80
7FCFFF80
7FC7FF80
7FC7FF80
FFC7FF00
FFC3FF00
FFC3FF00
FFC3FF00
FFC3FF00
FFC3FF00
FF83FE00
F0000000
ENDCHAR
STARTCHAR 03BE
ENCODING 958
SWIDTH 480 0
DWIDTH 24 0
BBX 22 34 1 0
BITMAP
FFF000
FFFFFC
FFFFFC
FFFFFC
FFFFFC
FFFFFC
FFFFFC
FFFFFC
0007F8
000000
000000
000000
000000
1FFFF0
1FFFF0
1FFFF0
1FFFF0
1FFFF0
3FFFF0
3FFE00
000000
000000
000000
000000
000000
FFF800
FFFFFC
FFFFFC
FFFFFC
FFFFFC
FFFFFC
FFFFFC
FFFFFC
000180
ENDCHAR
STARTCHAR 03BF
ENCODING 959
SWIDTH 520 0
DWIDTH 26 0
BBX 25 35 1 0
BITMAP
01E00000
01F80000
03FE0000
07FF0000
0FFFC000
0FFFE000
1FFFF000
1FFFF800
1FFFF800
3FFFFC00
3FFFFE00
7FFFFE00
7FFFFE00
7FE3FF00
FFC1FF00
FF81FF00
FF81FF80
FF81FF80
FF81FF80
FF81FF80
FFC1FF80
FFE3FF80
FFFFFF80
7FFFFF80
7FFFFF00
7FFFFF00
7FFFFF00
3FFFFF00
3FFFFE00
1FFFFE00
1FFFFE00
0FFFFC00
07FFF800
01FFF000
007FC000
ENDCHAR
STARTCHAR 03C0
ENCODING 960
SWIDTH 540 0
DWIDTH 27 0
BBX 26 33 1 0
BITMAP
FFFFFF80
FFFFFF80
FFFFFF80
FFFFFF80
FFFFFF80
FFFFFF80
FFFFFF80
FFFFFF80
FFFFFF80
FF807F80
FF807F80
FF807F80
FF807F80
FF807F80
FF807F80
FF807F80
FF807F80
FF807F80
7F807F80
7FC07F80
7FC07F80
7FC07F80
7FC07F80
7FC07F80
7FC07F80
7FC07F80
7FC07F80
7FC07F80
7FC07F80
7FC07F80
7FC07F80
7FC07FC0
7FC07FC0
ENDCHAR
STARTCHAR 03C1
ENCODING 961
SWIDTH 480 0
DWIDTH 24 0
BBX 23 34 1 0
BITMAP
07FC00
3FFF80
3FFFE0
3FFFF0
3FFFF0
3FFFF8
3FFFF8
7FCFFC
7FC1FC
7FC0FC
7FC0FE
7FE0FE
7FE0FE
7FE1FE
7FE3FE
7FFFFE
7FFFFE
7FFFFC
7FFFF8
7FFFE0
FFFFC0
FFF000
FFF000
FFF000
FFF000
FFF000
FFF000
FFF000
FFF000
FFF000
FFF800
FFF800
FFF800
FFF800
ENDCHAR
STARTCHAR 03C2
ENCODING 962
SWIDTH 500 0
DWIDTH 25 0
BBX 23 41 1 -7
BITMAP
000F00
007FE0
01FFF8
07FFFC
0FFFFE
1FFFFE
3FFFFE
7FFFFE
7FFFFE
7FFFFE
FFE00C
FF8000
FF0000
FF0000
FF0000
FE0000
FE0000
FF0000
FF0000
FF0000
FF8000
FFE000
FFF800
7FFF80
7FFFF0
3FFFF8
3FFFFC
1FFFFE
0FFFFE
03FFFE
00FFFE
0007FE
0007FC
0007FC
001FFC
003FFC
003FF8
003FF8
003FE0
003FE0
003F00
ENDCHAR
STARTCHAR 03C3
ENCODING 963
SWIDTH 480 0
DWIDTH 24 0
BBX 22 34 1 0
BITMAP
FFFFFC
FFFFFC
FFFFFC
FFFFFC
FFFFFC
FFFFFC
FFFFFC
FFFF7C
FFE000
7FF000
3FF800
1FFC00
07FE00
03FF80
00FFC0
007FE0
003FE0
003FE0
003FE0
00FFC0
01FF00
03FE00
07FC00
0FF800
3FF000
7FE000
7FFFFC
FFFFFC
FFFFFC
FFFFFC
FFFFFC
FFFFFC
FFFFFC
00FFFC
ENDCHAR
STARTCHAR 03C4
ENCODING 964
SWIDTH 560 0
DWIDTH 28 0
BBX 27 34 1 0
BITMAP
003E0E00
FFFFFF80
FFFFFFC0
FFFFFFC0
FFFFFFE0
FFFFFFE0
FFFFFFE0
FFFFFFE0
FFFFFFE0
FFFFFF40
FFBFF000
F83FE000
003FC000
003FC000
003FC000
003FC000
003FC000
003F8000
003F8000
003FC000
003FC000
003FC000
003F8000
003F8000
003F8000
003F8000
003F8000
003F8000
003F8000
003F8000
003F8000
003F8000
003F8000
003F8000
ENDCHAR
STARTCHAR 03C5
ENCODING 965
SWIDTH 600 0
DWIDTH 30 0
BBX 29 34 1 0
BITMAP
000007F8
07000FF0
3F000FF0
FF801FF0
FFC01FE0
FFC01FE0
7FE03FC0
7FE03FC0
3FF07F80
1FF0FF80
1FF0FF00
1FF9FF00
0FF9FE00
0FFFFE00
07FFFC00
07FFFC00
03FFF800
03FFF800
01FFF000
00FFF000
00FFF000
007FE000
007FC000
003FC000
003FC000
001FC000
001FC000
001FC000
001FE000
001FE000
001FE000
001FE000
001FE000
001F8000
ENDCHAR
STARTCHAR 03C6
ENCODING 966
SWIDTH 660 0
DWIDTH 33 0
BBX 31 39 1 -2
BITMAP
001FF800
001FF800
001FF800
001FF800
01DFF800
0FFFFFF0
1FFFFFF8
3FFFFFF8
3FFFFFFC
7FFFFFFC
7FFFFFFC
7FFFFFFE
7FFFFFFE
FFFFFFFE
FFDFF7FE
FF9FF3FE
FF9FF3FE
FF1FF3FE
FF1FF3FE
FF1FF3FE
FF9FF3FE
FF9FE3FE
FF9FE3FE
FF9FE3FE
FFDFE7FC
FFFFEFFC
FFFFFFFC
7FFFFFF8
7FFFFFF8
7FFFFFF0
7FFFFFE0
3FFFFFC0
3FFFFFC0
1FBFFF80
003FDF00
007F8000
007F8000
007F8000
007F8000
ENDCHAR
STARTCHAR 03C7
ENCODING 967
SWIDTH 560 0
DWIDTH 28 0
BBX 27 33 1 1
BITMAP
00001FC0
3F801FE0
7F803FE0
FF803FE0
FFC07FC0
FFE0FFC0
FFE0FF80
FFF0FF80
7FF1FF00
7FF9FF00
3FF9FF00
1FFBFE00
0FFFFE00
07FFFE00
07FFFC00
03FFF800
01FFF800
01FFF800
00FFF000
00FFF000
01FFF800
03FFF800
03FFF800
07FFFC00
07FFFC00
0FFBFC00
0FF9FE00
1FF9FE00
1FF0FF00
3FF07F00
3FF03F00
3FF03000
3FE00000
ENDCHAR
STARTCHAR 03C8
ENCODING 968
SWIDTH 720 0
DWIDTH 36 0
BBX 34 34 1 0
BITMAP
0000000F80
FF03F03FC0
FF07F83FC0
FF07F83FC0
FF07F83FC0
FF07F83FC0
FF07F83FC0
FF07F83FC0
FF07F83FC0
FF07F83FC0
FF07F87FC0
FF07F87FC0
FF07F87FC0
FF07F87F80
FF07F87F80
7F87F8FF80
7FC7F9FF80
7FFFFFFF00
3FFFFFFF00
3FFFFFFF00
1FFFFFFE00
1FFFFFFC00
0FFFFFFC00
07FFFFF800
01FFFFE000
003FFF8000
0007FC0000
0007F80000
0007F80000
0007F80000
0007F80000
0007F80000
0007F80000
000FF80000
ENDCHAR
ENDFONT
